<?xml version="1.0" encoding="UTF-8"?>
<svg xmlns="http://www.w3.org/2000/svg" width="884" height="704" viewBox="0 0 884 704" role="img" aria-labelledby="title desc">
  <title id="title">BillBandit final receipt mascot</title>
  <desc id="desc">A clean vector recreation of a cream and navy raccoon mascot holding a receipt with a FINAL stamp on a blue background.</desc><g id="cream-shapes" transform="translate(0.000000,704.000000) scale(0.100000,-0.100000)" fill="#f6efdf" stroke="none">
<path d="M1520 6722 c-85 -34 -189 -120 -235 -192 -33 -53 -71 -154 -90 -240
-22 -101 -30 -291 -16 -360 6 -30 18 -93 27 -140 9 -47 20 -89 25 -95 16 -16
9 -59 -17 -95 -45 -65 -78 -115 -90 -135 -6 -11 -40 -69 -76 -130 -35 -60 -86
-154 -112 -207 -70 -141 -202 -272 -308 -307 -50 -17 -71 -42 -62 -77 8 -35
84 -154 137 -212 21 -23 35 -47 32 -52 -3 -6 -22 -10 -41 -10 -19 0 -34 -5
-34 -10 0 -22 136 -189 241 -297 60 -62 109 -119 109 -126 0 -21 -13 -31 -80
-66 -36 -18 -75 -42 -88 -54 -39 -36 -70 -100 -79 -165 -9 -60 -9 -64 11 -72
12 -4 39 -31 61 -59 40 -51 59 -66 76 -55 5 3 -5 20 -22 37 -48 48 -60 84 -51
160 5 35 16 76 25 91 18 28 113 106 128 106 5 0 9 9 9 20 0 16 7 20 36 20 36
0 73 -15 86 -34 13 -18 9 -56 -5 -56 -31 0 -97 -97 -97 -142 0 -26 23 -63 62
-103 23 -23 29 -25 34 -11 3 8 -4 31 -16 51 -28 46 -29 100 -1 129 12 12 21
27 21 33 0 19 37 43 66 43 18 0 68 -24 129 -61 206 -125 593 -295 750 -329 28
-6 79 -19 115 -30 121 -35 195 -52 270 -60 41 -5 119 -14 173 -20 169 -19 446
-17 587 3 366 54 720 161 1035 312 126 61 386 231 522 342 87 70 237 221 270
270 19 28 9 43 -27 43 -35 0 -60 9 -60 22 0 5 13 20 28 33 29 24 161 193 180
231 13 25 0 40 -58 69 -90 46 -207 163 -255 255 -32 64 -192 384 -225 453 -34
69 -34 69 -15 115 46 118 82 246 99 357 28 175 29 204 6 335 -23 134 -48 200
-106 275 -50 66 -79 90 -153 126 -114 56 -214 50 -367 -22 -84 -40 -164 -100
-278 -209 -52 -49 -102 -90 -110 -90 -9 0 -44 11 -78 25 -109 43 -331 94 -500
116 -130 17 -189 20 -293 15 -131 -7 -342 -39 -376 -56 -10 -6 -27 -10 -39
-10 -11 0 -56 -12 -99 -26 -48 -17 -87 -24 -102 -20 -13 3 -53 40 -88 82 -82
98 -188 182 -297 236 -77 38 -93 42 -172 45 -67 3 -98 -1 -132 -15z m216 -140
c94 -43 154 -96 233 -205 49 -67 50 -95 6 -117 -56 -28 -170 -93 -200 -114
-106 -75 -240 -184 -300 -246 -126 -132 -126 -131 -141 -119 -8 6 -14 26 -14
43 -1 17 -7 60 -15 96 -38 171 1 408 90 545 39 61 108 114 175 136 36 12 121
2 166 -19z m2671 -70 c135 -70 200 -270 174 -537 -7 -66 -20 -149 -31 -185
-10 -36 -21 -77 -24 -92 -11 -50 -45 -35 -101 43 -57 79 -215 237 -325 325
-41 33 -112 82 -157 109 -100 59 -103 71 -36 147 102 115 169 165 268 201 67
24 174 18 232 -11z m-1353 -122 c255 -29 332 -47 544 -124 176 -64 325 -146
462 -254 78 -62 255 -238 298 -297 20 -27 42 -56 49 -63 31 -32 66 -85 130
-197 68 -118 84 -151 137 -270 15 -33 36 -77 47 -98 21 -38 22 -78 4 -84 -6
-2 -56 36 -111 84 -106 92 -271 220 -339 264 -97 62 -104 67 -185 110 -100 54
-307 109 -409 109 -51 0 -199 -33 -266 -59 -107 -41 -227 -134 -312 -240 -62
-77 -140 -229 -155 -304 -15 -68 1 -97 61 -115 57 -17 89 -1 188 92 105 99
157 139 229 173 55 26 67 28 194 28 118 0 142 -3 190 -23 168 -70 254 -136
499 -380 196 -194 291 -265 434 -321 26 -10 27 -12 13 -38 -24 -48 -197 -208
-281 -262 -104 -67 -248 -120 -367 -137 -49 -6 -157 8 -248 33 -143 40 -278
137 -464 333 -189 199 -261 265 -334 303 -144 76 -300 98 -446 61 -127 -32
-229 -101 -442 -300 -130 -121 -166 -151 -256 -210 -93 -61 -168 -91 -272
-108 -80 -14 -98 -14 -180 0 -181 31 -321 125 -474 316 -51 64 -92 123 -92
131 0 11 21 22 65 36 82 24 209 108 318 209 76 71 147 135 222 201 41 36 169
121 182 121 6 0 16 6 22 14 6 7 46 24 89 36 61 19 101 24 197 24 103 1 127 -2
172 -22 85 -37 136 -76 238 -187 102 -109 141 -134 186 -116 58 22 74 75 53
182 -42 225 -175 413 -344 489 -14 7 -38 19 -55 27 -39 20 -168 43 -270 50
-59 3 -104 -1 -173 -16 -51 -12 -100 -25 -110 -30 -9 -5 -44 -22 -77 -37 -137
-63 -235 -127 -431 -285 -86 -69 -124 -95 -132 -87 -13 13 -5 35 38 108 18 30
52 92 77 138 111 207 273 398 472 557 153 120 241 177 386 246 322 153 714
225 1029 189z m-267 -1994 c136 -29 203 -109 174 -207 -15 -51 -52 -93 -120
-136 -31 -19 -66 -44 -78 -56 -45 -40 -22 -92 57 -132 89 -45 211 -27 297 44
47 39 63 39 63 2 0 -72 -179 -154 -296 -136 -25 3 -70 19 -100 36 -69 36 -91
36 -155 3 -44 -23 -58 -26 -122 -22 -80 5 -127 28 -191 94 -70 73 -16 94 59
25 48 -44 101 -58 188 -48 54 7 92 33 108 76 15 39 2 58 -74 99 -107 60 -167
130 -167 196 0 78 65 140 170 162 73 16 112 16 187 0z M1960 4939 c-33 -13
-78 -74 -86 -115 -14 -75 18 -134 94 -173 63 -32 102 -28 153 17 46 42 47 44
36 165 -6 70 -44 107 -118 112 -30 3 -65 0 -79 -6z m135 -61 c30 -14 46 -61
32 -101 -10 -30 -55 -67 -82 -67 -22 0 -75 54 -75 77 1 28 23 62 56 84 34 22
35 22 69 7z M3515 4899 c-11 -5 -33 -29 -49 -51 -37 -52 -47 -135 -22 -182 41
-77 134 -98 212 -49 93 59 99 176 14 258 -23 22 -41 29 -82 32 -29 1 -62 -2
-73 -8z m81 -84 c22 -34 11 -88 -23 -115 -35 -28 -46 -26 -82 15 -43 49 -41
85 4 112 36 21 83 16 101 -12z M5810 4460 c-278 -29 -587 -203 -768 -433 -61
-77 -129 -191 -166 -277 -15 -36 -34 -78 -41 -95 -7 -16 -23 -66 -35 -110 -12
-44 -31 -109 -41 -144 -10 -35 -19 -74 -19 -86 0 -12 -6 -29 -13 -39 -12 -16
-14 -16 -39 4 -15 11 -30 30 -34 43 -4 12 -15 33 -24 47 -10 14 -48 71 -84
128 -37 56 -71 102 -76 102 -21 0 -60 -21 -60 -32 0 -7 32 -56 71 -108 90
-121 119 -166 211 -325 68 -117 93 -166 173 -340 102 -220 175 -496 175 -658
0 -200 -82 -368 -225 -461 -68 -45 -211 -100 -320 -124 -105 -24 -432 -47
-543 -40 -72 6 -80 4 -122 -23 -107 -67 -176 -84 -310 -75 -116 8 -226 33
-262 60 -22 15 -28 28 -28 56 0 41 18 62 93 105 26 15 44 31 41 36 -13 22 -78
2 -144 -44 -39 -27 -66 -22 -79 14 -14 40 -14 114 -1 139 10 18 96 63 182 94
72 26 78 50 13 50 -19 0 -42 -7 -52 -16 -10 -9 -31 -20 -48 -24 -16 -3 -38
-13 -47 -21 -20 -18 -57 -14 -71 9 -8 13 -4 30 16 72 36 73 76 111 178 171 84
50 84 50 215 50 79 0 136 -4 145 -11 8 -6 47 -21 87 -34 72 -23 72 -23 125 5
84 45 86 46 238 148 81 53 151 97 157 97 16 0 24 18 17 40 -5 16 -10 18 -26 9
-11 -5 -32 -9 -47 -7 -33 4 -52 40 -117 218 -25 68 -50 129 -55 134 -7 7 -16
5 -26 -6 -14 -14 -14 -21 0 -74 25 -94 44 -155 66 -218 33 -93 25 -114 -68
-174 -180 -117 -231 -139 -259 -111 -22 22 -168 51 -258 52 -70 0 -96 -3 -117
-17 -15 -10 -37 -16 -50 -14 -23 3 -23 3 -23 290 -1 169 -5 292 -10 297 -13
11 -426 31 -1269 61 -293 10 -310 10 -327 -7 -14 -15 -19 -54 -28 -243 -6
-124 -13 -385 -17 -580 -7 -416 -2 -396 -101 -385 -35 4 -133 10 -218 14 -156
8 -156 8 -186 38 -27 26 -31 37 -32 93 -2 63 -2 63 92 93 80 26 100 37 146 81
65 64 85 102 92 175 4 38 15 70 34 99 34 50 38 108 12 153 -15 26 -16 33 -4
62 8 17 16 51 18 74 8 74 -67 181 -159 225 -18 9 -69 24 -113 33 -116 25 -118
27 -111 88 3 29 8 102 12 163 5 90 3 121 -10 162 -10 28 -24 56 -32 62 -36 30
-12 83 98 219 37 46 68 90 68 97 0 9 -11 14 -30 14 -38 0 -87 -50 -153 -158
-58 -95 -75 -108 -118 -93 -41 14 -121 -4 -159 -35 -35 -30 -44 -58 -66 -199
-9 -60 -21 -123 -26 -138 -7 -18 -40 -47 -97 -86 -91 -61 -185 -161 -220 -235
-48 -100 -61 -157 -61 -266 0 -85 5 -119 25 -177 59 -176 122 -241 315 -326
54 -24 157 -39 245 -37 116 4 111 5 124 -44 6 -25 15 -48 21 -51 5 -3 10 -21
10 -39 0 -32 -1 -34 -50 -40 -27 -4 -52 -12 -56 -18 -14 -22 28 -35 138 -41
269 -15 523 -38 532 -47 7 -7 9 -103 7 -270 -3 -259 -3 -259 21 -283 24 -24
25 -24 318 -30 162 -3 331 -11 375 -17 44 -6 260 -14 480 -19 325 -6 404 -5
423 6 21 13 22 18 23 196 1 100 4 193 8 207 6 22 12 25 52 24 24 0 68 -6 98
-12 130 -28 236 -10 360 63 64 38 64 38 200 32 308 -12 539 26 756 123 67 30
67 30 635 30 313 0 575 3 584 6 25 10 19 43 -10 54 -14 6 -92 10 -174 10 -149
0 -149 0 -141 22 5 13 23 26 47 34 53 16 319 160 364 197 34 27 90 105 90 125
0 32 -12 33 -59 1 -67 -46 -74 -40 -88 81 -7 58 -20 126 -28 152 -8 26 -15 52
-15 58 0 10 -14 44 -73 170 -75 161 -311 384 -502 474 -33 15 -67 32 -77 36
-9 5 -54 19 -100 32 -94 25 -283 36 -344 19 -61 -17 -68 -4 -61 110 8 121 42
260 71 288 26 24 169 58 312 72 89 9 118 8 222 -10 162 -28 235 -52 387 -126
201 -97 349 -220 468 -386 50 -71 137 -235 137 -259 0 -9 6 -24 14 -35 7 -11
21 -55 30 -98 9 -44 18 -83 22 -88 8 -13 30 -11 43 5 15 18 132 95 191 126 25
12 53 30 64 39 22 20 51 79 70 146 8 28 26 88 40 135 31 101 56 287 56 420 0
249 -51 433 -177 633 -58 93 -237 254 -338 305 -185 93 -411 134 -615 112z
m310 -105 c131 -29 206 -55 286 -99 79 -44 92 -54 185 -147 131 -132 217 -308
250 -514 17 -107 5 -385 -16 -392 -6 -2 -26 23 -45 54 -157 266 -235 358 -425
502 -164 125 -360 222 -546 272 -111 30 -327 51 -447 45 -84 -5 -104 -3 -108
8 -9 23 9 46 67 87 254 180 532 245 799 184z m-5129 -1098 c19 -13 45 -46 61
-77 25 -50 28 -65 28 -165 0 -136 -11 -175 -62 -231 -23 -25 -38 -47 -35 -51
4 -3 69 -7 144 -7 127 -2 142 -4 188 -28 28 -14 70 -47 93 -72 36 -39 42 -52
42 -89 0 -50 -13 -67 -51 -67 -69 0 -82 -38 -21 -62 27 -10 43 -26 55 -50 33
-70 17 -115 -44 -124 -48 -8 -80 -43 -51 -58 76 -40 81 -89 16 -151 -66 -64
-137 -87 -379 -126 -96 -16 -246 11 -346 61 -77 39 -132 99 -177 190 -34 70
-36 83 -40 188 -4 104 -2 121 23 195 48 141 114 221 240 292 109 60 123 86
131 240 6 100 10 121 32 155 42 64 95 77 153 37z m4145 -716 c84 -82 149 -181
209 -316 9 -22 25 -85 35 -141 15 -91 16 -112 3 -225 -17 -161 -19 -168 -46
-174 -41 -10 -342 -13 -359 -3 -25 12 -23 21 18 75 98 128 133 302 103 506
-15 104 -50 258 -65 289 -8 15 -11 33 -8 41 9 25 51 5 110 -52z m-2796 29
c135 -5 327 -10 427 -10 100 0 188 -3 197 -6 26 -10 20 -53 -8 -60 -14 -3
-202 1 -418 10 -216 9 -432 16 -479 16 -65 0 -90 4 -99 15 -10 13 -9 19 6 36
16 18 26 20 74 14 30 -3 165 -10 300 -15z m80 -281 c162 -5 298 -13 301 -17 4
-4 3 -18 -2 -31 -9 -24 -9 -24 -132 -18 -67 4 -234 10 -370 14 -272 7 -305 14
-258 53 21 18 33 20 95 15 39 -3 204 -10 366 -16z m554 -20 c2 -2 7 -14 10
-26 6 -19 2 -25 -20 -34 -16 -5 -45 -7 -67 -4 -29 5 -41 13 -48 33 -7 18 -6
28 3 34 12 8 114 6 122 -3z m-453 -269 c138 0 139 0 155 -26 15 -22 15 -27 3
-36 -22 -15 -624 8 -716 28 -25 5 -31 29 -10 38 6 3 106 4 221 1 115 -3 271
-5 347 -5z m440 -39 c23 -18 23 -18 -1 -31 -24 -13 -96 -8 -112 8 -15 15 20
42 57 42 18 0 43 -8 56 -19z m-516 -252 c105 -5 198 -12 208 -15 23 -7 22 -31
-3 -44 -25 -13 -665 -2 -692 12 -10 5 -18 19 -18 33 0 14 7 25 18 28 23 5 258
-1 487 -14z m493 -19 c9 0 23 -4 31 -9 12 -8 12 -12 2 -25 -23 -27 -121 -15
-121 15 0 12 41 29 58 23 8 -2 21 -4 30 -4z m9 -292 c11 -13 29 -28 39 -34 18
-11 18 -13 -10 -42 -15 -17 -41 -36 -57 -43 -27 -11 -32 -9 -73 27 -24 22 -45
42 -45 45 -1 4 13 12 29 19 17 7 35 21 41 31 13 26 51 24 76 -3z m-617 3 c105
-6 105 -6 105 -36 0 -30 0 -30 -220 -27 -121 1 -230 5 -242 7 -22 5 -39 37
-28 55 7 11 211 12 385 1z M1759 3117 c-9 -7 -31 -40 -49 -75 -27 -52 -31 -67
-22 -87 10 -22 15 -23 189 -29 163 -5 268 -10 853 -36 296 -14 515 -13 528 3
5 6 15 30 22 53 7 22 20 51 30 65 28 36 42 14 43 -69 1 -39 7 -75 12 -80 19
-18 51 -22 69 -9 17 13 18 19 7 68 -7 30 -14 64 -17 77 -3 15 -17 29 -39 38
-19 8 -35 18 -35 23 0 13 -58 30 -95 28 -16 0 -169 4 -340 11 -380 15 -963 32
-1065 32 -43 0 -82 -6 -91 -13z M7310 2753 c-97 -17 -226 -46 -235 -52 -5 -5
-26 -12 -45 -16 -19 -4 -46 -14 -60 -21 -14 -8 -36 -18 -50 -24 -42 -17 -151
-79 -180 -103 -15 -12 -38 -29 -51 -37 -44 -27 -245 -234 -302 -312 -31 -43
-57 -80 -57 -82 0 -2 -17 -33 -38 -67 -42 -71 -77 -155 -87 -209 -4 -19 -13
-53 -21 -75 -7 -22 -21 -100 -29 -174 -14 -120 -14 -148 0 -270 9 -75 25 -162
35 -194 11 -31 20 -65 20 -75 0 -9 7 -30 15 -46 8 -15 15 -33 15 -39 0 -11 45
-113 60 -137 6 -8 14 -24 19 -35 24 -54 119 -182 192 -260 106 -111 179 -168
309 -243 235 -135 487 -178 800 -137 135 17 214 39 328 89 114 51 192 98 292
177 202 160 355 379 440 629 67 197 84 475 41 659 -21 89 -52 193 -70 236 -13
30 -71 145 -90 181 -83 153 -300 369 -456 455 -90 49 -215 107 -245 114 -19 4
-46 13 -60 20 -14 7 -48 16 -75 20 -28 4 -85 13 -129 21 -73 13 -228 17 -286
7z m380 -86 c25 -8 63 -18 85 -21 96 -16 300 -121 420 -216 81 -65 212 -202
262 -275 93 -138 148 -264 194 -450 20 -78 23 -114 21 -275 -1 -157 -4 -195
-21 -249 -12 -35 -21 -71 -21 -81 0 -53 -105 -277 -177 -378 -55 -78 -172
-196 -268 -273 -82 -65 -112 -84 -221 -138 -170 -84 -299 -114 -512 -119 -126
-2 -169 1 -248 18 -173 37 -290 85 -446 183 -154 97 -303 264 -401 452 -47 90
-99 235 -112 310 -4 22 -13 72 -21 112 -18 94 -18 304 0 369 8 27 17 68 20 91
3 24 12 57 20 75 8 18 24 60 36 93 45 120 157 297 252 396 93 98 174 161 313
246 74 46 200 98 260 109 22 4 49 11 59 17 56 29 423 32 506 4z M7193 2593
c-18 -2 -33 -8 -33 -14 0 -11 76 -12 146 -2 36 5 43 8 29 14 -21 8 -86 9 -142
2z M7575 2580 c72 -12 133 -12 140 0 4 6 -29 10 -92 9 -86 -2 -92 -3 -48 -9z
M7043 2550 c-13 -5 -23 -13 -23 -18 0 -5 -18 -12 -39 -16 -21 -3 -41 -13 -45
-21 -3 -8 -14 -15 -25 -15 -11 0 -26 -7 -35 -15 -8 -8 -26 -19 -40 -25 -14 -5
-26 -16 -26 -23 0 -21 48 -9 61 14 5 11 19 19 29 19 11 0 28 9 37 20 10 11 28
20 40 20 13 0 31 9 40 20 12 13 30 20 54 20 43 0 69 8 69 21 0 12 -68 11 -97
-1z M7776 2551 c-18 -7 -18 -8 -2 -14 27 -11 86 -8 86 3 0 6 -6 10 -12 10 -7
0 -22 2 -33 5 -11 2 -29 1 -39 -4z M7876 2511 c-7 -11 17 -21 50 -21 30 0 31
16 2 24 -32 8 -46 7 -52 -3z M7960 2470 c0 -5 15 -17 33 -25 40 -19 68 -36 87
-53 8 -7 33 -26 55 -42 22 -16 47 -36 56 -45 9 -8 21 -15 27 -15 7 0 12 -5 12
-11 0 -6 18 -29 40 -50 22 -22 40 -43 40 -47 0 -5 11 -19 25 -32 14 -13 25
-29 25 -36 0 -6 9 -14 20 -17 12 -3 20 -14 20 -26 0 -12 6 -21 15 -21 8 0 15
2 15 5 0 12 -24 55 -32 55 -4 0 -8 7 -8 15 0 8 -9 23 -20 32 -11 10 -20 22
-20 28 0 6 -32 40 -71 75 -40 36 -89 82 -110 103 -20 20 -41 37 -46 37 -5 0
-16 9 -26 20 -9 11 -23 20 -30 20 -8 0 -24 9 -37 20 -24 21 -70 27 -70 10z
M6744 2375 c-16 -13 -36 -31 -45 -38 -8 -7 -23 -16 -32 -20 -9 -3 -17 -13 -17
-21 0 -8 -9 -18 -20 -21 -11 -3 -20 -11 -20 -17 0 -6 -7 -18 -15 -27 -44 -45
-74 -85 -69 -92 8 -14 24 -10 31 7 3 8 39 50 79 92 41 42 74 80 74 84 0 4 9
10 20 13 11 3 20 12 20 20 0 7 10 15 22 17 12 2 23 9 26 16 6 20 -23 14 -54
-13z M7641 2232 c-14 -26 -93 -72 -124 -72 -46 0 -58 -9 -45 -33 6 -12 19 -28
30 -35 27 -19 48 -66 48 -105 0 -61 45 -71 83 -17 26 37 89 80 118 80 44 0 44
17 0 65 -37 41 -45 57 -53 110 -4 27 -44 32 -57 7z M6497 2124 c-11 -11 -8
-44 3 -44 15 0 24 30 13 41 -5 5 -12 6 -16 3z M6454 2045 c-4 -14 -3 -29 0
-33 9 -8 26 18 26 41 0 26 -19 20 -26 -8z M8438 2035 c-10 -11 5 -55 19 -55
10 0 12 6 8 23 -9 26 -19 39 -27 32z M6417 1993 c-10 -9 -8 -51 2 -57 8 -6 21
25 21 52 0 13 -13 16 -23 5z M8480 1931 c0 -16 5 -33 10 -36 6 -4 10 6 10 24
0 16 -4 33 -10 36 -6 4 -10 -6 -10 -24z M6376 1914 c-9 -23 -7 -62 3 -68 11
-7 21 17 21 49 0 29 -16 41 -24 19z M8520 1828 c0 -26 5 -50 10 -53 13 -8 13
65 0 85 -7 11 -10 2 -10 -32z M6334 1785 c-3 -19 -3 -47 1 -62 8 -28 8 -28 15
-3 12 37 12 100 0 100 -5 0 -12 -16 -16 -35z M6630 1805 c-10 -12 -10 -19 -2
-27 32 -32 -2 -171 -53 -222 -40 -40 -30 -57 40 -72 33 -7 68 -13 78 -13 25
-1 23 45 -3 59 -24 13 -25 29 -6 55 12 17 17 18 39 6 33 -18 68 -11 78 17 7
18 4 24 -14 31 -12 5 -35 23 -52 40 -25 27 -27 33 -15 41 39 25 93 5 108 -40
21 -58 70 -20 58 45 -6 31 -11 34 -89 58 -119 38 -151 42 -167 22z M6997 1714
c-10 -11 15 -52 39 -63 28 -12 28 -14 13 -95 -18 -99 -23 -106 -69 -106 -27 0
-43 -5 -46 -15 -13 -33 37 -57 149 -70 49 -6 57 -5 57 9 0 9 -12 27 -26 40
-27 22 -27 22 -8 102 9 43 22 85 27 92 5 6 29 12 54 12 42 0 44 1 41 27 -2 23
-9 29 -43 36 -22 4 -65 15 -96 22 -60 16 -82 18 -92 9z M8561 1633 c0 -52 3
-95 9 -98 12 -7 12 114 0 160 -5 21 -8 2 -9 -62z M6297 1475 c-6 -190 -1 -285
15 -285 8 0 2 459 -6 468 -2 1 -6 -81 -9 -183z M7326 1631 c-3 -4 -5 -32 -4
-62 2 -100 -12 -161 -43 -190 -16 -15 -29 -30 -29 -33 0 -3 20 -17 45 -32 61
-35 75 -24 73 57 -1 32 2 62 6 66 15 15 52 -44 65 -100 14 -62 44 -95 68 -75
7 6 13 17 13 24 0 8 9 31 20 51 11 21 20 45 20 55 0 27 39 125 55 138 8 7 15
16 15 20 0 11 -59 40 -81 40 -26 0 -34 -18 -34 -82 0 -93 -18 -92 -49 4 -19
56 -36 90 -54 105 -27 23 -76 31 -86 14z M7751 1521 c-10 -6 -11 -13 -2 -29 6
-11 11 -32 11 -45 0 -27 -89 -150 -120 -167 -11 -6 -20 -21 -20 -35 0 -18 8
-26 35 -35 46 -15 61 -9 79 35 12 27 21 35 40 35 14 0 31 -9 40 -21 13 -19 13
-24 -1 -46 -20 -30 -12 -38 49 -54 52 -14 61 -11 59 23 -15 296 -26 325 -121
342 -19 3 -41 2 -49 -3z m79 -137 c7 -19 7 -31 -1 -40 -26 -31 -46 -4 -30 39
13 34 19 34 31 1z M8081 1441 c-12 -8 -11 -15 7 -46 28 -46 27 -66 -1 -140
-19 -49 -29 -63 -59 -78 -62 -31 -24 -68 89 -86 33 -5 77 -17 98 -25 35 -15
40 -15 56 0 22 20 43 79 35 99 -8 23 -30 18 -64 -14 -27 -27 -34 -29 -63 -21
-41 12 -51 27 -44 65 3 17 9 54 13 83 9 58 14 66 63 90 19 9 34 21 34 27 0 21
-141 61 -164 46z M8595 1379 c-4 -12 -2 -26 4 -32 8 -8 11 -2 11 21 0 37 -6
41 -15 11z M8569 1325 c-13 -20 -21 -183 -10 -189 6 -4 13 3 16 16 8 30 2 186
-6 173z M6337 1164 c-8 -9 -9 -60 -1 -91 10 -36 24 -27 23 15 -1 48 -12 86
-22 76z M8528 1114 c-5 -4 -8 -28 -8 -53 0 -32 3 -42 11 -34 5 5 9 29 7 53 -2
23 -6 38 -10 34z M6370 1006 c0 -44 9 -66 26 -66 9 0 14 -12 14 -35 0 -18 6
-38 13 -42 7 -4 19 -23 26 -40 8 -18 17 -33 22 -33 5 0 13 -10 18 -22 9 -23
68 -95 109 -131 12 -11 22 -27 22 -34 0 -7 6 -13 14 -13 8 0 18 -9 21 -20 3
-11 11 -20 17 -20 5 0 24 -11 40 -25 16 -14 34 -23 39 -19 14 8 0 24 -22 24
-10 0 -19 5 -19 12 0 12 -59 68 -72 68 -4 0 -8 6 -8 14 0 7 -9 16 -20 19 -12
3 -20 14 -20 26 0 12 -6 21 -14 21 -8 0 -17 11 -20 25 -4 14 -10 25 -15 25 -5
0 -14 13 -21 29 -6 16 -18 32 -26 35 -8 3 -14 14 -14 23 0 10 -9 26 -20 36
-11 9 -20 25 -20 35 0 11 -8 29 -19 41 -10 11 -21 39 -25 61 -8 49 -26 53 -26
6z M8485 999 c-10 -27 -10 -54 0 -56 14 -3 27 49 15 61 -6 6 -11 4 -15 -5z
M7246 910 c-45 -46 -91 -70 -138 -70 -15 0 -15 -3 -2 -29 8 -16 21 -35 30 -42
27 -22 54 -87 54 -129 0 -29 5 -42 17 -47 10 -4 19 -1 21 7 3 8 28 38 55 67
36 38 60 54 86 59 64 12 66 22 17 74 -29 30 -49 63 -56 91 -16 62 -18 69 -27
69 -5 0 -30 -22 -57 -50z M8438 896 c-6 -29 8 -60 16 -36 13 42 13 60 1 60 -7
0 -15 -11 -17 -24z M8400 825 c-13 -34 -13 -35 4 -35 15 0 28 48 15 56 -5 3
-14 -7 -19 -21z M8360 772 c0 -5 -19 -30 -42 -55 -24 -25 -55 -60 -70 -76 -15
-17 -30 -31 -32 -31 -2 0 -22 -17 -45 -37 -22 -21 -56 -49 -76 -63 -19 -14
-45 -33 -57 -42 -11 -10 -27 -18 -33 -18 -7 0 -18 -6 -24 -14 -7 -8 -25 -18
-41 -21 -16 -3 -34 -13 -40 -21 -7 -7 -30 -19 -51 -24 -53 -14 -52 -35 1 -26
35 6 98 31 140 57 8 5 26 15 40 21 14 7 29 18 33 25 4 7 13 13 18 13 36 0 309
273 309 309 0 6 -7 11 -15 11 -8 0 -15 -4 -15 -8z M6765 480 c3 -5 15 -10 27
-10 11 0 22 -8 25 -19 4 -16 51 -36 62 -26 7 8 -11 25 -27 25 -10 0 -25 9 -35
20 -17 20 -64 29 -52 10z M6890 406 c0 -15 51 -29 63 -16 5 4 -6 13 -24 19
-40 14 -39 14 -39 -3z M6965 370 c-7 -11 2 -16 42 -24 17 -4 37 -14 44 -22 6
-8 28 -14 48 -14 20 -1 54 -9 76 -20 35 -17 62 -19 220 -19 246 1 266 15 30
21 -135 4 -200 10 -225 21 -19 8 -60 18 -90 21 -30 4 -57 12 -61 17 -8 14 -78
29 -84 19z M7695 320 c-15 -6 -7 -9 30 -9 28 0 59 4 70 9 15 6 7 9 -30 9 -27
0 -59 -4 -70 -9z"/>
</g>
  <g id="navy-shapes" transform="translate(0.000000,704.000000) scale(0.100000,-0.100000)" fill="#0b1f68" stroke="none">
<path d="M8430 3801 c0 -33 24 -47 61 -36 15 5 19 14 17 33 -3 23 -8 27 -40
30 -36 3 -38 2 -38 -27z M7320 3795 c0 -29 19 -40 56 -31 19 5 25 12 22 29 -2
18 -11 23 -40 25 -35 3 -38 1 -38 -23z M7647 3783 c-4 -3 -7 -28 -7 -55 0 -48
0 -48 35 -48 34 0 35 1 35 39 0 22 -3 46 -6 55 -6 16 -45 22 -57 9z M691 3757
c-6 -16 -11 -38 -11 -50 0 -12 -4 -29 -9 -36 -10 -15 -18 -3 -35 52 -8 25 -25
21 -32 -7 -3 -14 -14 -32 -25 -42 -10 -9 -19 -29 -19 -44 0 -15 -7 -33 -15
-40 -11 -9 -13 -16 -5 -24 7 -7 14 -6 22 2 7 7 20 12 30 12 25 0 24 -42 -2
-65 -20 -18 -20 -18 0 -40 11 -12 20 -30 20 -40 0 -10 7 -26 16 -36 25 -28 10
-86 -32 -125 -33 -31 -34 -35 -34 -106 0 -79 9 -98 46 -98 19 0 25 10 39 56 9
31 19 53 23 50 3 -4 9 -40 13 -81 13 -133 35 -116 38 30 2 93 37 167 100 209
41 27 53 30 127 30 74 0 83 2 88 20 8 29 -3 38 -26 21 -16 -11 -25 -12 -35 -3
-19 15 -16 46 5 51 12 3 11 5 -6 6 -15 1 -26 9 -29 22 -4 12 -17 22 -34 26
-16 3 -29 11 -29 19 0 7 -9 15 -19 19 -10 3 -21 15 -24 25 -3 11 -10 20 -16
20 -17 0 -13 -28 7 -49 49 -55 51 -61 19 -61 -28 0 -87 27 -87 40 0 5 -12 15
-27 22 -21 10 -27 20 -25 38 11 92 13 170 4 187 -10 16 -12 16 -21 -10z M8194
3736 c-13 -35 0 -51 45 -54 67 -5 80 4 50 32 -33 31 -87 43 -95 22z M7447
3663 c-4 -3 -7 -16 -7 -28 0 -34 -19 -44 -90 -47 -61 -3 -65 -4 -68 -29 -2
-15 5 -32 18 -44 30 -27 25 -57 -20 -100 -22 -21 -40 -48 -40 -60 0 -12 22
-42 51 -70 51 -50 51 -50 66 -27 10 14 26 22 44 22 31 0 41 26 14 36 -11 4
-15 21 -15 55 0 38 -4 52 -20 61 -29 18 -26 65 6 95 36 33 52 24 56 -34 2 -35
7 -48 18 -48 11 0 16 15 20 55 5 54 6 55 38 58 42 4 44 32 2 32 -31 0 -34 3
-44 53 -6 26 -16 34 -29 20z M8634 3656 c-13 -33 0 -51 36 -51 32 0 35 2 35
30 0 27 -4 30 -33 33 -22 2 -34 -2 -38 -12z M1054 3627 c-4 -11 0 -25 11 -37
12 -13 15 -27 11 -45 -6 -22 -9 -24 -27 -14 -28 15 -32 7 -14 -27 8 -16 15
-37 15 -46 0 -10 5 -18 10 -18 6 0 10 9 10 21 0 12 8 23 20 26 11 3 20 14 20
25 0 11 8 22 20 25 34 9 38 63 4 63 -17 0 -56 21 -66 35 -4 5 -10 2 -14 -8z
M8237 3583 c-11 -10 -8 -51 4 -59 13 -7 71 45 63 58 -6 10 -58 11 -67 1z
M4743 3549 c-6 -6 -22 -17 -35 -23 -17 -9 -23 -20 -22 -44 1 -18 0 -32 -2 -32
-5 0 -25 15 -55 43 -29 26 -42 22 -34 -10 3 -16 11 -30 16 -31 5 -2 23 -32 40
-67 17 -35 38 -65 48 -68 16 -4 19 4 25 54 3 33 13 70 21 83 19 29 18 115 -2
95z M7543 3524 c-23 -25 -31 -68 -14 -79 17 -10 61 44 61 75 0 36 -16 37 -47
4z M5025 3485 c-16 -8 -49 -14 -72 -15 -36 0 -44 -4 -61 -34 -11 -18 -25 -67
-31 -107 -6 -41 -16 -109 -22 -152 -7 -42 -9 -80 -6 -83 3 -4 29 1 56 10 64
21 178 21 250 0 150 -44 215 -66 234 -79 12 -8 29 -15 38 -15 9 0 26 -9 39
-20 13 -11 27 -20 33 -20 8 0 43 -25 87 -63 8 -7 40 -33 70 -57 30 -25 81 -74
115 -109 33 -35 78 -82 101 -105 22 -23 44 -53 47 -68 10 -38 25 -35 29 5 3
32 3 32 53 29 28 -2 54 -8 60 -13 5 -6 10 -38 10 -72 0 -61 0 -62 30 -67 21
-4 34 -14 46 -38 8 -19 22 -37 29 -42 25 -15 71 -53 120 -98 38 -34 46 -47 42
-67 -3 -18 0 -25 12 -25 9 0 16 8 16 20 0 13 7 20 20 20 12 0 20 7 20 16 0 15
28 56 66 95 9 10 13 26 9 40 -5 19 1 31 25 54 16 16 30 32 30 37 0 10 58 66
73 71 6 2 8 11 4 19 -5 14 -10 15 -31 5 -14 -7 -26 -17 -26 -23 0 -7 -18 -21
-39 -31 -39 -20 -39 -20 -50 5 -7 13 -14 51 -18 84 -3 33 -14 76 -25 96 -10
20 -18 42 -18 50 0 8 -9 25 -20 39 -11 14 -20 34 -20 44 0 12 -7 19 -20 19
-14 0 -20 -7 -20 -22 0 -18 -2 -20 -9 -9 -6 9 -6 22 0 32 13 26 11 66 -5 72
-7 3 -16 19 -19 35 -13 63 -133 204 -224 262 -29 18 -53 37 -53 42 0 4 -9 8
-19 8 -11 0 -26 8 -33 18 -17 22 -65 55 -105 71 -18 8 -33 17 -33 22 0 5 -8 9
-19 9 -10 0 -30 9 -44 20 -14 11 -31 20 -38 20 -7 0 -31 9 -53 19 -23 11 -71
22 -108 26 -38 4 -72 13 -79 21 -16 20 -400 19 -444 -1z M7640 3420 c0 -39 5
-54 25 -75 14 -14 28 -25 30 -25 15 0 55 55 55 75 0 34 -44 75 -80 75 -29 0
-30 -1 -30 -50z M8637 3464 c-4 -4 -7 -20 -7 -36 0 -28 2 -29 38 -26 34 3 37
6 37 33 0 26 -4 30 -30 33 -17 2 -34 0 -38 -4z M8586 3371 c-10 -11 -30 -21
-44 -23 -21 -2 -28 -10 -32 -33 -5 -28 -9 -30 -52 -33 -25 -2 -51 -9 -58 -17
-9 -10 -3 -14 32 -20 79 -12 78 -11 78 -71 0 -47 3 -55 18 -52 13 2 18 16 22
58 5 54 6 55 40 60 35 5 35 5 38 78 3 78 -8 91 -42 53z M8058 3321 c-31 -31
-28 -41 12 -41 27 0 86 51 73 63 -15 16 -60 5 -85 -22z M7938 3241 c-22 -25
-47 -41 -64 -43 -26 -3 -29 -7 -32 -47 -5 -65 3 -79 31 -52 32 29 57 26 91
-10 29 -30 29 -30 0 -60 -15 -16 -37 -29 -49 -29 -25 0 -80 -54 -71 -69 4 -6
27 -11 51 -11 34 0 47 5 55 20 9 18 21 20 96 20 82 0 87 1 115 30 22 22 29 37
27 57 -3 25 -7 28 -38 28 -32 0 -35 -3 -40 -35 -4 -30 -9 -35 -34 -38 -46 -6
-53 13 -18 47 17 17 36 31 42 31 6 0 10 8 8 18 -2 13 -16 18 -53 22 -35 3 -58
13 -77 30 -27 25 -27 25 14 67 22 22 37 46 34 52 -14 23 -52 10 -88 -28z M884
3232 c-29 -23 -51 -106 -59 -224 -6 -84 -11 -103 -34 -132 -25 -33 -36 -40
-126 -84 -38 -19 -125 -92 -125 -105 0 -4 -9 -16 -20 -27 -11 -11 -20 -30 -20
-43 0 -12 -7 -32 -15 -45 -9 -12 -19 -45 -22 -73 -3 -28 -12 -57 -20 -65 -29
-29 4 -263 43 -301 8 -8 14 -18 14 -21 0 -19 126 -132 147 -132 5 0 26 -10 48
-22 38 -22 50 -23 231 -22 148 1 197 5 220 17 16 8 49 18 73 22 24 4 51 15 61
24 10 9 30 24 44 34 14 10 33 31 41 46 13 27 13 30 -9 52 -13 13 -34 32 -47
41 -23 16 -23 18 -9 45 13 23 25 30 67 37 58 10 72 32 48 76 -8 14 -17 33 -21
43 -4 9 -17 17 -30 17 -29 0 -64 33 -64 59 0 28 21 40 76 43 48 3 49 3 52 39
2 25 -3 40 -18 54 -11 10 -20 24 -20 32 0 7 -5 13 -12 13 -6 0 -21 8 -32 19
-49 43 -185 68 -286 51 -81 -14 -100 -6 -100 40 0 20 11 38 37 60 42 38 52 75
52 210 1 139 -20 192 -88 228 -31 16 -52 15 -77 -6z M7170 3185 c-15 -18 -42
-19 -58 -3 -9 9 -21 4 -52 -21 -27 -21 -47 -30 -59 -26 -12 3 -21 0 -25 -10
-3 -8 -12 -15 -20 -15 -10 0 -17 -17 -21 -57 -4 -32 -14 -65 -21 -74 -8 -9
-19 -42 -24 -74 -5 -31 -13 -62 -18 -69 -14 -17 -23 -69 -14 -82 4 -6 25 -14
47 -18 22 -4 47 -14 56 -22 14 -13 18 -13 29 1 6 8 35 18 63 21 51 7 51 7 19
22 -36 17 -38 28 -18 77 16 37 188 240 211 249 19 7 20 87 3 104 -17 17 -83
15 -98 -3z M8202 3188 c-7 -7 -12 -34 -12 -60 0 -48 0 -48 34 -48 23 0 38 7
49 23 16 22 16 22 35 -2 11 -13 24 -21 31 -17 41 26 -29 116 -90 116 -19 0
-40 -5 -47 -12z M8401 3106 c-17 -21 -10 -101 9 -101 10 0 17 13 20 35 4 31 9
36 40 40 22 3 35 10 35 20 0 21 -87 27 -104 6z M8555 3111 c-11 -18 5 -31 36
-31 24 0 30 4 27 18 -4 19 -52 29 -63 13z M542 3010 c-19 -4 -46 -20 -61 -34
-15 -14 -31 -26 -35 -26 -12 0 -66 -57 -66 -71 0 -7 6 -28 12 -47 11 -28 10
-38 -5 -64 -17 -30 -22 -69 -11 -81 6 -6 64 49 64 60 0 20 147 143 216 181 23
12 32 41 18 55 -4 3 -16 1 -27 -5 -16 -8 -22 -8 -25 1 -5 15 -31 41 -40 40 -4
-1 -22 -5 -40 -9z M8002 2908 c-5 -7 -12 -24 -14 -38 -3 -22 -7 -25 -36 -22
-20 2 -45 -5 -68 -18 -32 -20 -36 -21 -53 -6 -10 10 -21 12 -27 6 -5 -5 -49
-14 -99 -20 -49 -7 -94 -15 -98 -20 -4 -4 22 -10 59 -13 37 -4 77 -13 90 -22
13 -8 41 -15 62 -15 21 0 55 -9 75 -19 21 -11 56 -22 78 -26 26 -5 39 -12 40
-23 1 -10 4 -7 8 8 6 18 3 31 -11 47 -20 21 -20 21 1 32 13 7 21 22 21 38 0
18 13 38 41 64 23 21 38 43 34 48 -9 15 -90 14 -103 -1z M2385 2860 c149 -10
576 -9 475 0 -41 4 -190 7 -330 7 -199 0 -231 -2 -145 -7z M8578 2570 c-33
-34 -36 -70 -7 -88 21 -13 21 -13 -2 -38 -39 -41 -53 -31 -61 46 -3 21 -10 26
-53 33 -62 10 -95 3 -95 -22 0 -11 6 -21 13 -24 6 -2 8 -8 4 -13 -4 -5 -11 -4
-15 2 -4 6 -22 14 -39 17 -25 5 -33 3 -33 -8 0 -8 7 -15 16 -15 9 0 18 -9 21
-20 3 -11 10 -20 17 -20 6 0 22 -9 36 -20 14 -11 28 -20 33 -20 12 0 8 28 -5
33 -7 2 -10 8 -6 12 13 14 69 -20 85 -53 14 -30 14 -34 -2 -52 -10 -12 -13
-20 -7 -20 7 0 12 -9 12 -20 0 -16 5 -19 24 -14 21 5 23 3 19 -20 -4 -19 -1
-26 11 -26 10 0 16 -9 16 -25 0 -14 9 -34 20 -45 11 -11 20 -26 20 -34 0 -7 7
-19 15 -26 8 -7 20 -31 26 -54 6 -22 17 -48 23 -56 7 -8 16 -23 20 -34 5 -15
9 -16 21 -6 22 19 18 55 -10 88 -14 17 -25 35 -25 41 0 7 -6 14 -14 17 -8 3
-17 22 -21 42 -4 20 -12 43 -17 50 -15 18 -3 26 26 18 16 -4 28 -16 32 -31 9
-37 24 -30 24 11 0 51 15 74 50 74 36 0 47 16 20 30 -25 14 -26 32 0 48 11 7
20 21 20 32 0 11 -9 28 -20 37 -13 11 -20 30 -20 51 0 32 1 33 38 30 37 -3 37
-3 43 -78 5 -75 5 -75 7 23 2 97 2 97 -56 97 -55 0 -60 2 -95 40 -44 48 -71
50 -109 10z M193 2562 c-17 -11 -33 -58 -33 -97 0 -36 28 -105 42 -105 13 0 9
-27 -6 -39 -38 -31 -26 -134 20 -182 20 -21 27 -39 28 -76 2 -44 5 -50 40 -69
57 -32 66 -45 76 -110 6 -35 17 -64 27 -71 9 -8 46 -13 84 -13 58 0 72 4 98
26 36 30 39 44 12 44 -11 0 -26 9 -33 19 -8 11 -26 23 -41 26 -15 4 -27 14
-27 22 0 12 -8 14 -37 9 -34 -6 -36 -5 -20 7 20 17 22 33 4 44 -7 4 -19 23
-26 41 -8 17 -17 32 -21 32 -4 0 -13 21 -20 47 -6 26 -16 51 -21 54 -18 11
-30 151 -23 270 4 78 3 119 -4 123 -18 11 -32 -29 -32 -88 0 -30 -4 -57 -9
-60 -10 -6 -21 41 -21 89 0 59 -21 80 -57 57z M5067 2553 c-3 -5 2 -26 10 -48
8 -22 21 -78 28 -125 8 -47 18 -101 24 -120 16 -51 14 -239 -3 -271 -7 -14
-16 -47 -20 -72 -4 -25 -14 -51 -21 -57 -8 -7 -15 -20 -15 -28 0 -18 -48 -93
-67 -105 -34 -22 -3 -27 155 -27 168 0 168 0 185 64 25 95 24 303 -3 379 -11
31 -20 62 -20 70 0 11 -26 64 -74 152 -6 11 -17 27 -23 35 -7 8 -35 43 -63 77
-50 62 -85 90 -93 76z M2103 2543 c70 -2 184 -2 255 0 70 1 12 3 -128 3 -140
0 -198 -2 -127 -3z M7280 2542 c0 -8 180 -32 244 -32 58 0 39 -9 -54 -25 -95
-17 -99 -19 -130 -80 -13 -25 -27 -45 -31 -45 -19 0 -69 -54 -69 -75 0 -26
-15 -41 -51 -50 -15 -4 -39 -20 -55 -36 -31 -32 -49 -37 -58 -14 -8 21 -63 19
-75 -2 -9 -17 -11 -17 -39 0 -17 9 -36 17 -44 17 -7 0 -21 14 -31 31 -12 22
-22 29 -34 25 -9 -4 -37 -10 -61 -13 -51 -7 -74 12 -41 35 25 17 24 32 -1 32
-11 0 -20 -7 -20 -15 0 -8 -5 -15 -11 -15 -11 0 -69 -54 -69 -64 0 -3 -15 -20
-32 -39 -48 -49 -78 -93 -78 -117 0 -28 19 -25 30 5 5 14 16 25 24 25 8 0 17
14 21 30 5 21 13 30 26 30 12 0 19 7 19 20 0 11 4 20 9 20 4 0 6 -11 3 -25 -2
-14 -8 -25 -13 -25 -8 0 -25 -28 -53 -88 -14 -30 -14 -36 1 -67 9 -19 24 -35
33 -35 9 0 31 -11 50 -25 19 -14 40 -25 46 -25 7 0 36 -5 64 -11 65 -14 53
-32 -22 -33 -40 -1 -53 -5 -53 -16 0 -11 17 -17 65 -21 35 -4 66 -11 68 -18 3
-8 9 -8 25 1 23 12 149 11 194 -1 35 -10 17 -19 -47 -23 -32 -2 -45 -7 -45
-18 0 -11 17 -17 65 -21 36 -3 79 -14 96 -24 21 -13 39 -16 60 -11 29 8 29 8
4 27 -14 10 -32 25 -40 32 -8 8 -24 18 -35 22 -19 8 -18 9 5 12 39 7 50 30 51
107 1 104 13 130 79 163 36 18 54 33 51 43 -2 8 -6 22 -8 31 -8 26 26 32 36 6
12 -31 46 -59 67 -55 13 2 18 13 18 43 1 40 1 40 54 43 36 2 59 9 73 23 10 10
27 19 37 19 9 0 24 15 32 33 12 26 22 33 53 37 35 4 40 9 52 43 7 22 23 49 35
62 22 23 22 55 0 55 -23 0 -8 19 17 22 16 2 29 10 31 19 2 13 -9 17 -51 22
-30 3 -69 12 -85 21 -25 13 -67 16 -217 16 -102 0 -185 -4 -185 -8z M5940
2496 c0 -21 6 -38 15 -44 9 -4 18 -26 22 -48 3 -21 14 -50 25 -63 11 -14 18
-40 18 -65 0 -72 17 -72 23 0 6 58 4 70 -12 85 -12 11 -17 26 -14 42 3 17 -2
32 -17 47 -12 12 -25 34 -29 48 -11 40 -31 39 -31 -2z M2128 2263 c89 -2 235
-2 325 0 89 1 16 3 -163 3 -179 0 -252 -2 -162 -3z M8200 2225 c0 -8 7 -15 16
-15 9 0 18 -9 21 -20 3 -11 12 -20 19 -20 8 0 14 -9 14 -20 0 -10 6 -23 13
-27 14 -8 57 -87 57 -103 0 -19 -25 -9 -54 20 -37 37 -42 37 -83 -2 -26 -25
-36 -29 -45 -20 -7 7 -29 12 -50 12 -38 0 -38 0 -38 -63 0 -59 2 -65 31 -86
48 -36 97 -38 143 -7 29 19 42 23 56 16 26 -14 70 -12 70 3 0 6 -7 21 -15 31
-19 25 -19 37 -1 62 14 18 15 18 26 -13 7 -18 18 -33 26 -33 20 0 17 38 -6 67
-11 14 -20 34 -20 44 0 10 -9 21 -20 24 -11 3 -20 13 -20 21 0 8 -7 17 -15 20
-8 4 -15 12 -15 18 0 7 -10 22 -22 33 -13 12 -33 33 -45 47 -24 29 -43 34 -43
11z M8750 2051 c0 -63 3 -73 27 -95 15 -14 30 -23 35 -20 13 8 9 88 -6 110 -8
11 -16 31 -18 44 -1 14 -11 26 -20 28 -16 3 -18 -5 -18 -67z M3417 2086 c-15
-23 -15 -24 12 -35 27 -12 103 -2 119 14 14 14 -41 45 -78 45 -29 0 -41 -6
-53 -24z M3280 2021 c0 -5 -9 -13 -20 -16 -11 -3 -20 -15 -20 -26 0 -37 52
-14 65 29 5 16 2 22 -9 22 -9 0 -16 -4 -16 -9z M7961 1893 c-6 -21 -11 -43
-11 -49 0 -20 24 -32 53 -27 25 5 27 9 27 53 0 34 -4 50 -16 54 -32 12 -43 5
-53 -31z M8430 1894 c0 -21 8 -47 20 -61 15 -19 20 -41 20 -87 0 -39 6 -70 15
-83 12 -17 16 -62 19 -208 2 -113 7 -190 14 -197 16 -16 25 99 20 256 -3 110
-7 138 -21 154 -11 12 -17 35 -17 68 0 63 -9 94 -26 94 -9 0 -14 12 -14 34 0
19 -3 41 -6 50 -11 28 -24 17 -24 -20z M5983 1826 c-46 -23 -83 -44 -83 -48 0
-3 14 -9 30 -13 17 -4 30 -11 30 -15 0 -10 -32 -16 -130 -25 -118 -11 -101
-24 32 -24 69 -1 133 -4 142 -7 12 -5 16 -20 16 -59 0 -44 4 -55 23 -67 28
-19 57 -98 59 -163 0 -27 4 23 8 113 6 128 11 167 24 181 9 10 16 35 16 57 0
34 -5 42 -35 62 -19 12 -35 29 -35 37 0 19 0 19 -97 -29z M7702 1719 c-35 -11
-68 -28 -75 -39 -6 -11 -23 -20 -37 -20 -52 0 -100 -13 -100 -26 0 -10 15 -14
55 -14 40 0 57 -4 61 -15 9 -22 31 -18 37 7 6 21 7 21 27 3 25 -23 25 -32 0
-40 -15 -5 -20 -15 -20 -41 0 -24 -5 -37 -17 -41 -26 -10 -33 -23 -33 -67 0
-22 -6 -47 -13 -55 -7 -9 -21 -42 -32 -75 -22 -67 -40 -79 -94 -60 -30 10 -37
17 -39 45 -3 32 -4 32 -15 8 -18 -34 -69 -46 -113 -26 -42 21 -44 21 -44 3 0
-8 7 -17 16 -20 23 -9 -1 -36 -32 -36 -13 0 -24 -4 -24 -8 0 -5 -9 -17 -19
-29 -10 -11 -21 -28 -22 -38 -3 -12 -23 -25 -57 -36 -29 -10 -72 -34 -96 -53
-24 -20 -52 -36 -63 -36 -27 0 -73 -51 -73 -82 0 -15 -3 -34 -6 -43 -8 -20
-81 -57 -161 -80 -46 -14 -63 -24 -63 -36 0 -22 -29 -33 -36 -14 -4 8 -15 15
-26 15 -15 0 -18 -4 -12 -22 3 -13 15 -31 25 -41 11 -10 19 -22 19 -27 0 -6 7
-10 15 -10 8 0 15 -5 15 -12 0 -14 71 -81 124 -117 22 -14 51 -34 65 -43 33
-22 69 -38 86 -38 7 0 15 -4 17 -9 5 -13 48 -24 48 -12 0 6 -11 13 -25 17 -18
4 -25 13 -25 30 0 19 -5 24 -25 24 -14 0 -25 5 -25 11 0 7 10 9 28 4 15 -4 46
-9 69 -12 35 -4 44 -2 50 13 3 11 19 34 34 51 28 33 28 33 41 5 21 -43 33 -23
31 53 -3 79 -14 106 -60 153 -19 19 -33 43 -33 57 0 23 3 25 54 25 34 0 58 5
65 14 7 8 23 17 36 20 14 4 25 11 25 17 0 19 54 69 75 69 27 0 65 -27 65 -46
0 -19 29 -18 37 2 4 11 13 14 30 9 32 -8 87 10 140 46 23 16 44 29 48 29 8 0
35 27 35 35 0 4 -10 15 -22 24 -31 26 -18 55 22 47 32 -6 60 1 60 15 0 5 -28
9 -62 9 -47 0 -69 5 -88 20 -18 14 -20 20 -9 20 10 0 18 15 25 43 7 33 16 45
41 57 18 8 33 20 33 25 0 10 28 48 66 89 16 18 16 21 -6 62 -21 37 -22 45 -10
59 12 15 26 16 86 11 79 -7 106 6 66 32 -22 14 -20 42 4 42 16 0 34 39 34 74
0 48 -90 59 -198 25z M6257 1625 c-4 -54 -3 -104 2 -112 5 -9 10 23 14 83 3
54 2 104 -2 112 -4 8 -11 -29 -14 -83z M6468 1699 c-13 -7 -18 -23 -18 -59 0
-28 3 -50 8 -50 6 0 25 40 48 103 7 19 -11 22 -38 6z M2325 1670 c109 -12 245
-11 245 0 0 6 -58 9 -157 8 -129 -1 -145 -2 -88 -8z M7255 1613 c-5 -22 -10
-25 -40 -20 -58 9 -75 0 -74 -42 0 -32 1 -33 9 -13 6 14 18 22 34 22 14 0 28
5 31 10 14 23 46 10 61 -25 8 -19 16 -35 19 -35 3 0 5 26 5 59 0 49 -3 59 -19
64 -14 3 -21 -2 -26 -20z M6421 1544 c0 -16 -8 -39 -16 -50 -8 -10 -15 -34
-15 -51 0 -28 -3 -32 -22 -30 -14 1 -23 -4 -26 -14 -3 -17 55 -89 72 -89 5 0
23 -12 38 -27 25 -24 36 -27 98 -27 74 -1 85 5 94 49 3 11 7 32 10 46 4 17 19
35 42 48 47 28 36 41 -37 41 -81 0 -149 37 -149 82 0 34 -16 29 -31 -9 -14
-38 -43 -26 -50 22 -5 35 -6 36 -8 9z M1038 1554 c-23 -7 -23 -16 3 -48 26
-33 84 -35 138 -6 20 11 49 24 65 30 16 6 27 12 25 14 -7 6 -213 15 -231 10z
M4851 1553 c-13 -3 -31 -11 -38 -19 -8 -8 -24 -14 -36 -14 -13 0 -34 -8 -47
-17 -29 -21 -120 -50 -200 -64 -30 -6 -67 -17 -82 -25 -21 -11 -75 -14 -265
-14 -227 0 -288 -7 -255 -28 7 -5 56 -14 109 -21 52 -6 103 -16 113 -21 10 -6
66 -10 123 -10 88 0 108 3 129 19 13 11 38 23 54 27 16 4 38 13 49 20 11 8 43
14 71 14 38 0 55 5 69 20 10 11 24 20 32 20 8 0 28 7 44 16 18 9 67 18 115 20
68 4 94 11 140 34 31 17 66 31 78 31 11 1 1 5 -24 10 -48 8 -139 9 -179 2z
M8125 1469 c22 -4 54 -8 72 -8 39 -1 83 -39 83 -72 -1 -31 -22 -59 -46 -59
-35 0 -51 -17 -36 -40 19 -30 15 -60 -7 -60 -22 0 -35 -30 -26 -60 9 -27 55
-28 55 -1 0 24 36 51 66 51 37 0 47 -24 41 -96 -6 -58 -5 -65 11 -62 11 2 18
14 20 35 2 22 12 39 32 53 43 31 66 112 62 216 -2 40 -2 40 -61 36 -51 -4 -60
-2 -70 16 -19 36 -90 62 -167 61 -63 -1 -66 -2 -29 -10z M1605 1363 c-3 -32
-10 -67 -15 -78 -9 -23 -11 -20 -32 60 -14 50 -14 50 -36 13 -13 -20 -43 -48
-67 -63 -41 -24 -45 -29 -45 -66 0 -35 7 -47 50 -92 48 -49 64 -85 59 -132 -4
-38 1 -55 16 -55 14 0 18 10 30 82 8 54 25 57 25 5 0 -42 18 -75 33 -61 13 14
-6 129 -24 150 -24 26 -24 34 0 34 13 0 21 9 25 28 7 33 1 220 -7 228 -3 3 -8
-21 -12 -53z M8036 1370 c10 -50 -5 -122 -27 -127 -27 -7 -13 -23 21 -23 28 0
28 1 32 68 4 83 0 112 -18 112 -10 0 -12 -8 -8 -30z M2886 1374 c-3 -8 -12
-14 -21 -14 -21 0 -19 -7 9 -37 24 -26 24 -26 55 -2 16 13 30 27 30 30 1 3
-14 13 -33 22 -29 14 -35 14 -40 1z M8473 1209 c-11 -11 -6 -98 7 -112 4 -5
10 15 14 43 7 55 -2 88 -21 69z M7999 1052 c-6 -14 -8 -31 -5 -38 3 -8 0 -27
-6 -45 -9 -26 -7 -35 12 -61 33 -45 22 -58 -55 -58 -36 0 -65 -4 -65 -10 0
-10 47 -60 56 -60 3 0 13 9 22 21 15 18 23 19 81 12 63 -8 71 -13 86 -58 7
-19 7 -19 16 3 10 25 34 29 43 7 7 -20 36 -19 36 0 0 9 8 19 18 22 9 4 23 15
30 25 18 25 32 23 32 -5 0 -14 -15 -39 -34 -59 -40 -42 -55 -78 -31 -78 8 0
18 8 22 18 6 17 20 35 61 76 12 13 22 28 22 33 0 6 9 17 20 24 10 8 20 28 22
44 2 25 -1 31 -20 33 -17 3 -22 8 -17 20 21 53 18 69 -16 86 -17 9 -46 16 -62
16 -17 0 -44 4 -61 9 -17 6 -69 18 -114 29 -84 18 -84 18 -93 -6z M6164 1035
c-9 -22 4 -99 22 -134 9 -17 13 -40 9 -51 -5 -15 0 -22 18 -29 14 -6 28 -19
32 -30 10 -33 25 -24 25 14 0 22 -6 38 -14 41 -8 3 -17 23 -21 45 -4 21 -13
43 -21 47 -8 5 -17 31 -21 60 -6 51 -18 67 -29 37z M3326 968 c-10 -39 -7 -68
8 -68 26 0 36 60 12 79 -11 9 -15 7 -20 -11z M1755 922 l-70 -4 75 -19 c41
-10 86 -19 100 -19 22 -1 21 -3 -16 -23 -67 -36 -84 -52 -90 -85 -7 -35 -15
-39 -34 -17 -18 22 -28 10 -35 -40 -4 -24 -16 -52 -26 -61 -27 -24 -24 -42 12
-75 42 -39 89 -41 89 -3 0 19 17 43 62 86 61 59 61 59 39 75 -17 11 -20 18
-11 27 8 8 15 7 24 -6 16 -22 69 -24 86 -3 7 8 34 17 60 21 39 5 59 16 109 60
34 30 73 56 87 59 13 3 36 7 50 10 15 4 24 8 22 11 -7 6 -450 12 -533 6z
M3224 883 c-33 -6 -36 -46 -7 -78 22 -23 29 -25 76 -19 36 5 56 13 67 28 8 12
24 31 36 43 24 24 21 33 -8 33 -11 0 -23 -11 -28 -25 -5 -14 -16 -25 -23 -25
-8 0 -19 11 -25 25 -12 25 -32 29 -88 18z M2650 820 c-25 -4 -56 -11 -69 -17
-24 -10 -23 -10 20 -27 37 -14 56 -15 113 -7 80 11 101 25 72 47 -21 15 -61
16 -136 4z M8440 788 c-5 -13 -20 -35 -32 -50 -12 -15 -19 -30 -15 -34 10 -10
27 6 27 27 0 10 7 19 15 19 13 0 35 36 35 56 0 14 -22 0 -30 -18z M8702 747
c-28 -30 -28 -47 1 -47 34 0 47 -19 47 -67 0 -32 -5 -45 -21 -53 -31 -17 -23
-74 12 -78 15 -2 32 5 44 18 10 11 26 20 37 20 11 0 18 7 18 20 0 15 -7 20
-25 20 -24 0 -25 2 -25 68 0 61 -3 69 -29 95 -35 33 -32 32 -59 4z M6280 736
c0 -14 8 -31 18 -38 10 -7 21 -21 25 -30 9 -24 27 -23 27 2 0 11 -7 20 -15 20
-8 0 -17 14 -21 35 -7 40 -34 48 -34 11z M3442 691 c-8 -5 -12 -21 -10 -37 2
-24 8 -29 35 -32 28 -3 33 1 39 23 10 42 -27 70 -64 46z M6520 642 c0 -8 103
-117 133 -141 15 -12 17 -11 17 8 0 13 -6 21 -16 21 -9 0 -18 9 -21 20 -3 11
-12 20 -19 20 -8 0 -14 7 -14 16 0 9 -9 18 -19 21 -11 3 -21 13 -24 24 -5 18
-37 28 -37 11z M3472 538 c3 -34 29 -47 65 -33 14 5 11 11 -12 35 -38 40 -57
39 -53 -2z M7757 509 c-12 -14 -24 -18 -35 -13 -23 10 -63 8 -71 -4 -3 -5 -21
-17 -38 -26 -39 -20 -41 -28 -8 -46 13 -7 22 -17 19 -21 -8 -13 -116 -32 -171
-30 -30 1 -54 -3 -58 -9 -5 -9 32 -11 143 -8 126 2 153 6 169 21 12 10 36 17
59 17 22 0 52 9 69 20 17 11 40 20 52 20 26 0 41 19 23 30 -16 10 -61 -5 -77
-26 -17 -23 -116 -10 -111 15 2 9 14 18 28 19 21 3 70 43 70 58 0 13 -48 1
-63 -17z M3550 489 c0 -6 22 -34 49 -61 36 -36 55 -49 73 -46 19 2 23 9 23 38
0 31 -3 35 -30 38 -16 2 -35 12 -43 23 -14 21 -72 27 -72 8z M8598 457 c-20
-7 -43 -18 -50 -25 -15 -15 -53 -16 -78 0 -16 11 -23 9 -41 -10 -11 -13 -18
-26 -15 -30 4 -3 34 -8 67 -10 50 -4 63 -8 66 -23 3 -11 11 -19 19 -19 7 0 18
-9 24 -21 13 -24 37 -11 42 23 5 33 21 31 61 -7 37 -36 64 -44 85 -23 22 22
13 43 -40 95 -59 57 -85 67 -140 50z M8320 430 c-6 -11 -17 -20 -25 -20 -8 0
-19 -9 -25 -19 -5 -11 -19 -23 -30 -26 -11 -4 -18 -11 -15 -16 10 -14 42 -11
49 6 3 8 11 15 19 15 16 0 67 51 67 68 0 19 -28 14 -40 -8z M3390 405 c-8 -9
-30 -15 -57 -15 -54 0 -101 -23 -108 -53 -2 -12 -6 -42 -7 -67 -3 -41 -5 -45
-33 -50 -25 -4 -31 -11 -33 -35 -2 -17 -11 -36 -20 -43 -9 -7 -22 -27 -28 -45
-8 -25 -16 -31 -33 -29 -13 2 -29 -5 -40 -19 -18 -23 -18 -23 -60 -1 -23 12
-52 22 -64 22 -13 0 -42 9 -65 20 -22 11 -56 20 -75 20 -18 0 -42 7 -53 15
-10 8 -28 15 -40 15 -11 0 -29 9 -39 20 -18 20 -18 20 -40 0 -20 -19 -30 -20
-148 -14 -120 7 -127 8 -127 28 0 45 -16 51 -49 18 -17 -17 -31 -40 -31 -51 0
-12 21 -44 47 -71 44 -46 51 -50 94 -50 27 0 51 -4 54 -10 4 -6 173 -10 476
-10 445 0 469 1 469 18 0 29 21 42 65 42 33 0 47 6 70 30 22 23 26 33 17 42
-21 21 -14 48 11 48 29 0 47 18 47 45 0 12 9 30 20 40 31 28 25 46 -33 103
-52 51 -54 52 -114 52 -42 0 -64 -5 -73 -15z M8360 345 c0 -8 -7 -15 -15 -15
-21 0 -36 -41 -22 -58 8 -10 15 -7 33 15 24 29 32 73 14 73 -5 0 -10 -7 -10
-15z M2446 333 c-3 -3 -6 -16 -6 -27 0 -12 -4 -28 -10 -36 -7 -12 -12 -12 -29
4 -20 18 -29 16 -63 -13 -22 -19 -24 -41 -3 -41 8 0 19 -9 25 -20 15 -29 51
-25 83 9 21 23 27 39 27 75 0 43 -10 63 -24 49z M8475 330 c-10 -16 4 -30 29
-30 25 0 51 22 39 33 -10 11 -61 8 -68 -3z M8394 275 c-10 -24 2 -42 31 -47
36 -7 44 17 14 42 -29 24 -38 25 -45 5z M8276 172 c-3 -5 1 -15 9 -22 18 -15
68 -4 62 13 -4 15 -63 22 -71 9z M7044 128 c-4 -6 0 -14 7 -19 17 -11 107 -10
134 1 17 6 15 8 -15 13 -78 13 -120 15 -126 5z M7650 114 c-36 -8 -140 -16
-232 -20 -93 -3 -168 -10 -168 -14 0 -5 16 -14 35 -21 42 -16 41 -28 -6 -45
-28 -10 14 -13 262 -13 297 -1 297 -1 303 24 5 18 13 25 31 25 34 0 77 18 70
30 -3 5 -26 10 -51 10 -33 0 -47 5 -56 20 -15 24 -84 25 -188 4z M1365 40
c-10 -11 -28 -20 -41 -20 -13 0 -26 -5 -29 -10 -4 -6 42 -10 130 -10 88 0 134
4 130 10 -3 6 -25 10 -49 10 -30 0 -48 6 -61 20 -10 11 -28 20 -40 20 -12 0
-30 -9 -40 -20z M6992 26 c-81 -20 -74 -26 33 -26 97 0 98 0 80 20 -21 23 -38
24 -113 6z M1763 24 c-32 -14 -7 -24 59 -24 54 0 69 3 61 11 -13 13 -100 22
-120 13z"/>
</g>
</svg>
