<?xml version="1.0" encoding="UTF-8"?>
<svg xmlns="http://www.w3.org/2000/svg" width="972" height="546" viewBox="0 0 972 546" role="img" aria-labelledby="title desc">
  <title id="title">BillBandit peeking mascot</title>
  <desc id="desc">A clean vector recreation of a cream and navy raccoon mascot peeking over a cream ledge on a blue background.</desc>
  <defs>
    <clipPath id="above-ledge">
      <rect width="972" height="490"/>
    </clipPath>
  </defs><g id="cream-base" transform="translate(0.000000,546.000000) scale(0.100000,-0.100000)" fill="#f6efdf" stroke="none">
<path d="M1960 5020 c-25 -4 -76 -22 -113 -40 -86 -39 -218 -167 -259 -250
-85 -173 -98 -227 -98 -435 0 -138 19 -297 44 -361 8 -22 19 -64 25 -94 5 -30
26 -89 45 -130 20 -41 36 -82 36 -92 0 -18 -36 -86 -55 -103 -6 -5 -29 -39
-50 -75 -21 -36 -49 -78 -62 -93 -13 -16 -23 -34 -23 -41 0 -7 -13 -30 -30
-51 -16 -21 -30 -41 -30 -46 0 -4 -22 -43 -48 -86 -26 -43 -54 -92 -61 -110
-7 -17 -21 -39 -32 -49 -10 -9 -19 -23 -19 -29 0 -7 -7 -18 -16 -25 -19 -17
-46 -79 -38 -91 10 -17 36 -9 41 12 3 11 16 25 30 30 13 5 26 17 30 26 3 10
18 32 32 49 14 17 35 46 46 65 11 18 30 49 42 69 12 19 29 49 39 65 9 17 27
43 40 58 13 16 24 34 24 41 0 8 9 24 19 37 10 14 27 38 37 56 54 90 222 321
292 402 106 122 309 314 373 353 17 10 40 27 52 38 11 11 25 20 31 20 6 0 19
9 31 20 25 25 121 90 134 90 4 0 15 7 22 17 8 9 37 27 66 39 28 13 54 27 57
33 4 5 23 15 44 22 20 6 49 20 63 30 14 10 38 21 55 25 16 3 40 13 54 22 14 9
52 24 85 33 33 10 87 27 120 37 150 49 362 90 575 113 134 15 621 4 680 -14
25 -8 77 -18 115 -21 39 -4 109 -21 156 -37 48 -16 94 -29 103 -29 21 0 192
-54 256 -80 25 -11 56 -22 70 -26 14 -4 37 -15 52 -26 15 -10 42 -24 60 -30
17 -6 48 -22 66 -35 19 -13 39 -23 44 -23 6 0 24 -10 41 -22 18 -13 44 -30 58
-38 53 -31 92 -56 127 -82 21 -15 54 -40 75 -55 140 -103 315 -265 399 -370
18 -23 58 -72 88 -109 64 -80 136 -186 204 -302 27 -46 53 -85 57 -88 5 -3 18
-24 29 -47 23 -47 52 -97 98 -172 17 -27 41 -68 53 -90 12 -22 30 -49 41 -60
10 -11 32 -36 48 -56 27 -33 28 -38 14 -50 -19 -16 -56 2 -204 98 -126 82
-302 209 -351 253 -9 8 -34 26 -54 40 -20 14 -56 40 -81 58 -24 17 -47 32 -51
32 -3 0 -20 10 -37 23 -17 13 -44 31 -61 39 -26 14 -82 44 -160 86 -107 57
-285 118 -386 131 -42 6 -88 15 -103 21 -41 15 -81 13 -228 -15 -197 -36 -278
-74 -452 -211 -58 -47 -176 -183 -223 -259 -53 -86 -101 -227 -120 -355 -4
-33 0 -40 41 -78 39 -36 52 -42 90 -42 51 0 63 9 206 146 106 103 147 135 233
186 107 62 224 98 323 98 46 0 95 -5 111 -11 15 -6 62 -17 104 -24 91 -16 172
-55 307 -147 64 -43 197 -160 327 -287 249 -241 385 -337 521 -366 72 -15 78
-19 88 -52 5 -15 1 -28 -12 -41 -11 -11 -54 -60 -95 -109 -127 -150 -241 -244
-400 -328 -117 -62 -201 -91 -365 -124 -124 -25 -303 -3 -424 52 -173 79 -266
153 -568 451 -130 129 -243 230 -286 259 -319 209 -684 149 -978 -161 -290
-307 -364 -375 -516 -474 -126 -81 -245 -120 -418 -135 -114 -10 -279 29 -442
105 -136 63 -298 190 -415 326 -33 38 -79 89 -103 113 -44 46 -66 87 -58 109
2 6 31 16 64 22 32 6 85 21 116 34 73 31 232 148 343 252 140 131 182 168 280
247 144 116 146 117 274 181 139 69 216 87 374 88 224 0 369 -72 609 -305 100
-97 112 -105 148 -105 39 0 130 39 144 62 4 7 7 28 6 48 -4 48 -61 246 -82
284 -10 17 -21 42 -25 56 -4 14 -16 36 -27 50 -10 14 -35 50 -55 80 -57 86
-89 121 -201 212 -12 9 -36 25 -54 34 -18 9 -40 23 -49 30 -14 13 -65 33 -179
70 -130 43 -396 35 -554 -15 -53 -17 -103 -31 -111 -31 -9 0 -37 -11 -63 -24
-26 -13 -62 -27 -79 -31 -18 -3 -36 -11 -39 -17 -4 -6 -30 -21 -58 -34 -28
-14 -69 -37 -92 -52 -22 -15 -56 -37 -75 -49 -47 -30 -93 -62 -139 -98 -21
-16 -61 -45 -87 -64 -26 -19 -53 -40 -58 -45 -19 -20 -90 -73 -120 -90 -16 -9
-50 -32 -75 -51 -25 -19 -56 -43 -70 -52 -14 -10 -27 -21 -30 -25 -11 -14 -84
-60 -143 -89 -34 -16 -84 -42 -112 -58 -27 -16 -93 -50 -145 -77 -82 -43 -95
-53 -98 -78 -2 -16 4 -36 14 -48 10 -10 27 -35 39 -53 77 -128 125 -185 206
-245 29 -21 44 -71 26 -82 -20 -13 -49 -9 -68 8 -11 10 -25 13 -39 9 -18 -6
-20 -12 -15 -38 4 -18 17 -41 29 -52 12 -11 56 -60 98 -110 134 -160 319 -324
493 -438 55 -37 111 -75 125 -85 14 -10 36 -25 50 -32 14 -7 34 -21 45 -31 11
-10 50 -29 85 -43 36 -13 115 -48 175 -76 61 -29 133 -61 160 -71 28 -10 93
-34 145 -54 138 -52 262 -93 336 -110 36 -8 77 -21 92 -28 15 -8 66 -19 113
-26 47 -6 111 -20 142 -31 31 -11 71 -20 88 -20 17 0 61 -6 98 -14 197 -43
298 -51 636 -50 290 0 337 3 390 19 33 10 98 21 145 25 114 11 290 38 318 50
13 6 54 15 92 21 100 15 437 128 595 199 422 189 514 239 720 395 22 17 56 44
75 61 19 17 62 55 95 84 33 29 107 101 165 159 222 224 235 242 211 280 -8 13
-15 13 -49 2 -47 -16 -62 -9 -62 27 0 20 20 47 74 104 41 42 89 101 108 130
19 29 49 75 67 103 33 52 38 92 11 106 -8 4 -42 20 -75 34 -85 37 -171 123
-191 193 -9 28 -19 52 -24 52 -5 0 -13 15 -20 34 -6 18 -20 42 -30 51 -11 10
-20 24 -20 30 0 7 -13 29 -30 50 -16 20 -32 46 -36 58 -4 12 -17 35 -30 50
-13 16 -24 34 -24 42 0 7 -7 19 -16 26 -9 7 -27 36 -40 64 -32 64 -71 131
-109 185 -73 103 -79 138 -37 212 16 29 33 73 37 98 3 25 17 77 30 115 13 39
31 115 40 170 9 55 21 125 27 155 15 82 4 253 -21 322 -12 32 -21 67 -21 79 0
27 -60 163 -94 214 -108 161 -264 236 -461 222 -92 -7 -233 -50 -294 -90 -20
-13 -61 -40 -91 -60 -84 -54 -239 -213 -292 -298 -9 -14 -30 -31 -46 -38 -25
-11 -35 -9 -77 13 -26 14 -55 26 -63 26 -8 0 -38 11 -66 24 -47 23 -75 31
-233 70 -233 58 -397 76 -687 76 -240 0 -358 -10 -491 -40 -44 -10 -100 -21
-125 -24 -25 -4 -59 -13 -75 -22 -16 -8 -63 -22 -104 -29 -41 -8 -83 -21 -95
-28 -29 -19 -120 -47 -151 -47 -19 0 -38 13 -68 48 -66 76 -231 235 -278 267
-133 93 -270 144 -399 150 -47 2 -105 0 -130 -5z m3871 -200 c165 -42 235
-135 301 -395 32 -130 32 -124 2 -370 -8 -66 -21 -146 -29 -178 -8 -32 -15
-71 -15 -85 0 -49 -12 -72 -38 -79 -20 -5 -29 0 -46 23 -54 74 -330 346 -399
394 -13 8 -32 23 -43 33 -39 36 -92 77 -98 77 -6 0 -82 49 -136 87 -13 10 -37
23 -52 30 -15 6 -40 27 -57 45 -29 33 -29 33 -9 68 27 44 100 134 147 180 79
77 174 133 281 166 94 28 95 28 191 4z m-3671 -5 c36 -9 76 -24 90 -34 14 -10
41 -26 60 -36 49 -25 235 -215 261 -267 22 -42 22 -42 -17 -76 -21 -18 -57
-42 -79 -53 -38 -18 -102 -56 -135 -79 -8 -5 -44 -30 -80 -55 -93 -64 -102
-72 -197 -160 -138 -128 -155 -146 -232 -233 -61 -69 -75 -81 -90 -72 -12 6
-21 26 -26 57 -3 26 -15 77 -26 112 -44 144 -48 450 -8 561 11 30 26 74 34 97
19 57 83 140 144 187 84 63 178 79 301 51z m1823 -2835 c72 -23 117 -56 152
-115 38 -65 36 -121 -4 -184 -29 -44 -94 -101 -116 -101 -5 0 -32 -16 -62 -37
-50 -34 -53 -39 -53 -78 0 -33 6 -47 33 -72 37 -36 123 -73 170 -73 63 0 156
41 211 95 70 69 106 91 117 74 5 -8 9 -26 9 -40 0 -42 -104 -141 -208 -198
-31 -17 -143 -26 -204 -17 -25 4 -69 22 -99 41 -65 43 -97 44 -164 6 -107 -60
-255 -61 -344 -2 -62 41 -140 119 -147 147 -8 30 1 53 22 61 11 4 33 -13 72
-55 123 -132 266 -147 380 -39 25 24 32 39 32 67 0 45 -13 57 -111 103 -121
57 -179 136 -179 242 0 155 258 246 493 175z M8395 2969 c-44 -5 -107 -17
-140 -28 -33 -11 -80 -25 -105 -31 -39 -10 -147 -55 -190 -81 -8 -5 -33 -18
-55 -30 -22 -12 -65 -41 -95 -65 -30 -24 -79 -62 -108 -86 -53 -41 -229 -244
-267 -308 -50 -84 -75 -127 -85 -150 -6 -14 -24 -52 -41 -86 -16 -33 -29 -67
-29 -74 0 -8 -9 -32 -19 -54 -11 -23 -33 -95 -51 -161 -17 -66 -45 -163 -60
-215 -16 -52 -34 -119 -40 -148 -7 -28 -16 -54 -20 -57 -4 -3 -13 -29 -20 -57
-7 -29 -23 -75 -35 -103 -13 -27 -26 -58 -29 -67 -3 -9 -17 -25 -32 -35 -24
-15 -48 -17 -198 -15 -153 2 -181 0 -266 -21 -91 -24 -205 -73 -242 -105 -15
-13 -21 -12 -50 13 -18 15 -42 36 -53 47 -29 28 -204 167 -226 178 -29 16 -49
1 -49 -36 0 -29 5 -36 43 -55 41 -21 120 -84 201 -161 33 -31 38 -41 32 -64
-4 -16 -16 -37 -27 -49 -51 -51 -71 -97 -76 -174 -5 -90 -14 -111 -56 -137
-30 -17 -52 -18 -307 -16 -390 5 -352 4 -2010 5 -828 1 -1589 0 -1691 -2 -157
-2 -187 0 -198 13 -7 8 -17 48 -22 88 -10 83 -17 108 -29 108 -5 0 -14 15 -20
34 -11 35 -51 92 -91 133 -30 29 -19 63 34 112 55 50 135 111 146 111 16 0 62
62 59 79 -3 11 -13 15 -36 13 -41 -3 -99 -44 -215 -152 -57 -53 -61 -55 -111
-54 -31 1 -67 10 -92 23 -23 12 -84 34 -135 49 -80 22 -113 27 -224 27 -98 0
-142 -4 -180 -17 -27 -10 -83 -25 -124 -33 -41 -9 -79 -19 -85 -24 -6 -4 -31
-15 -56 -23 -62 -21 -189 -105 -238 -158 -38 -42 -91 -156 -107 -229 -36 -172
-81 -225 -189 -221 -95 4 -86 27 -86 -210 l0 -210 4860 0 4860 0 0 218 0 217
-97 3 c-130 3 -155 12 -204 77 -26 34 -50 56 -67 59 -15 3 -85 4 -155 2 -125
-4 -129 -5 -158 -32 -16 -15 -31 -36 -35 -46 -13 -42 -130 -88 -149 -58 -3 5
-31 17 -61 27 -31 9 -58 23 -61 29 -9 25 28 74 67 90 22 9 40 20 40 25 0 5 8
12 18 16 36 13 204 144 272 212 40 40 128 144 151 177 8 12 33 49 56 82 183
267 271 556 260 855 -10 302 -110 531 -321 740 -171 169 -381 259 -650 277
-77 5 -143 9 -146 9 -3 -1 -41 -5 -85 -10z m328 -99 c221 -54 261 -70 418
-174 57 -38 171 -155 202 -209 49 -83 86 -163 116 -255 29 -88 31 -104 33
-267 2 -134 0 -177 -10 -187 -19 -18 -54 27 -83 106 -12 34 -40 87 -63 120
-23 32 -51 73 -62 90 -54 77 -263 272 -394 365 -56 41 -236 153 -255 160 -5 2
-36 16 -68 32 -32 16 -63 29 -70 29 -7 0 -36 11 -65 25 -31 14 -88 29 -140 35
-48 6 -98 15 -111 21 -23 10 -23 10 -5 30 34 37 75 51 223 74 185 29 232 30
334 5z m-1078 -500 c22 -5 89 -14 150 -20 150 -15 282 -57 461 -145 222 -110
389 -237 537 -409 99 -115 136 -171 197 -293 64 -130 106 -252 134 -392 24
-116 24 -116 3 -156 -11 -22 -36 -56 -57 -75 -90 -86 -139 -128 -195 -165 -95
-63 -144 -106 -147 -128 -4 -31 -68 -44 -116 -24 -43 18 -140 31 -227 31 -51
0 -71 -6 -127 -37 -36 -20 -75 -37 -86 -37 -31 0 -82 21 -82 33 2 53 234 165
344 167 15 0 46 -10 67 -22 32 -18 43 -20 64 -10 30 14 30 22 9 162 -16 111
-41 186 -106 315 -169 336 -587 642 -963 706 -66 11 -130 27 -142 35 -30 19
-30 61 1 122 13 26 27 58 31 72 27 93 115 239 158 262 38 20 40 20 92 8z
m-323 -919 c35 -16 98 -45 140 -65 99 -45 249 -155 313 -232 133 -156 176
-246 234 -487 28 -118 -2 -143 -139 -117 -30 6 -96 10 -149 11 -137 1 -151 10
-166 108 -10 61 -66 159 -124 219 -85 85 -174 136 -343 195 -27 9 -23 69 7
113 14 20 25 44 25 53 0 9 7 29 15 45 8 16 22 56 31 90 15 63 42 96 75 96 10
0 47 -13 81 -29z m-6042 -437 c79 -22 173 -58 226 -86 62 -33 156 -137 174
-193 7 -22 18 -46 24 -54 7 -9 11 -61 11 -135 0 -112 -2 -126 -28 -181 -34
-72 -47 -87 -114 -132 -71 -47 -110 -44 -137 12 -16 33 -19 60 -18 146 2 106
2 106 -25 118 -45 20 -53 -3 -53 -148 0 -172 -23 -214 -131 -242 -54 -15 -92
-7 -125 26 -23 23 -24 30 -24 159 0 74 -5 147 -10 162 -11 27 -11 27 -34 5
-22 -21 -24 -34 -31 -154 -4 -73 -11 -142 -16 -155 -13 -33 -72 -55 -125 -47
-61 9 -104 42 -136 105 -26 52 -28 62 -26 168 1 93 -1 116 -15 129 -15 15 -18
15 -36 -1 -19 -17 -20 -28 -15 -145 6 -142 -2 -169 -51 -183 -72 -19 -152 39
-202 147 -24 52 -27 71 -26 150 1 56 7 107 18 135 9 25 22 64 29 87 31 98 193
249 286 268 19 4 56 16 81 27 81 34 424 42 529 12z m5699 16 c52 -6 105 -17
117 -24 11 -8 47 -21 78 -29 30 -8 70 -27 87 -41 17 -14 35 -26 40 -26 5 0 37
-29 71 -64 51 -52 69 -80 93 -143 27 -71 30 -89 30 -193 -1 -108 -2 -119 -31
-175 -20 -40 -48 -74 -82 -102 -45 -37 -59 -43 -99 -43 -50 0 -83 20 -83 51 0
10 -5 21 -10 24 -7 4 -6 13 1 27 6 11 12 55 12 99 2 83 -7 104 -48 111 -19 3
-20 -3 -21 -107 -2 -137 -15 -190 -61 -232 -35 -33 -57 -39 -133 -33 -79 5
-89 26 -91 190 -1 92 -5 125 -17 136 -30 31 -37 10 -43 -132 -3 -79 -10 -149
-17 -161 -19 -34 -77 -48 -145 -33 -45 9 -63 19 -93 52 -37 41 -37 41 -30 177
6 113 4 139 -8 156 -12 16 -18 18 -33 9 -16 -10 -18 -25 -15 -132 5 -164 -10
-192 -98 -192 -27 0 -53 9 -82 29 -59 40 -80 65 -119 138 -31 62 -32 65 -33
202 -1 115 2 142 15 157 9 11 26 37 37 59 28 56 149 164 202 180 14 4 47 19
75 33 37 18 73 26 145 32 144 11 284 11 389 0z M4792 2675 c-48 -21 -97 -64
-137 -120 -31 -45 -35 -57 -35 -115 0 -60 3 -70 38 -118 48 -67 134 -114 207
-115 77 0 149 43 203 122 35 53 42 71 42 113 0 70 -52 162 -117 205 -59 39
-149 52 -201 28z m109 -89 c37 -15 83 -77 94 -124 8 -37 -9 -79 -47 -119 -56
-58 -120 -56 -187 6 -39 36 -41 41 -41 95 0 69 19 105 69 135 43 24 67 26 112
7z M2775 2671 c-79 -25 -139 -78 -171 -150 -28 -63 -30 -95 -8 -153 50 -128
208 -194 324 -134 97 49 153 157 132 252 -28 124 -172 220 -277 185z m141
-124 c31 -28 37 -41 42 -85 6 -63 -9 -101 -51 -133 -120 -89 -264 79 -175 204
25 35 50 46 106 46 34 1 49 -5 78 -32z"/>
</g>
  <g id="navy-shapes" transform="translate(0.000000,546.000000) scale(0.100000,-0.100000)" fill="#0b1f68" stroke="none">
<path d="M4780 2709 c-30 -6 -51 -17 -63 -34 -10 -14 -25 -25 -33 -25 -7 0
-20 -13 -28 -29 -9 -16 -22 -31 -30 -34 -51 -20 -48 -269 4 -297 10 -5 22 -19
25 -31 4 -11 16 -24 28 -29 12 -6 35 -20 50 -32 25 -20 40 -23 127 -23 87 0
102 3 127 23 15 12 38 26 50 32 12 5 27 19 34 32 7 13 20 29 30 36 53 37 52
264 -1 292 -11 6 -20 18 -20 26 0 8 -13 23 -29 32 -17 9 -32 24 -34 33 -8 30
-145 46 -237 28z M2735 2703 c-12 -2 -36 -17 -55 -33 -19 -17 -41 -30 -47 -30
-7 0 -23 -18 -35 -41 -13 -22 -31 -55 -40 -72 -23 -41 -24 -137 -2 -183 9 -19
20 -34 24 -34 4 0 13 -13 20 -29 15 -38 83 -91 129 -102 78 -18 231 -4 231 21
0 5 14 16 30 25 17 9 30 22 30 29 0 8 11 23 25 33 31 23 48 123 35 213 -9 65
-15 79 -42 98 -10 7 -18 20 -18 27 0 8 -13 21 -30 30 -16 9 -30 20 -30 25 0
23 -150 38 -225 23z M7546 2298 c-20 -21 -36 -45 -36 -52 0 -7 -9 -21 -19 -30
-11 -10 -23 -32 -27 -50 -3 -17 -17 -51 -29 -76 -34 -66 -56 -150 -42 -155 7
-3 56 -9 111 -14 58 -6 105 -16 115 -24 9 -8 40 -20 68 -27 29 -6 63 -20 76
-30 12 -10 43 -23 67 -30 25 -7 53 -21 63 -31 10 -10 26 -19 36 -19 10 0 35
-13 56 -30 21 -16 41 -30 45 -30 4 0 22 -14 41 -30 19 -17 47 -40 62 -53 48
-38 227 -217 227 -226 0 -5 9 -13 20 -16 11 -3 23 -17 26 -30 3 -13 12 -26 19
-29 8 -3 23 -22 34 -44 11 -21 26 -44 35 -51 8 -7 18 -26 21 -43 4 -16 17 -45
30 -63 12 -19 25 -52 29 -75 3 -23 16 -54 27 -69 28 -38 40 -281 17 -329 -18
-36 -15 -42 23 -42 38 0 59 9 59 26 0 8 11 20 25 26 13 6 27 19 30 29 3 10 16
21 28 25 12 4 34 17 49 30 16 12 37 25 48 29 11 3 33 18 49 33 16 15 35 33 42
39 8 7 19 17 24 23 6 5 30 29 55 52 45 41 45 41 43 119 -1 51 -7 86 -18 102
-8 13 -22 62 -30 108 -9 48 -21 86 -29 91 -8 4 -20 32 -26 60 -7 29 -21 64
-31 77 -11 13 -24 41 -29 62 -6 22 -15 39 -20 39 -5 0 -17 17 -26 38 -10 20
-31 53 -46 72 -16 19 -39 47 -51 62 -32 40 -150 159 -186 188 -17 14 -45 37
-61 53 -17 15 -34 27 -38 27 -5 0 -17 9 -29 19 -11 11 -39 29 -62 40 -22 12
-41 25 -41 29 0 4 -22 15 -50 25 -27 10 -50 22 -50 27 0 4 -24 16 -52 25 -29
10 -60 23 -68 30 -8 7 -33 18 -55 25 -22 7 -60 21 -84 32 -28 12 -95 24 -188
33 -80 8 -148 17 -152 20 -4 2 -26 8 -48 13 -40 9 -42 8 -77 -30z M7291 2251
c-6 -11 -11 -29 -11 -41 0 -12 -13 -35 -30 -50 -22 -21 -30 -37 -30 -63 0 -23
-8 -43 -25 -61 -14 -15 -28 -45 -31 -66 -4 -22 -17 -51 -30 -65 -13 -14 -26
-42 -29 -63 -4 -20 -10 -48 -15 -62 -7 -24 -9 -23 -29 23 -25 53 -31 55 -96
27 -59 -25 -95 -25 -138 0 -38 23 -79 28 -114 16 -20 -6 -23 -4 -23 21 0 17 8
33 20 41 22 13 27 47 8 58 -6 4 -19 -3 -30 -17 -10 -13 -23 -28 -28 -34 -6 -5
-16 -16 -23 -23 -6 -7 -59 -60 -117 -118 -58 -57 -109 -109 -115 -114 -88 -89
-239 -210 -261 -210 -7 0 -15 -9 -19 -19 -3 -11 -14 -23 -25 -26 -10 -3 -35
-19 -55 -35 -21 -17 -46 -30 -55 -30 -10 0 -25 -11 -34 -25 -9 -13 -31 -28
-49 -33 -29 -8 -27 -9 36 -16 58 -7 68 -11 73 -30 3 -12 18 -27 35 -33 16 -6
29 -18 29 -27 0 -9 6 -16 14 -16 8 0 31 -15 52 -34 112 -100 106 -96 128 -84
11 6 27 19 36 29 8 10 33 22 55 27 59 12 53 36 -9 40 -44 3 -52 0 -71 -24 -15
-18 -27 -25 -38 -21 -23 9 -21 34 4 49 38 24 49 69 32 130 -17 60 -34 78 -75
78 -43 0 -54 32 -18 53 16 10 31 26 35 36 3 10 19 24 35 31 16 6 31 18 34 26
3 8 12 14 19 14 8 0 26 10 41 21 42 33 121 60 135 46 7 -7 38 -10 77 -9 46 2
84 -3 125 -18 33 -11 85 -20 118 -20 43 0 65 -5 84 -20 24 -19 26 -19 56 -3
43 24 48 12 45 -98 -2 -72 -6 -94 -20 -103 -9 -7 -24 -33 -33 -57 -12 -31 -23
-45 -38 -47 -11 -2 -28 -11 -37 -21 -16 -17 -15 -19 21 -24 59 -10 86 9 101
73 8 30 21 63 29 72 8 9 21 51 28 93 8 43 20 84 29 94 8 9 18 41 21 71 4 30
17 78 30 105 12 28 26 80 30 117 4 41 14 76 25 91 10 13 24 52 30 87 7 41 18
69 30 77 12 9 21 32 25 68 5 37 12 55 21 55 26 0 47 91 25 105 -6 3 -15 -3
-20 -14z M916 2071 c-3 -5 1 -22 9 -37 8 -16 15 -36 15 -45 0 -9 11 -24 25
-33 14 -9 25 -24 25 -34 0 -10 5 -23 11 -29 20 -20 -23 -34 -55 -18 -31 16
-31 16 -41 -58 -10 -75 25 -120 102 -132 24 -3 48 -12 55 -19 30 -29 66 -45
103 -45 143 2 160 5 160 25 0 10 -10 23 -22 29 -13 5 -23 13 -23 17 0 4 -39
48 -87 97 -49 50 -101 107 -118 127 -54 68 -154 164 -159 155z M3705 1951
c-51 -8 -108 -39 -159 -88 -26 -25 -28 -31 -23 -82 4 -38 12 -60 25 -71 11 -8
23 -25 27 -37 3 -13 12 -23 18 -23 7 0 28 -11 48 -24 19 -13 53 -29 75 -35 66
-18 89 -51 88 -124 -1 -34 -3 -71 -5 -82 -3 -16 2 -21 29 -23 42 -4 65 13 52
38 -6 10 -10 43 -10 73 0 65 21 97 79 120 22 9 42 21 46 27 4 6 24 18 46 27
62 24 87 110 58 202 -10 31 -22 41 -78 68 -58 29 -79 33 -166 37 -55 3 -122 1
-150 -3z M1407 1563 c-9 -9 12 -33 29 -33 8 0 16 -11 20 -25 4 -17 18 -31 40
-40 19 -8 34 -19 34 -25 0 -6 11 -22 24 -35 25 -25 25 -25 0 -42 -104 -72
-129 -129 -78 -177 25 -23 26 -24 6 -30 -11 -4 -39 0 -63 9 -47 16 -111 19
-144 6 -15 -6 -10 -9 25 -15 26 -4 53 -17 68 -31 14 -14 33 -25 43 -25 10 0
42 -9 71 -20 46 -17 54 -18 68 -5 9 8 21 15 26 15 5 0 21 12 36 28 14 15 41
39 59 54 19 15 50 40 69 56 19 16 50 33 67 36 33 7 33 7 -13 47 -25 21 -51 39
-59 39 -7 0 -16 9 -20 19 -3 11 -19 22 -35 26 -28 6 -80 41 -128 84 -12 12
-27 21 -31 21 -5 0 -28 16 -51 35 -43 36 -52 40 -63 28z M7222 1389 c-16 -35
-35 -86 -42 -113 -6 -27 -22 -64 -36 -82 -38 -49 -24 -85 37 -99 45 -10 141
-61 170 -89 9 -9 20 -16 25 -16 5 0 21 -12 36 -27 14 -16 31 -32 37 -38 34
-33 71 -77 71 -87 0 -6 11 -21 24 -33 14 -13 28 -40 32 -61 4 -21 18 -62 31
-91 24 -53 24 -53 152 -53 71 0 149 -3 175 -6 44 -6 46 -6 46 17 0 14 -7 35
-16 47 -8 12 -22 63 -29 112 -9 61 -20 96 -33 110 -11 12 -23 35 -26 52 -3 16
-17 43 -31 60 -14 16 -25 36 -25 44 0 7 -44 57 -97 109 -122 119 -137 132
-163 140 -11 3 -32 17 -48 29 -15 13 -41 27 -59 30 -18 4 -42 15 -55 25 -13
10 -42 22 -65 26 -29 4 -49 15 -61 32 -19 26 -19 26 -50 -38z M1915 1218 c-2
-7 -5 -26 -7 -43 -2 -24 -12 -35 -48 -55 -79 -43 -118 -70 -124 -86 -3 -8 -17
-18 -30 -24 -45 -17 -35 -90 20 -145 13 -13 24 -30 24 -37 0 -8 9 -21 19 -30
20 -17 25 -37 36 -140 5 -44 11 -59 23 -60 23 -3 184 -4 1887 -4 814 0 1656
-1 1870 -3 215 -1 395 1 400 6 15 12 55 134 55 166 0 31 13 61 40 92 9 11 22
34 28 52 10 30 8 34 -36 73 -26 23 -59 53 -73 66 -14 13 -31 24 -37 24 -6 0
-17 9 -24 19 -8 10 -32 24 -55 30 -49 13 -56 21 -57 70 -1 34 -3 36 -34 34
-19 0 -42 -10 -52 -21 -11 -11 -37 -23 -59 -27 -21 -3 -47 -15 -56 -26 -10
-10 -34 -21 -54 -25 -20 -3 -52 -17 -71 -29 -19 -13 -50 -26 -69 -30 -18 -4
-48 -17 -66 -30 -19 -12 -53 -25 -77 -29 -23 -4 -50 -14 -59 -22 -9 -8 -45
-20 -80 -26 -35 -7 -76 -20 -90 -31 -17 -12 -56 -22 -110 -28 -53 -6 -99 -17
-123 -30 -30 -17 -62 -23 -135 -27 -66 -3 -106 -10 -126 -22 -22 -12 -74 -20
-186 -29 -86 -7 -194 -19 -240 -27 -121 -22 -471 -22 -524 0 -25 11 -84 18
-174 22 -109 5 -144 10 -176 27 -25 12 -72 23 -126 27 -51 5 -105 16 -134 29
-26 12 -80 24 -119 27 -41 3 -92 15 -121 29 -27 12 -81 27 -120 33 -42 7 -74
17 -81 27 -6 9 -37 20 -68 25 -31 5 -68 18 -82 29 -14 11 -45 23 -70 27 -24 3
-55 15 -68 25 -13 10 -45 23 -72 29 -27 6 -58 20 -69 30 -11 10 -40 23 -63 29
-24 5 -53 19 -63 30 -22 23 -87 29 -94 9z M845 980 c-21 -10 -66 -22 -100 -25
-61 -7 -89 -18 -113 -42 -7 -7 -20 -13 -27 -13 -18 0 -145 -121 -145 -137 0
-7 -9 -21 -20 -31 -12 -11 -24 -42 -31 -78 -6 -32 -17 -81 -25 -109 -13 -46
-12 -57 10 -149 22 -92 27 -101 67 -137 60 -52 76 -54 100 -16 10 18 17 38 14
46 -3 7 -8 59 -11 115 -6 100 -6 101 22 138 33 43 56 52 98 40 44 -12 54 -54
55 -214 1 -143 5 -168 26 -168 7 0 19 -10 28 -23 12 -19 23 -22 70 -21 31 0
60 3 64 8 4 4 9 66 10 139 4 166 9 192 35 217 25 23 90 27 107 6 7 -9 10 -62
9 -162 -3 -136 -1 -151 17 -176 26 -36 37 -39 98 -32 75 9 90 43 97 224 5 113
9 140 25 162 11 15 25 29 31 32 14 5 84 -27 95 -45 5 -8 9 -67 9 -132 0 -65 5
-127 10 -137 10 -18 12 -18 58 -2 31 11 62 32 87 60 34 39 39 50 44 110 9 105
-4 289 -22 310 -8 9 -24 36 -36 60 -12 23 -28 42 -35 42 -8 0 -21 11 -30 24
-8 14 -30 27 -48 31 -18 4 -49 17 -68 30 -19 13 -57 26 -85 30 -27 4 -68 16
-89 26 -57 28 -341 27 -401 -1z M6536 985 c-10 -8 -44 -20 -75 -26 -31 -7 -69
-23 -86 -35 -16 -12 -42 -24 -57 -28 -16 -3 -28 -13 -28 -21 0 -9 -11 -21 -25
-27 -14 -6 -25 -17 -25 -24 0 -7 -10 -21 -23 -31 -31 -24 -72 -178 -64 -243
13 -104 39 -192 68 -225 16 -18 29 -37 29 -42 0 -4 26 -16 58 -26 57 -17 57
-17 80 9 19 22 23 35 18 63 -3 20 -8 72 -12 116 -6 79 -6 80 22 107 49 45 82
41 119 -12 28 -41 28 -41 22 -179 -6 -138 -6 -138 24 -169 27 -27 39 -32 81
-32 41 0 53 4 73 28 23 26 24 34 25 159 0 156 8 183 56 183 24 0 39 -8 58 -31
25 -29 26 -36 26 -154 0 -67 3 -137 6 -154 6 -30 8 -31 64 -31 50 0 58 3 68
24 6 13 19 27 30 30 25 8 32 49 32 197 0 98 3 120 18 139 17 21 21 22 56 9 66
-24 71 -36 72 -178 2 -173 -1 -161 34 -161 17 0 33 6 36 14 3 8 19 19 35 25
16 5 29 16 29 23 0 7 11 21 25 33 35 28 55 181 37 285 -7 39 -12 84 -12 100 0
17 -8 34 -19 42 -11 8 -27 30 -37 51 -10 20 -21 37 -25 37 -4 0 -26 16 -49 35
-23 19 -48 35 -55 35 -8 0 -25 11 -39 24 -19 17 -43 25 -86 29 -33 4 -79 16
-102 27 -38 18 -61 20 -252 20 -167 -1 -215 -4 -230 -15z M9303 983 c-12 -33
-118 -149 -201 -221 -24 -20 -57 -49 -74 -64 -17 -16 -37 -28 -43 -28 -7 0
-20 -11 -29 -25 -9 -14 -22 -25 -30 -25 -7 0 -30 -14 -51 -30 -21 -16 -46 -30
-56 -30 -12 0 -19 -7 -19 -20 0 -16 7 -20 33 -20 20 0 39 -8 50 -20 9 -11 23
-20 31 -20 24 0 64 39 71 69 10 45 27 53 137 62 57 5 126 11 153 14 36 5 64 1
100 -13 43 -16 54 -26 75 -69 25 -50 25 -50 140 -55 63 -3 118 -4 123 -1 4 2
7 30 7 61 0 57 0 57 -98 94 -53 20 -121 42 -150 48 -58 13 -67 24 -54 60 7 18
3 34 -16 67 -25 46 -36 51 -61 29 -22 -19 -89 -37 -97 -25 -3 5 6 13 20 19 18
7 26 17 26 34 0 14 8 30 19 35 10 6 23 28 29 51 9 36 8 40 -9 40 -11 0 -22 -8
-26 -17z"/>
</g>
  <g clip-path="url(#above-ledge)">
    <g id="cream-details" transform="translate(0.000000,546.000000) scale(0.100000,-0.100000)" fill="#f6efdf" stroke="none">
<path d="M1960 5020 c-25 -4 -76 -22 -113 -40 -86 -39 -218 -167 -259 -250
-85 -173 -98 -227 -98 -435 0 -138 19 -297 44 -361 8 -22 19 -64 25 -94 5 -30
26 -89 45 -130 20 -41 36 -82 36 -92 0 -18 -36 -86 -55 -103 -6 -5 -29 -39
-50 -75 -21 -36 -49 -78 -62 -93 -13 -16 -23 -34 -23 -41 0 -7 -13 -30 -30
-51 -16 -21 -30 -41 -30 -46 0 -4 -22 -43 -48 -86 -26 -43 -54 -92 -61 -110
-7 -17 -21 -39 -32 -49 -10 -9 -19 -23 -19 -29 0 -7 -7 -18 -16 -25 -19 -17
-46 -79 -38 -91 10 -17 36 -9 41 12 3 11 16 25 30 30 13 5 26 17 30 26 3 10
18 32 32 49 14 17 35 46 46 65 11 18 30 49 42 69 12 19 29 49 39 65 9 17 27
43 40 58 13 16 24 34 24 41 0 8 9 24 19 37 10 14 27 38 37 56 54 90 222 321
292 402 106 122 309 314 373 353 17 10 40 27 52 38 11 11 25 20 31 20 6 0 19
9 31 20 25 25 121 90 134 90 4 0 15 7 22 17 8 9 37 27 66 39 28 13 54 27 57
33 4 5 23 15 44 22 20 6 49 20 63 30 14 10 38 21 55 25 16 3 40 13 54 22 14 9
52 24 85 33 33 10 87 27 120 37 150 49 362 90 575 113 134 15 621 4 680 -14
25 -8 77 -18 115 -21 39 -4 109 -21 156 -37 48 -16 94 -29 103 -29 21 0 192
-54 256 -80 25 -11 56 -22 70 -26 14 -4 37 -15 52 -26 15 -10 42 -24 60 -30
17 -6 48 -22 66 -35 19 -13 39 -23 44 -23 6 0 24 -10 41 -22 18 -13 44 -30 58
-38 53 -31 92 -56 127 -82 21 -15 54 -40 75 -55 140 -103 315 -265 399 -370
18 -23 58 -72 88 -109 64 -80 136 -186 204 -302 27 -46 53 -85 57 -88 5 -3 18
-24 29 -47 23 -47 52 -97 98 -172 17 -27 41 -68 53 -90 12 -22 30 -49 41 -60
10 -11 32 -36 48 -56 27 -33 28 -38 14 -50 -19 -16 -56 2 -204 98 -126 82
-302 209 -351 253 -9 8 -34 26 -54 40 -20 14 -56 40 -81 58 -24 17 -47 32 -51
32 -3 0 -20 10 -37 23 -17 13 -44 31 -61 39 -26 14 -82 44 -160 86 -107 57
-285 118 -386 131 -42 6 -88 15 -103 21 -41 15 -81 13 -228 -15 -197 -36 -278
-74 -452 -211 -58 -47 -176 -183 -223 -259 -53 -86 -101 -227 -120 -355 -4
-33 0 -40 41 -78 39 -36 52 -42 90 -42 51 0 63 9 206 146 106 103 147 135 233
186 107 62 224 98 323 98 46 0 95 -5 111 -11 15 -6 62 -17 104 -24 91 -16 172
-55 307 -147 64 -43 197 -160 327 -287 249 -241 385 -337 521 -366 72 -15 78
-19 88 -52 5 -15 1 -28 -12 -41 -11 -11 -54 -60 -95 -109 -127 -150 -241 -244
-400 -328 -117 -62 -201 -91 -365 -124 -124 -25 -303 -3 -424 52 -173 79 -266
153 -568 451 -130 129 -243 230 -286 259 -319 209 -684 149 -978 -161 -290
-307 -364 -375 -516 -474 -126 -81 -245 -120 -418 -135 -114 -10 -279 29 -442
105 -136 63 -298 190 -415 326 -33 38 -79 89 -103 113 -44 46 -66 87 -58 109
2 6 31 16 64 22 32 6 85 21 116 34 73 31 232 148 343 252 140 131 182 168 280
247 144 116 146 117 274 181 139 69 216 87 374 88 224 0 369 -72 609 -305 100
-97 112 -105 148 -105 39 0 130 39 144 62 4 7 7 28 6 48 -4 48 -61 246 -82
284 -10 17 -21 42 -25 56 -4 14 -16 36 -27 50 -10 14 -35 50 -55 80 -57 86
-89 121 -201 212 -12 9 -36 25 -54 34 -18 9 -40 23 -49 30 -14 13 -65 33 -179
70 -130 43 -396 35 -554 -15 -53 -17 -103 -31 -111 -31 -9 0 -37 -11 -63 -24
-26 -13 -62 -27 -79 -31 -18 -3 -36 -11 -39 -17 -4 -6 -30 -21 -58 -34 -28
-14 -69 -37 -92 -52 -22 -15 -56 -37 -75 -49 -47 -30 -93 -62 -139 -98 -21
-16 -61 -45 -87 -64 -26 -19 -53 -40 -58 -45 -19 -20 -90 -73 -120 -90 -16 -9
-50 -32 -75 -51 -25 -19 -56 -43 -70 -52 -14 -10 -27 -21 -30 -25 -11 -14 -84
-60 -143 -89 -34 -16 -84 -42 -112 -58 -27 -16 -93 -50 -145 -77 -82 -43 -95
-53 -98 -78 -2 -16 4 -36 14 -48 10 -10 27 -35 39 -53 77 -128 125 -185 206
-245 29 -21 44 -71 26 -82 -20 -13 -49 -9 -68 8 -11 10 -25 13 -39 9 -18 -6
-20 -12 -15 -38 4 -18 17 -41 29 -52 12 -11 56 -60 98 -110 134 -160 319 -324
493 -438 55 -37 111 -75 125 -85 14 -10 36 -25 50 -32 14 -7 34 -21 45 -31 11
-10 50 -29 85 -43 36 -13 115 -48 175 -76 61 -29 133 -61 160 -71 28 -10 93
-34 145 -54 138 -52 262 -93 336 -110 36 -8 77 -21 92 -28 15 -8 66 -19 113
-26 47 -6 111 -20 142 -31 31 -11 71 -20 88 -20 17 0 61 -6 98 -14 197 -43
298 -51 636 -50 290 0 337 3 390 19 33 10 98 21 145 25 114 11 290 38 318 50
13 6 54 15 92 21 100 15 437 128 595 199 422 189 514 239 720 395 22 17 56 44
75 61 19 17 62 55 95 84 33 29 107 101 165 159 222 224 235 242 211 280 -8 13
-15 13 -49 2 -47 -16 -62 -9 -62 27 0 20 20 47 74 104 41 42 89 101 108 130
19 29 49 75 67 103 33 52 38 92 11 106 -8 4 -42 20 -75 34 -85 37 -171 123
-191 193 -9 28 -19 52 -24 52 -5 0 -13 15 -20 34 -6 18 -20 42 -30 51 -11 10
-20 24 -20 30 0 7 -13 29 -30 50 -16 20 -32 46 -36 58 -4 12 -17 35 -30 50
-13 16 -24 34 -24 42 0 7 -7 19 -16 26 -9 7 -27 36 -40 64 -32 64 -71 131
-109 185 -73 103 -79 138 -37 212 16 29 33 73 37 98 3 25 17 77 30 115 13 39
31 115 40 170 9 55 21 125 27 155 15 82 4 253 -21 322 -12 32 -21 67 -21 79 0
27 -60 163 -94 214 -108 161 -264 236 -461 222 -92 -7 -233 -50 -294 -90 -20
-13 -61 -40 -91 -60 -84 -54 -239 -213 -292 -298 -9 -14 -30 -31 -46 -38 -25
-11 -35 -9 -77 13 -26 14 -55 26 -63 26 -8 0 -38 11 -66 24 -47 23 -75 31
-233 70 -233 58 -397 76 -687 76 -240 0 -358 -10 -491 -40 -44 -10 -100 -21
-125 -24 -25 -4 -59 -13 -75 -22 -16 -8 -63 -22 -104 -29 -41 -8 -83 -21 -95
-28 -29 -19 -120 -47 -151 -47 -19 0 -38 13 -68 48 -66 76 -231 235 -278 267
-133 93 -270 144 -399 150 -47 2 -105 0 -130 -5z m3871 -200 c165 -42 235
-135 301 -395 32 -130 32 -124 2 -370 -8 -66 -21 -146 -29 -178 -8 -32 -15
-71 -15 -85 0 -49 -12 -72 -38 -79 -20 -5 -29 0 -46 23 -54 74 -330 346 -399
394 -13 8 -32 23 -43 33 -39 36 -92 77 -98 77 -6 0 -82 49 -136 87 -13 10 -37
23 -52 30 -15 6 -40 27 -57 45 -29 33 -29 33 -9 68 27 44 100 134 147 180 79
77 174 133 281 166 94 28 95 28 191 4z m-3671 -5 c36 -9 76 -24 90 -34 14 -10
41 -26 60 -36 49 -25 235 -215 261 -267 22 -42 22 -42 -17 -76 -21 -18 -57
-42 -79 -53 -38 -18 -102 -56 -135 -79 -8 -5 -44 -30 -80 -55 -93 -64 -102
-72 -197 -160 -138 -128 -155 -146 -232 -233 -61 -69 -75 -81 -90 -72 -12 6
-21 26 -26 57 -3 26 -15 77 -26 112 -44 144 -48 450 -8 561 11 30 26 74 34 97
19 57 83 140 144 187 84 63 178 79 301 51z m1823 -2835 c72 -23 117 -56 152
-115 38 -65 36 -121 -4 -184 -29 -44 -94 -101 -116 -101 -5 0 -32 -16 -62 -37
-50 -34 -53 -39 -53 -78 0 -33 6 -47 33 -72 37 -36 123 -73 170 -73 63 0 156
41 211 95 70 69 106 91 117 74 5 -8 9 -26 9 -40 0 -42 -104 -141 -208 -198
-31 -17 -143 -26 -204 -17 -25 4 -69 22 -99 41 -65 43 -97 44 -164 6 -107 -60
-255 -61 -344 -2 -62 41 -140 119 -147 147 -8 30 1 53 22 61 11 4 33 -13 72
-55 123 -132 266 -147 380 -39 25 24 32 39 32 67 0 45 -13 57 -111 103 -121
57 -179 136 -179 242 0 155 258 246 493 175z M8395 2969 c-44 -5 -107 -17
-140 -28 -33 -11 -80 -25 -105 -31 -39 -10 -147 -55 -190 -81 -8 -5 -33 -18
-55 -30 -22 -12 -65 -41 -95 -65 -30 -24 -79 -62 -108 -86 -53 -41 -229 -244
-267 -308 -50 -84 -75 -127 -85 -150 -6 -14 -24 -52 -41 -86 -16 -33 -29 -67
-29 -74 0 -8 -9 -32 -19 -54 -11 -23 -33 -95 -51 -161 -17 -66 -45 -163 -60
-215 -16 -52 -34 -119 -40 -148 -7 -28 -16 -54 -20 -57 -4 -3 -13 -29 -20 -57
-7 -29 -23 -75 -35 -103 -13 -27 -26 -58 -29 -67 -3 -9 -17 -25 -32 -35 -24
-15 -48 -17 -198 -15 -153 2 -181 0 -266 -21 -91 -24 -205 -73 -242 -105 -15
-13 -21 -12 -50 13 -18 15 -42 36 -53 47 -29 28 -204 167 -226 178 -29 16 -49
1 -49 -36 0 -29 5 -36 43 -55 41 -21 120 -84 201 -161 33 -31 38 -41 32 -64
-4 -16 -16 -37 -27 -49 -51 -51 -71 -97 -76 -174 -5 -90 -14 -111 -56 -137
-30 -17 -52 -18 -307 -16 -390 5 -352 4 -2010 5 -828 1 -1589 0 -1691 -2 -157
-2 -187 0 -198 13 -7 8 -17 48 -22 88 -10 83 -17 108 -29 108 -5 0 -14 15 -20
34 -11 35 -51 92 -91 133 -30 29 -19 63 34 112 55 50 135 111 146 111 16 0 62
62 59 79 -3 11 -13 15 -36 13 -41 -3 -99 -44 -215 -152 -57 -53 -61 -55 -111
-54 -31 1 -67 10 -92 23 -23 12 -84 34 -135 49 -80 22 -113 27 -224 27 -98 0
-142 -4 -180 -17 -27 -10 -83 -25 -124 -33 -41 -9 -79 -19 -85 -24 -6 -4 -31
-15 -56 -23 -62 -21 -189 -105 -238 -158 -38 -42 -91 -156 -107 -229 -36 -172
-81 -225 -189 -221 -95 4 -86 27 -86 -210 l0 -210 4860 0 4860 0 0 218 0 217
-97 3 c-130 3 -155 12 -204 77 -26 34 -50 56 -67 59 -15 3 -85 4 -155 2 -125
-4 -129 -5 -158 -32 -16 -15 -31 -36 -35 -46 -13 -42 -130 -88 -149 -58 -3 5
-31 17 -61 27 -31 9 -58 23 -61 29 -9 25 28 74 67 90 22 9 40 20 40 25 0 5 8
12 18 16 36 13 204 144 272 212 40 40 128 144 151 177 8 12 33 49 56 82 183
267 271 556 260 855 -10 302 -110 531 -321 740 -171 169 -381 259 -650 277
-77 5 -143 9 -146 9 -3 -1 -41 -5 -85 -10z m328 -99 c221 -54 261 -70 418
-174 57 -38 171 -155 202 -209 49 -83 86 -163 116 -255 29 -88 31 -104 33
-267 2 -134 0 -177 -10 -187 -19 -18 -54 27 -83 106 -12 34 -40 87 -63 120
-23 32 -51 73 -62 90 -54 77 -263 272 -394 365 -56 41 -236 153 -255 160 -5 2
-36 16 -68 32 -32 16 -63 29 -70 29 -7 0 -36 11 -65 25 -31 14 -88 29 -140 35
-48 6 -98 15 -111 21 -23 10 -23 10 -5 30 34 37 75 51 223 74 185 29 232 30
334 5z m-1078 -500 c22 -5 89 -14 150 -20 150 -15 282 -57 461 -145 222 -110
389 -237 537 -409 99 -115 136 -171 197 -293 64 -130 106 -252 134 -392 24
-116 24 -116 3 -156 -11 -22 -36 -56 -57 -75 -90 -86 -139 -128 -195 -165 -95
-63 -144 -106 -147 -128 -4 -31 -68 -44 -116 -24 -43 18 -140 31 -227 31 -51
0 -71 -6 -127 -37 -36 -20 -75 -37 -86 -37 -31 0 -82 21 -82 33 2 53 234 165
344 167 15 0 46 -10 67 -22 32 -18 43 -20 64 -10 30 14 30 22 9 162 -16 111
-41 186 -106 315 -169 336 -587 642 -963 706 -66 11 -130 27 -142 35 -30 19
-30 61 1 122 13 26 27 58 31 72 27 93 115 239 158 262 38 20 40 20 92 8z
m-323 -919 c35 -16 98 -45 140 -65 99 -45 249 -155 313 -232 133 -156 176
-246 234 -487 28 -118 -2 -143 -139 -117 -30 6 -96 10 -149 11 -137 1 -151 10
-166 108 -10 61 -66 159 -124 219 -85 85 -174 136 -343 195 -27 9 -23 69 7
113 14 20 25 44 25 53 0 9 7 29 15 45 8 16 22 56 31 90 15 63 42 96 75 96 10
0 47 -13 81 -29z m-6042 -437 c79 -22 173 -58 226 -86 62 -33 156 -137 174
-193 7 -22 18 -46 24 -54 7 -9 11 -61 11 -135 0 -112 -2 -126 -28 -181 -34
-72 -47 -87 -114 -132 -71 -47 -110 -44 -137 12 -16 33 -19 60 -18 146 2 106
2 106 -25 118 -45 20 -53 -3 -53 -148 0 -172 -23 -214 -131 -242 -54 -15 -92
-7 -125 26 -23 23 -24 30 -24 159 0 74 -5 147 -10 162 -11 27 -11 27 -34 5
-22 -21 -24 -34 -31 -154 -4 -73 -11 -142 -16 -155 -13 -33 -72 -55 -125 -47
-61 9 -104 42 -136 105 -26 52 -28 62 -26 168 1 93 -1 116 -15 129 -15 15 -18
15 -36 -1 -19 -17 -20 -28 -15 -145 6 -142 -2 -169 -51 -183 -72 -19 -152 39
-202 147 -24 52 -27 71 -26 150 1 56 7 107 18 135 9 25 22 64 29 87 31 98 193
249 286 268 19 4 56 16 81 27 81 34 424 42 529 12z m5699 16 c52 -6 105 -17
117 -24 11 -8 47 -21 78 -29 30 -8 70 -27 87 -41 17 -14 35 -26 40 -26 5 0 37
-29 71 -64 51 -52 69 -80 93 -143 27 -71 30 -89 30 -193 -1 -108 -2 -119 -31
-175 -20 -40 -48 -74 -82 -102 -45 -37 -59 -43 -99 -43 -50 0 -83 20 -83 51 0
10 -5 21 -10 24 -7 4 -6 13 1 27 6 11 12 55 12 99 2 83 -7 104 -48 111 -19 3
-20 -3 -21 -107 -2 -137 -15 -190 -61 -232 -35 -33 -57 -39 -133 -33 -79 5
-89 26 -91 190 -1 92 -5 125 -17 136 -30 31 -37 10 -43 -132 -3 -79 -10 -149
-17 -161 -19 -34 -77 -48 -145 -33 -45 9 -63 19 -93 52 -37 41 -37 41 -30 177
6 113 4 139 -8 156 -12 16 -18 18 -33 9 -16 -10 -18 -25 -15 -132 5 -164 -10
-192 -98 -192 -27 0 -53 9 -82 29 -59 40 -80 65 -119 138 -31 62 -32 65 -33
202 -1 115 2 142 15 157 9 11 26 37 37 59 28 56 149 164 202 180 14 4 47 19
75 33 37 18 73 26 145 32 144 11 284 11 389 0z M4792 2675 c-48 -21 -97 -64
-137 -120 -31 -45 -35 -57 -35 -115 0 -60 3 -70 38 -118 48 -67 134 -114 207
-115 77 0 149 43 203 122 35 53 42 71 42 113 0 70 -52 162 -117 205 -59 39
-149 52 -201 28z m109 -89 c37 -15 83 -77 94 -124 8 -37 -9 -79 -47 -119 -56
-58 -120 -56 -187 6 -39 36 -41 41 -41 95 0 69 19 105 69 135 43 24 67 26 112
7z M2775 2671 c-79 -25 -139 -78 -171 -150 -28 -63 -30 -95 -8 -153 50 -128
208 -194 324 -134 97 49 153 157 132 252 -28 124 -172 220 -277 185z m141
-124 c31 -28 37 -41 42 -85 6 -63 -9 -101 -51 -133 -120 -89 -264 79 -175 204
25 35 50 46 106 46 34 1 49 -5 78 -32z"/>
</g>
  </g>
</svg>
