<?xml version="1.0" encoding="UTF-8"?>
<svg xmlns="http://www.w3.org/2000/svg" width="412" height="374" viewBox="0 0 412 374" role="img" aria-labelledby="title desc">
  <title id="title">BillBandit standing receipt raccoon</title>
  <desc id="desc">Clean vector recreation of the source PNG at exact source dimensions.</desc><g id="cream-shapes" transform="translate(0.000000,374.000000) scale(0.100000,-0.100000)" fill="#f6efdf" stroke="none">
<path d="M1025 3476 c-5 -3 -22 -7 -37 -10 -34 -8 -93 -58 -124 -107 -12 -20
-30 -64 -38 -97 -18 -67 -21 -244 -7 -301 46 -177 45 -165 18 -207 -13 -22
-56 -103 -96 -181 -78 -154 -140 -234 -217 -279 -24 -14 -44 -30 -44 -36 0
-16 67 -103 105 -137 19 -17 35 -33 35 -36 0 -3 -13 -5 -30 -5 -16 0 -30 -5
-30 -11 0 -21 122 -149 204 -215 260 -208 583 -324 990 -355 268 -20 575 25
834 122 59 21 123 47 142 57 149 74 320 202 431 320 59 63 62 67 39 70 -54 6
-53 11 18 87 87 93 92 109 44 134 -77 40 -147 126 -227 281 -41 80 -86 164
-99 188 -24 42 -24 42 -5 102 43 140 49 340 12 445 -25 69 -104 149 -162 165
-103 27 -239 -37 -358 -168 -41 -47 -41 -47 -85 -34 -231 69 -349 87 -513 78
-121 -6 -215 -23 -333 -61 -42 -14 -81 -25 -87 -25 -5 0 -47 36 -93 79 -49 48
-105 90 -137 106 -51 24 -127 39 -150 31z m151 -131 c54 -37 128 -120 122
-136 -2 -5 -31 -25 -65 -46 -88 -54 -203 -152 -262 -223 -45 -54 -51 -58 -60
-41 -31 58 -38 263 -11 352 40 137 157 176 276 94z m1632 18 c15 -11 40 -46
56 -79 28 -55 30 -66 29 -174 0 -76 -6 -134 -17 -172 l-17 -57 -112 113 c-70
70 -141 131 -189 161 -43 27 -78 54 -78 61 0 25 105 127 155 151 60 29 132 27
173 -4z m-796 -83 c262 -25 506 -132 681 -299 60 -56 152 -174 195 -249 68
-117 133 -244 128 -250 -3 -3 -56 34 -118 81 -196 149 -365 216 -510 203 -172
-15 -308 -111 -384 -269 -24 -50 -34 -86 -34 -118 0 -96 59 -92 164 10 116
112 210 144 333 116 116 -27 194 -77 358 -230 105 -98 189 -164 211 -165 6 0
17 -7 24 -15 10 -12 2 -25 -51 -78 -113 -113 -261 -176 -379 -162 -77 9 -175
45 -240 87 -30 20 -104 79 -165 133 -72 63 -135 109 -183 133 -68 33 -81 36
-161 36 -128 0 -195 -34 -356 -179 -99 -89 -136 -116 -211 -154 -81 -41 -151
-55 -249 -49 -110 7 -194 48 -292 143 -40 39 -73 75 -73 80 0 6 26 23 57 40
33 17 104 74 167 134 132 124 191 170 272 210 162 80 326 50 436 -80 69 -81
124 -100 154 -54 16 24 16 30 -1 91 -57 210 -272 363 -479 339 -137 -15 -270
-77 -433 -201 -90 -68 -113 -82 -113 -69 0 20 151 280 198 342 176 231 415
379 688 427 147 26 223 29 366 16z m-32 -1245 c78 -40 60 -137 -35 -190 -78
-42 -46 -109 51 -107 47 0 87 20 116 56 9 11 20 17 25 13 15 -15 -22 -62 -67
-85 -36 -19 -55 -22 -94 -18 -27 3 -59 12 -72 21 -21 14 -27 14 -46 1 -64 -42
-172 -24 -223 36 -34 40 -22 55 18 22 39 -33 71 -45 119 -46 87 -1 118 67 48
104 -57 31 -90 73 -90 116 0 45 7 56 45 76 40 21 166 21 205 1z M2315 2375
c-42 -22 -55 -43 -55 -86 0 -57 36 -94 90 -94 34 0 47 6 66 28 67 78 -13 198
-101 152z m65 -35 c11 -11 20 -30 20 -42 0 -22 -36 -68 -54 -68 -19 0 -56 44
-56 67 0 26 32 63 55 63 8 0 24 -9 35 -20z M1348 2363 c-28 -33 -39 -64 -33
-92 16 -74 114 -103 161 -48 33 38 33 95 -1 131 -19 20 -33 26 -68 26 -29 0
-49 -6 -59 -17z m114 -34 c29 -39 3 -99 -42 -99 -46 0 -62 77 -24 115 22 21
42 16 66 -16z M3430 1630 c-246 -46 -451 -273 -479 -530 -3 -31 -10 -53 -16
-50 -5 2 -19 36 -31 75 -30 104 -79 219 -136 322 -51 93 -65 107 -87 94 -9 -6
1 -34 38 -102 101 -192 163 -377 176 -534 15 -175 -61 -328 -183 -370 -70 -23
-166 -19 -237 11 -33 13 -95 31 -138 39 -80 14 -100 24 -118 57 -8 14 -4 23
16 42 14 13 39 26 55 30 17 3 30 10 30 16 0 16 -23 12 -76 -15 -45 -23 -50
-24 -61 -8 -7 9 -13 23 -13 31 0 23 55 70 98 83 23 7 42 16 42 21 0 15 -44 8
-83 -12 -47 -25 -47 -25 -47 5 0 34 52 90 102 110 54 21 157 21 217 0 43 -16
48 -15 86 2 40 18 40 18 -5 21 -24 2 -47 8 -51 13 -3 6 -7 31 -7 57 -4 116
-30 139 -34 30 l-3 -71 -96 -1 c-67 -1 -101 -5 -113 -15 -27 -23 -35 -2 -38
103 l-3 98 -375 0 c-206 -1 -378 -1 -382 -2 -5 0 -8 -47 -8 -105 0 -79 -3
-105 -13 -105 -7 0 -18 5 -25 12 -6 6 -50 14 -97 16 l-85 5 0 68 c0 38 -4 69
-9 69 -10 0 -31 -85 -31 -126 0 -26 -30 -44 -76 -44 -13 0 -24 -4 -24 -10 0
-16 68 -23 115 -11 71 18 170 14 214 -9 48 -24 91 -74 91 -106 0 -27 -11 -30
-43 -10 -30 19 -87 30 -87 18 0 -6 16 -16 35 -22 55 -18 95 -57 95 -91 0 -39
-17 -44 -65 -19 -41 21 -85 27 -85 11 0 -5 13 -12 30 -16 34 -8 80 -41 80 -59
0 -26 -39 -47 -114 -61 -42 -8 -93 -23 -114 -34 -123 -62 -257 -39 -346 59
-64 71 -80 119 -80 240 0 154 44 288 175 537 38 73 69 137 69 143 0 5 -8 10
-17 10 -23 0 -68 -67 -132 -196 -175 -353 -196 -577 -70 -754 16 -23 16 -30 4
-90 -21 -96 -28 -208 -17 -273 6 -40 6 -60 -2 -65 -6 -5 -87 -10 -181 -11
-163 -3 -201 -9 -179 -31 7 -7 528 -9 1544 -8 1453 3 1535 4 1538 20 3 16 -7
18 -107 18 -60 0 -112 4 -115 8 -3 5 30 23 72 40 366 150 627 493 649 852 9
143 -40 296 -128 401 -51 61 -156 131 -236 158 -70 23 -206 34 -273 21z m226
-64 c166 -44 289 -167 339 -340 20 -67 22 -244 4 -278 -11 -20 -12 -20 -24 14
-33 96 -131 221 -238 301 -143 108 -274 155 -451 164 l-120 6 45 39 c48 42
127 83 186 97 59 14 202 12 259 -3z m-351 -437 c28 -6 93 -31 145 -56 80 -38
108 -58 175 -127 108 -109 175 -249 175 -363 0 -53 -1 -54 -65 -117 -35 -34
-91 -81 -123 -104 l-59 -41 -11 84 c-20 154 -96 288 -217 387 -97 79 -221 128
-323 128 -32 0 -43 4 -39 13 2 7 10 39 16 72 7 33 14 70 17 82 11 56 153 75
309 42z m-1205 -94 c0 -13 -34 -15 -250 -15 -216 0 -250 2 -250 15 0 13 34 15
250 15 216 0 250 -2 250 -15z m-135 -130 c0 -6 -69 -11 -182 -13 -160 -2 -183
0 -183 13 0 13 23 15 183 13 113 -2 182 -7 182 -13z m130 0 c0 -12 -40 -19
-61 -11 -9 3 -12 11 -9 16 8 14 70 9 70 -5z m-141 -145 c7 -7 -55 -10 -172
-10 -206 0 -254 17 -64 23 140 4 223 0 236 -13z m134 3 c2 -9 -7 -13 -27 -13
-30 0 -39 9 -24 24 11 10 46 3 51 -11z m988 -106 c95 -103 151 -258 140 -380
-9 -97 -14 -103 -96 -117 -38 -6 -75 -10 -82 -8 -8 3 -12 53 -13 169 -2 147
-6 176 -33 279 -16 63 -33 123 -37 133 -14 34 67 -16 121 -76z m-139 -29 c28
-107 36 -162 40 -288 3 -84 1 -145 -6 -162 -11 -28 -11 -28 -1030 -28 -876 0
-1020 2 -1031 14 -22 27 -16 315 8 353 6 9 22 5 62 -15 47 -23 67 -27 140 -26
74 0 94 4 150 31 36 17 79 33 95 36 115 21 104 35 107 -135 l3 -153 383 0 383
0 4 149 c3 82 6 150 8 152 9 9 137 -21 182 -42 177 -84 364 -37 451 112 14 24
29 44 33 44 4 0 12 -19 18 -42z m-1007 -13 c0 -13 -25 -15 -165 -15 -151 0
-178 4 -158 23 3 4 78 7 165 7 134 0 158 -2 158 -15z m158 3 c-7 -20 -48 -23
-48 -4 0 11 9 16 26 16 16 0 24 -5 22 -12z m0 -152 c24 -13 24 -13 -1 -29 -21
-13 -29 -14 -51 -4 -32 15 -33 25 -3 37 29 11 28 11 55 -4z m-248 -11 c0 -12
-19 -15 -114 -15 -105 0 -136 6 -119 24 3 3 57 6 120 6 94 0 113 -3 113 -15z
M1441 1311 c-28 -28 -38 -71 -20 -82 17 -10 710 -12 724 -1 6 4 17 20 25 36
24 47 42 45 34 -4 -7 -41 -7 -42 22 -38 25 3 29 7 27 33 -1 19 -12 38 -29 52
-27 21 -33 22 -396 23 -355 1 -368 0 -387 -19z"/>
</g>
  <g id="navy-shapes" transform="translate(0.000000,374.000000) scale(0.100000,-0.100000)" fill="#0b1f68" stroke="none">
<path d="M1005 3366 c-73 -33 -115 -124 -115 -250 0 -43 4 -95 10 -115 5 -20
12 -54 15 -76 6 -35 8 -37 18 -20 32 59 211 218 307 273 25 14 47 27 49 29 6
4 -45 68 -82 104 -38 36 -108 69 -145 69 -15 -1 -40 -7 -57 -14z m-80 -325
c-9 -16 -25 -3 -18 15 4 10 9 12 15 6 6 -6 7 -15 3 -21z M2633 3354 c-49 -23
-140 -111 -128 -122 3 -3 14 4 25 16 25 27 30 27 23 2 -4 -14 1 -21 21 -26 25
-6 37 -24 15 -24 -6 0 -16 -6 -24 -13 -11 -12 -2 -22 56 -66 38 -28 75 -49 81
-45 7 4 8 3 4 -4 -4 -6 28 -46 73 -93 79 -82 79 -82 88 -43 4 21 8 102 8 179
0 140 0 140 -32 191 -51 80 -114 95 -210 48z m237 -198 c0 -16 -7 -26 -21 -29
-15 -4 -19 -2 -15 10 3 8 6 21 6 29 0 8 7 14 15 14 9 0 15 -9 15 -24z M2180
3331 c8 -5 33 -12 55 -16 27 -4 35 -3 25 4 -8 5 -33 12 -55 16 -27 4 -35 3
-25 -4z M2293 3203 c9 -2 17 -13 17 -24 0 -10 7 -19 15 -19 8 0 15 6 15 13 0
9 2 9 8 0 4 -7 13 -9 20 -4 16 10 -45 42 -75 40 -16 -1 -16 -2 0 -6z M2983
3130 c0 -41 2 -58 4 -37 2 20 2 54 0 75 -2 20 -4 3 -4 -38z M1180 3050 c-8 -5
-10 -10 -5 -10 6 0 17 5 25 10 8 5 11 10 5 10 -5 0 -17 -5 -25 -10z M1136
3014 c-23 -23 -20 -30 4 -9 11 10 20 20 20 22 0 7 -9 2 -24 -13z M2630 3000
c0 -5 7 -10 15 -10 8 0 15 -4 15 -10 0 -5 10 -15 23 -21 22 -12 22 -12 2 10
-25 29 -55 46 -55 31z M2770 2876 c0 -4 5 -16 10 -27 11 -20 -6 -49 -28 -49
-5 0 -12 -9 -15 -20 -7 -28 -53 -43 -90 -30 -17 5 -33 8 -35 5 -7 -6 -11 -4
79 -48 78 -38 91 -42 87 -29 -5 16 24 52 42 52 22 0 35 32 21 57 -13 25 -71
97 -71 89z M2408 2783 c6 -2 18 -2 25 0 6 3 1 5 -13 5 -14 0 -19 -2 -12 -5z
M957 2766 c-9 -10 -17 -24 -17 -32 0 -21 25 -44 46 -44 14 0 13 -3 -6 -20 -34
-29 -23 -25 84 30 92 47 109 68 28 35 -24 -10 -38 -12 -40 -5 -2 5 -14 10 -27
10 -12 0 -29 10 -37 21 -13 20 -15 21 -31 5z M2313 2773 c9 -2 23 -2 30 0 6 3
-1 5 -18 5 -16 0 -22 -2 -12 -5z M1500 2764 c8 -4 17 -10 20 -13 10 -12 72
-43 76 -38 9 8 -51 45 -82 51 -16 4 -22 3 -14 0z M812 2578 c-13 -27 -22 -52
-19 -54 2 -2 23 11 48 29 38 28 41 32 22 35 -12 2 -23 12 -25 22 -2 12 -11 2
-26 -32z M1701 2615 c8 -11 17 -22 20 -25 3 -3 11 -14 17 -25 6 -11 12 -14 12
-8 0 7 -14 27 -31 45 -18 18 -25 24 -18 13z M2910 2573 c1 -13 80 -65 80 -54
0 6 -5 11 -10 11 -6 0 -20 11 -32 25 -21 25 -38 32 -38 18z M2006 2561 c-4 -7
-5 -15 -2 -18 9 -9 19 4 14 18 -4 11 -6 11 -12 0z M2350 2500 c-56 -10 -95
-25 -131 -51 -29 -20 -29 -20 1 -52 16 -18 30 -38 30 -45 0 -8 15 -1 37 17 43
35 81 39 120 14 15 -10 24 -12 19 -5 -4 6 -20 19 -37 27 -20 11 -29 23 -29 40
0 17 -6 25 -17 26 -10 1 1 5 25 11 23 5 42 13 42 19 0 5 -3 8 -7 8 -5 -1 -28
-5 -53 -9z M1295 2490 c-14 -6 -5 -9 35 -9 30 0 62 4 70 9 19 12 -76 12 -105
0z M3100 2475 c0 -13 34 -65 42 -65 10 0 -18 56 -32 65 -5 3 -10 3 -10 0z
M1547 2435 c15 -13 25 -25 21 -25 -4 0 -13 7 -21 15 -23 23 -91 27 -137 9 -46
-19 -109 -86 -117 -126 -5 -23 -8 -25 -24 -15 -16 10 -23 7 -46 -16 -34 -34
-26 -51 40 -87 37 -20 48 -32 53 -57 4 -19 14 -35 24 -38 11 -4 16 -12 13 -24
-3 -11 6 -29 21 -45 14 -15 27 -33 29 -39 3 -8 13 -4 28 11 22 21 22 22 4 17
-15 -5 -17 -4 -6 3 8 6 19 8 26 6 6 -3 20 5 30 16 16 18 17 23 5 30 -8 6 -25
10 -37 10 -14 0 -24 9 -31 28 -5 15 -13 34 -17 44 -4 11 -1 18 12 21 13 3 11
5 -7 6 -53 2 -109 59 -110 109 -1 59 71 121 125 108 15 -4 40 -20 56 -36 16
-16 29 -23 29 -17 0 12 29 35 60 48 8 4 26 0 39 -8 24 -15 24 -15 5 10 -19 25
-74 67 -88 67 -4 0 6 -11 21 -25z M1800 2432 c0 -7 4 -20 9 -30 6 -9 12 -29
16 -44 4 -21 11 -28 28 -27 20 1 45 -6 112 -32 61 -23 61 -23 18 -27 -45 -3
-60 -22 -18 -22 13 0 50 -13 80 -30 66 -36 65 -36 65 -7 0 13 5 28 12 35 8 8
9 18 0 36 -10 23 -15 24 -66 20 -81 -7 -96 4 -97 74 0 37 -3 50 -8 38 -5 -14
-10 -16 -15 -8 -9 15 -93 16 -102 1 -4 -8 -12 -3 -20 12 -7 13 -13 18 -14 11z
M2615 2420 c3 -5 -1 -10 -9 -10 -8 0 -20 -9 -27 -21 -6 -11 -31 -30 -55 -40
-24 -11 -44 -25 -45 -32 0 -7 -5 -2 -11 10 -6 12 -16 24 -23 27 -10 4 -10 -1
1 -22 18 -34 18 -44 -2 -85 -28 -60 -96 -84 -142 -51 -20 14 -22 14 -22 -4 0
-27 -55 -76 -77 -68 -10 3 10 -21 45 -53 63 -60 63 -60 97 -43 18 9 29 19 24
20 -23 9 79 124 127 142 19 8 34 19 34 24 1 16 58 76 73 76 7 0 17 4 22 9 6 5
26 14 47 20 54 18 54 35 1 76 -45 34 -71 45 -58 25z M1065 2371 c-59 -48 -126
-115 -80 -81 11 8 26 21 34 28 7 7 16 11 20 10 3 -2 23 -12 44 -23 37 -19 38
-19 57 1 17 17 18 25 9 67 -6 26 -14 47 -17 47 -4 -1 -34 -22 -67 -49z M1396
2328 c-21 -30 -20 -51 3 -72 40 -36 87 23 57 69 -20 31 -40 32 -60 3z M2323
2342 c-24 -15 -26 -59 -4 -81 40 -40 89 15 57 64 -17 26 -32 30 -53 17z M1677
2314 c4 -11 52 -29 58 -22 1 2 -12 10 -30 19 -23 11 -32 12 -28 3z M1660 2273
c-67 -10 -67 -10 -66 -58 1 -26 6 -47 13 -50 7 -2 33 9 56 25 24 16 57 34 72
40 29 11 29 11 -1 30 -16 11 -33 19 -39 19 -5 -1 -21 -3 -35 -6z M858 2182
c-53 -42 -60 -55 -23 -46 14 3 25 2 25 -4 0 -5 6 -10 13 -9 43 1 56 -5 69 -33
10 -22 20 -30 39 -30 15 0 32 -7 39 -15 8 -9 17 -12 22 -7 24 24 -42 72 -69
51 -19 -16 -17 25 2 55 15 22 14 24 -5 29 -11 3 -20 13 -20 22 0 12 -6 16 -20
12 -11 -3 -18 -1 -14 4 11 19 -13 7 -58 -29z M2843 2213 c-7 -2 -13 -11 -13
-18 0 -8 -9 -16 -20 -20 -20 -6 -86 -112 -76 -122 3 -3 22 11 43 32 37 37 37
37 55 15 17 -21 20 -21 36 -8 9 9 28 19 42 23 52 15 52 25 0 66 -27 21 -51 39
-52 38 -2 0 -9 -3 -15 -6z M2969 2059 c-8 -5 -29 -9 -46 -9 -23 0 -33 -5 -33
-15 0 -8 -6 -15 -12 -15 -7 0 -3 -7 9 -15 12 -8 23 -25 25 -38 3 -20 8 -17 61
32 31 30 57 57 57 60 0 10 -46 10 -61 0z M740 2053 c0 -9 89 -92 112 -104 16
-9 18 -8 9 8 -5 10 -15 33 -22 51 -12 33 -41 52 -80 52 -10 0 -19 -3 -19 -7z
M2636 2042 c-3 -6 -1 -14 5 -17 15 -10 25 3 12 16 -7 7 -13 7 -17 1z M1795
2033 c-36 -10 -55 -34 -55 -73 0 -44 28 -78 89 -109 34 -18 41 -26 41 -51 0
-80 -123 -103 -205 -38 -18 14 -26 17 -23 7 2 -8 24 -24 48 -37 51 -27 121
-25 164 3 22 15 27 15 62 -4 21 -12 54 -21 73 -21 39 0 117 34 125 55 3 8 -10
4 -31 -10 -49 -34 -92 -40 -139 -20 -44 18 -54 30 -54 67 0 22 9 32 48 53 80
43 105 110 57 155 -21 20 -37 24 -102 26 -43 2 -87 0 -98 -3z M2570 2016 c0
-7 -7 -19 -15 -26 -14 -12 -15 -66 -1 -88 3 -5 -9 -7 -27 -5 -27 2 -26 1 8 -8
22 -5 57 -15 77 -21 40 -12 126 -4 142 12 7 7 4 10 -7 10 -9 0 -17 4 -17 10 0
14 -72 79 -89 80 -7 0 -22 11 -33 25 -22 28 -38 32 -38 11z M1090 1995 c-17
-21 -22 -87 -6 -97 7 -5 4 -8 -7 -8 -11 0 -17 -5 -14 -12 8 -25 195 1 204 29
4 11 -68 53 -90 53 -26 0 -66 22 -69 38 -3 13 -5 12 -18 -3z M2485 1930 c3 -5
16 -10 28 -10 18 0 19 2 7 10 -20 13 -43 13 -35 0z M3096 1914 c-5 -14 -4 -15
9 -4 17 14 19 20 6 20 -5 0 -12 -7 -15 -16z M3513 1653 c15 -2 37 -2 50 0 12
2 0 4 -28 4 -27 0 -38 -2 -22 -4z M1078 1619 c-10 -10 -18 -23 -18 -28 0 -5
-7 -14 -16 -21 -8 -8 -20 -23 -26 -34 -10 -20 -9 -19 11 2 25 26 31 27 55 9
17 -12 15 -19 -31 -103 -50 -90 -133 -258 -133 -270 0 -3 -6 -20 -14 -37 -30
-70 -46 -126 -57 -209 -26 -178 30 -312 156 -374 49 -24 64 -26 133 -22 56 3
91 12 127 30 28 14 74 28 104 32 63 8 111 30 111 51 0 15 -26 33 -75 51 -16 6
-30 17 -30 25 0 23 59 23 96 0 44 -27 49 -26 49 4 0 36 -40 72 -95 87 -32 9
-45 17 -43 28 5 23 52 24 97 0 44 -22 50 -16 26 30 -34 66 -125 91 -258 70
-89 -13 -152 -5 -152 21 0 9 17 17 51 22 52 8 52 8 59 72 12 115 55 130 55 19
0 -64 0 -64 65 -64 36 0 81 -6 100 -14 34 -15 34 -15 37 92 l3 107 393 3 392
2 0 -106 c0 -106 0 -106 23 -99 12 5 63 9 112 11 90 3 90 3 93 72 2 50 7 72
17 76 21 8 27 -8 34 -93 6 -76 6 -76 51 -81 59 -7 59 -29 1 -46 -25 -7 -48
-11 -52 -9 -4 3 -39 12 -79 20 -108 23 -196 -4 -241 -72 -30 -45 -24 -58 15
-34 33 21 90 28 100 13 8 -14 -8 -29 -39 -36 -16 -4 -45 -17 -62 -28 -27 -16
-33 -26 -33 -54 0 -39 5 -41 40 -14 25 19 110 29 110 12 0 -15 -24 -32 -46
-32 -12 0 -33 -9 -48 -21 -48 -38 -7 -71 109 -88 33 -5 87 -21 120 -35 66 -28
159 -34 228 -15 82 22 156 122 177 239 20 110 -20 334 -84 475 -60 130 -92
195 -112 227 -13 21 -24 44 -24 52 0 24 39 30 62 9 15 -13 11 -3 -12 37 -18
30 -33 56 -35 58 -1 1 -42 -13 -91 -31 -367 -139 -794 -161 -1199 -62 -117 29
-210 59 -254 81 -32 17 -32 17 -53 -7z m1154 -304 c27 -25 45 -76 33 -95 -3
-5 -22 -10 -42 -10 -36 0 -36 0 -30 41 6 46 -2 44 -19 -4 -11 -32 -11 -32
-388 -35 -329 -2 -377 0 -382 13 -9 22 2 58 27 88 20 27 20 27 397 27 377 0
377 0 404 -25z M3380 1551 c-68 -22 -104 -41 -152 -79 -37 -29 -37 -29 70 -34
178 -9 323 -66 471 -188 87 -72 157 -158 194 -238 19 -40 26 -49 30 -35 37
124 -7 313 -100 430 -44 56 -141 118 -220 143 -83 26 -215 26 -293 1z M3083
1126 c-35 -7 -65 -15 -68 -18 -5 -5 -17 -59 -32 -144 -5 -31 -5 -31 61 -38
151 -15 301 -110 412 -261 54 -73 91 -176 96 -268 1 -31 5 -57 9 -57 22 0 210
164 229 200 14 26 -15 162 -49 230 -78 158 -186 253 -376 331 -30 13 -166 39
-195 38 -14 -1 -53 -6 -87 -13z m353 -77 c9 -15 -33 -10 -45 5 -9 11 -6 12 14
8 14 -2 28 -8 31 -13z M1692 903 c48 -2 129 -2 180 0 51 1 12 3 -87 3 -99 0
-141 -2 -93 -3z M1783 753 c15 -2 39 -2 55 0 15 2 2 4 -28 4 -30 0 -43 -2 -27
-4z M2975 703 c4 -15 11 -39 15 -53 11 -29 27 -109 41 -200 6 -36 9 -113 7
-173 -3 -107 -3 -107 48 -107 28 0 65 5 81 11 28 9 31 15 37 70 8 65 -2 176
-15 185 -5 3 -9 12 -9 21 0 57 -112 217 -179 256 -32 19 -32 19 -26 -10z
M2898 622 c-92 -155 -292 -204 -470 -116 -46 23 -155 47 -171 37 -5 -3 -8 -67
-7 -142 1 -75 1 -142 1 -148 -1 -10 -86 -13 -391 -13 -390 0 -390 0 -395 23
-3 12 -6 80 -8 152 -2 129 -2 129 -52 126 -29 -1 -68 -12 -94 -27 -120 -66
-245 -71 -358 -12 -13 6 -25 9 -28 7 -10 -10 -21 -197 -15 -269 l5 -75 1018
-3 c1017 -3 1017 -3 1027 23 19 49 9 249 -20 390 -15 74 -21 82 -42 47z M2045
450 c-3 -5 3 -10 14 -10 12 0 21 5 21 10 0 6 -6 10 -14 10 -8 0 -18 -4 -21
-10z M832 250 c0 -19 2 -27 5 -17 2 9 2 25 0 35 -3 9 -5 1 -5 -18z M830 200
c0 -6 -10 -15 -22 -20 -22 -8 -22 -9 5 -9 21 -1 27 4 27 19 0 11 -2 20 -5 20
-3 0 -5 -5 -5 -10z M3510 180 c-23 -7 -23 -8 12 -15 46 -9 68 -3 37 11 -13 6
-35 7 -49 4z"/>
</g>
</svg>
