<?xml version="1.0" encoding="UTF-8"?>
<svg xmlns="http://www.w3.org/2000/svg" width="1254" height="1254" viewBox="0 0 1254 1254" role="img" aria-labelledby="title desc">
  <title id="title">BillBandit receipt mascot vector</title>
  <desc id="desc">A two-color flat vector illustration matching the provided 1254 by 1254 source image.</desc>
  <g transform="translate(0 1254) scale(0.1 -0.1)">
    <path fill="#fff3d8" d="M8127 11283 c-3 -3 -43 -12 -88 -19 -46 -8 -88 -19 -93 -23 -6 -5
-30 -14 -53 -20 -36 -10 -106 -50 -168 -97 -11 -8 -36 -27 -56 -42 -20 -15
-51 -38 -70 -52 -19 -14 -48 -40 -66 -57 -17 -18 -34 -33 -38 -33 -12 0 -135
-133 -135 -147 0 -7 -4 -13 -9 -13 -13 0 -70 -61 -76 -81 -9 -27 -51 -44 -77
-32 -13 6 -50 21 -83 33 -33 12 -69 26 -80 30 -49 20 -113 39 -150 45 -22 4
-67 16 -100 27 -66 23 -213 58 -260 62 -16 2 -71 10 -120 19 -149 27 -402 40
-610 33 -278 -10 -329 -14 -440 -36 -114 -21 -200 -34 -200 -30 0 2 -16 -5
-35 -15 -19 -10 -35 -17 -35 -15 0 2 -25 0 -57 -4 -35 -5 -58 -13 -62 -22 -3
-8 -17 -14 -31 -14 -23 0 -176 -47 -230 -71 -43 -18 -126 -49 -134 -49 -11 0
-77 65 -146 145 -27 31 -62 69 -77 85 -16 15 -28 33 -28 39 0 6 -5 11 -11 11
-6 0 -23 11 -37 25 -115 106 -149 135 -164 135 -10 0 -22 8 -27 18 -5 9 -31
28 -58 42 -26 13 -64 34 -83 47 -19 13 -43 23 -53 23 -11 0 -31 6 -45 14 -66
35 -244 44 -362 18 -51 -11 -110 -32 -125 -44 -5 -4 -30 -24 -55 -43 -67 -53
-100 -84 -100 -93 0 -5 -9 -17 -20 -27 -10 -9 -29 -36 -40 -59 -12 -22 -27
-45 -33 -51 -16 -13 -43 -88 -73 -200 -24 -93 -26 -99 -45 -247 -14 -116 4
-456 30 -560 11 -40 22 -93 26 -118 6 -43 12 -65 40 -155 7 -22 21 -67 31
-100 10 -33 22 -64 26 -69 15 -19 8 -42 -37 -108 -25 -37 -45 -72 -45 -78 0
-5 -16 -30 -35 -56 -19 -25 -35 -51 -35 -58 0 -7 -18 -42 -40 -79 -22 -36 -40
-73 -40 -81 0 -9 -7 -16 -15 -16 -9 0 -15 -9 -15 -23 0 -12 -11 -38 -23 -57
-13 -19 -32 -57 -42 -85 -10 -27 -26 -59 -35 -70 -9 -11 -23 -35 -30 -52 -7
-18 -16 -33 -21 -33 -5 0 -9 -6 -9 -14 0 -29 -137 -271 -170 -301 -15 -13 -41
-42 -63 -68 -78 -94 -218 -205 -277 -220 -14 -4 -40 -16 -57 -27 -47 -28 -44
-64 12 -149 25 -38 52 -74 60 -81 8 -7 15 -18 15 -24 0 -13 65 -86 77 -86 5 0
17 -16 27 -35 11 -19 23 -35 27 -35 5 0 18 -10 31 -23 13 -12 38 -34 57 -49
30 -23 33 -29 22 -42 -9 -11 -30 -16 -68 -16 -97 0 -119 -33 -60 -92 18 -19
36 -40 39 -48 9 -23 194 -224 294 -320 82 -78 179 -162 272 -233 20 -16 41
-35 45 -43 4 -8 12 -14 18 -14 14 0 157 -96 194 -130 17 -16 55 -41 85 -56 30
-15 59 -34 63 -41 4 -7 13 -13 19 -13 6 0 19 -6 27 -14 23 -21 213 -116 231
-116 8 0 31 -10 50 -22 67 -42 84 -49 111 -43 15 4 36 2 46 -3 44 -24 115 -53
198 -82 50 -17 99 -35 110 -39 67 -27 156 -52 165 -46 6 4 19 1 28 -7 17 -14
145 -58 170 -58 7 0 41 -9 75 -19 34 -11 94 -25 132 -32 39 -7 75 -16 80 -20
6 -4 46 -12 90 -19 44 -6 103 -15 130 -20 107 -19 173 -29 260 -39 50 -6 135
-15 190 -22 119 -13 742 -7 885 9 203 24 268 32 352 46 142 23 217 37 323 63
55 14 117 27 138 30 20 3 40 9 43 14 3 5 17 9 31 9 15 0 52 9 82 19 53 18 148
48 319 101 40 13 75 27 78 31 3 5 15 9 28 9 12 0 26 4 32 8 5 5 46 24 91 41
60 24 86 30 99 23 18 -10 26 -8 79 21 17 9 46 24 65 32 84 37 160 78 160 87 0
5 26 21 58 35 31 14 59 29 62 34 3 4 22 15 43 24 20 8 37 20 37 25 0 5 15 17
33 25 17 8 52 28 77 45 25 16 52 33 60 36 8 4 23 14 33 22 9 8 17 12 17 8 0
-4 11 3 25 16 13 13 38 34 56 48 17 14 52 42 76 63 24 20 48 37 54 37 5 0 9 6
9 14 0 8 9 17 19 21 11 3 22 12 25 20 3 8 10 15 16 15 6 0 28 17 49 38 20 20
71 69 113 108 41 39 92 93 114 120 21 27 42 50 46 52 4 2 33 36 65 75 32 40
64 78 71 86 7 7 12 28 10 45 l-3 31 -72 0 c-111 0 -112 10 -15 104 45 43 82
84 82 90 0 7 13 17 29 22 16 6 32 20 35 32 3 12 26 43 50 69 25 26 48 57 51
69 4 11 16 30 26 40 12 12 19 33 19 58 0 37 -2 39 -63 70 -35 18 -75 42 -90
54 -14 12 -49 38 -78 57 -28 19 -61 46 -73 59 -11 12 -31 34 -43 48 -13 13
-23 29 -23 35 0 6 -15 25 -32 43 -18 17 -46 51 -62 76 -16 24 -37 56 -48 71
-10 15 -18 36 -18 47 0 11 -9 28 -19 38 -10 10 -38 61 -61 113 -23 52 -48 100
-55 106 -8 5 -17 23 -21 40 -4 16 -29 68 -54 116 -26 47 -53 101 -59 119 -6
18 -20 38 -31 46 -11 8 -20 21 -20 28 0 14 -54 108 -127 222 -18 29 -33 55
-33 59 0 3 6 20 14 37 23 54 34 88 61 202 15 61 30 115 35 120 7 10 34 171 46
275 3 30 6 156 6 280 1 194 -2 238 -21 317 -11 50 -26 104 -32 120 -6 15 -15
37 -19 48 -5 11 -11 33 -15 48 -3 16 -10 34 -16 40 -14 18 -52 78 -69 110 -8
16 -46 58 -85 95 -68 64 -111 88 -210 115 -62 16 -199 30 -208 20z m-4411
-224 c61 -11 114 -33 209 -83 11 -6 36 -23 56 -38 20 -16 38 -28 41 -28 17 0
224 -223 259 -279 9 -14 23 -32 32 -40 10 -7 17 -28 17 -46 0 -30 -5 -36 -62
-65 -76 -40 -99 -52 -112 -63 -6 -5 -23 -16 -37 -25 -75 -48 -154 -105 -157
-113 -2 -5 -9 -9 -16 -9 -6 0 -27 -16 -46 -35 -19 -19 -39 -35 -43 -35 -8 0
-190 -161 -232 -205 -64 -67 -154 -166 -180 -199 -16 -20 -42 -50 -57 -66 -14
-15 -34 -40 -43 -54 -22 -33 -39 -33 -55 2 -14 30 -27 83 -64 262 -33 158 -36
192 -36 391 0 192 11 311 31 333 5 6 9 21 9 34 0 33 87 205 127 251 17 21 58
52 91 69 95 51 161 61 268 41z m4587 -13 c83 -36 135 -79 181 -148 56 -86 88
-169 108 -278 25 -144 16 -615 -13 -645 -5 -5 -9 -24 -9 -42 0 -17 -7 -58 -16
-90 -9 -32 -18 -69 -21 -83 -9 -45 -43 -110 -57 -110 -8 0 -32 24 -53 53 -107
147 -412 449 -553 547 -19 13 -44 33 -55 43 -27 26 -141 101 -195 129 -14 7
-29 17 -35 21 -5 5 -35 23 -65 41 -33 19 -56 40 -58 52 -2 11 11 38 28 60 17
21 36 46 43 54 26 34 113 135 127 150 71 70 225 190 246 190 3 0 18 8 32 19
37 26 174 59 249 60 45 1 77 -5 116 -23z m-2133 -296 c112 -9 233 -23 315 -39
123 -22 264 -53 305 -65 25 -8 79 -24 120 -36 41 -12 93 -30 115 -39 22 -10
58 -24 80 -31 22 -7 44 -16 50 -21 5 -5 16 -9 25 -9 20 0 335 -157 384 -192 6
-5 58 -39 116 -78 125 -84 157 -108 286 -221 96 -84 302 -296 333 -343 9 -13
26 -34 38 -47 13 -13 33 -39 45 -56 13 -18 47 -68 77 -110 29 -43 58 -79 62
-81 5 -2 9 -9 9 -16 0 -7 13 -30 29 -52 16 -21 42 -64 59 -94 16 -30 43 -78
59 -106 17 -28 63 -118 103 -200 40 -82 77 -150 81 -152 5 -2 9 -12 9 -23 0
-11 9 -37 20 -59 34 -67 6 -91 -54 -45 -18 14 -40 25 -50 25 -9 0 -21 10 -27
23 -5 12 -24 31 -42 43 -18 12 -80 60 -139 108 -59 47 -111 86 -114 86 -3 0
-24 16 -47 35 -22 19 -44 35 -48 35 -5 0 -20 11 -35 25 -15 14 -31 25 -35 25
-7 0 -37 18 -99 61 -56 38 -289 159 -306 159 -3 0 -20 6 -37 14 -72 31 -94 38
-186 62 -183 49 -372 64 -516 39 -107 -17 -207 -41 -233 -54 -10 -5 -44 -19
-77 -32 -33 -13 -75 -33 -94 -46 -19 -13 -37 -23 -42 -23 -12 0 -99 -60 -99
-68 0 -4 -16 -16 -36 -27 -78 -42 -277 -285 -349 -425 -19 -38 -34 -67 -46
-90 -4 -8 -20 -55 -36 -105 -35 -111 -39 -244 -10 -289 25 -38 80 -59 132 -52
55 9 106 46 200 146 194 206 241 243 408 327 57 28 112 47 187 63 30 6 71 16
92 22 72 21 317 -20 443 -73 129 -55 263 -125 299 -156 30 -27 101 -73 111
-73 5 0 39 -28 75 -62 37 -35 92 -85 123 -113 30 -27 135 -128 232 -223 97
-95 193 -184 213 -197 20 -14 64 -45 97 -70 33 -24 67 -44 76 -45 9 0 19 -7
23 -15 5 -14 47 -36 159 -84 26 -11 50 -27 53 -36 7 -16 -38 -88 -80 -131 -12
-11 -28 -29 -37 -40 -9 -10 -35 -36 -58 -58 -22 -21 -41 -42 -41 -47 0 -4 -13
-16 -30 -26 -16 -9 -30 -22 -30 -28 0 -6 -9 -15 -19 -20 -16 -8 -150 -106
-197 -144 -7 -5 -49 -28 -95 -52 -46 -23 -85 -45 -87 -50 -2 -5 -14 -9 -26 -9
-13 0 -26 -3 -30 -7 -10 -10 -78 -33 -99 -33 -9 0 -25 -4 -35 -9 -54 -28 -320
-43 -402 -22 -19 5 -62 14 -95 21 -90 19 -192 54 -272 94 -40 20 -74 36 -77
36 -7 0 -155 98 -206 137 -74 56 -108 85 -171 146 -33 31 -65 55 -70 52 -5 -4
-9 -1 -9 6 0 7 -18 29 -39 48 -97 89 -199 183 -235 215 -21 20 -49 39 -62 42
-13 3 -30 16 -38 29 -36 55 -253 172 -396 213 -181 53 -457 32 -609 -46 -31
-16 -68 -32 -82 -35 -15 -4 -50 -23 -79 -42 -29 -19 -54 -35 -57 -35 -17 0
-262 -213 -409 -356 -39 -38 -92 -87 -119 -109 -26 -22 -57 -49 -70 -60 -12
-12 -51 -42 -86 -69 -35 -26 -72 -54 -82 -62 -9 -8 -19 -14 -21 -14 -2 0 -33
-17 -67 -38 -63 -38 -171 -92 -184 -92 -4 0 -21 -6 -38 -14 -41 -18 -173 -51
-263 -67 -98 -16 -297 -7 -394 19 -119 32 -278 98 -347 144 -23 15 -46 28 -51
28 -6 0 -12 3 -14 8 -1 4 -41 36 -88 72 -123 94 -370 355 -370 391 0 18 30 49
48 49 21 0 163 73 214 109 24 17 66 48 95 69 61 44 120 95 206 177 347 335
382 366 483 442 83 62 233 163 242 163 2 0 32 13 66 29 80 39 134 61 174 72
17 5 49 14 70 20 103 30 234 44 297 31 27 -6 79 -16 115 -22 36 -6 69 -16 75
-21 5 -5 17 -9 28 -9 27 0 196 -87 242 -125 61 -50 153 -141 240 -238 44 -48
95 -98 115 -110 99 -66 220 -25 233 77 10 81 -13 214 -52 301 -5 11 -19 44
-30 73 -24 59 -74 147 -96 169 -8 8 -15 21 -15 28 0 8 -6 18 -13 22 -7 4 -27
28 -44 53 -40 57 -219 230 -239 230 -8 0 -13 4 -10 8 3 5 -7 15 -22 23 -15 7
-40 23 -57 35 -136 96 -380 167 -580 167 -129 0 -307 -25 -410 -57 -106 -34
-121 -39 -165 -59 -25 -10 -61 -26 -80 -34 -40 -17 -59 -26 -150 -73 -36 -18
-67 -36 -70 -40 -3 -3 -32 -22 -65 -40 -33 -19 -65 -39 -72 -45 -6 -5 -34 -26
-62 -45 -85 -59 -359 -272 -404 -316 -33 -32 -95 -66 -107 -59 -14 9 -12 42 4
73 7 15 51 104 96 197 45 94 88 177 95 185 7 8 30 49 51 90 21 41 57 102 81
135 24 32 43 63 43 67 0 6 45 72 79 114 4 5 14 20 20 33 7 12 20 30 29 40 9
10 35 42 57 71 115 153 347 388 492 499 26 20 57 44 67 54 11 9 23 17 27 17 4
0 29 17 56 38 45 34 65 47 118 76 11 6 27 17 36 23 8 7 80 46 160 86 146 74
297 137 424 177 39 12 77 24 85 27 23 10 142 44 170 49 14 3 34 9 45 14 11 5
40 11 65 15 25 4 68 11 95 16 85 15 275 38 400 48 120 9 287 6 485 -9z m-112
-3271 c96 -22 171 -73 210 -140 33 -59 31 -166 -5 -239 -37 -75 -129 -163
-211 -201 -110 -50 -113 -52 -103 -62 5 -5 4 -20 -2 -37 -17 -46 8 -106 57
-138 76 -49 86 -52 178 -52 92 0 87 -2 203 63 21 12 54 42 72 67 52 72 61 80
93 80 36 0 65 -38 56 -73 -3 -13 -32 -54 -64 -93 -45 -53 -74 -77 -130 -106
-106 -55 -161 -68 -256 -63 -67 3 -96 10 -158 38 -42 20 -79 32 -83 29 -4 -4
-5 -2 -3 3 2 6 -8 21 -20 33 l-24 24 -14 -21 c-9 -12 -19 -21 -24 -21 -5 0
-28 -13 -52 -29 -24 -15 -56 -32 -73 -36 -53 -14 -257 -17 -284 -5 -145 65
-211 116 -268 209 -28 45 -28 66 -3 91 35 35 61 25 119 -48 15 -19 30 -28 39
-24 9 3 13 1 9 -5 -10 -16 22 -48 78 -80 46 -25 58 -28 160 -28 108 0 111 0
163 34 28 19 52 38 52 43 0 5 6 16 14 24 14 14 20 92 10 126 -3 12 -20 20 -44
24 -22 4 -45 13 -51 20 -6 8 -17 14 -23 14 -20 0 -107 67 -156 121 -31 34 -54
72 -69 113 -38 110 -23 185 53 259 56 56 76 65 166 83 82 15 326 17 388 3z
M4500 8318 c-106 -64 -157 -200 -114 -303 17 -42 51 -93 74 -112 29 -25 103
-53 137 -53 19 0 59 7 89 16 67 19 122 78 147 156 22 70 21 77 -5 155 -31 89
-74 138 -142 157 -83 24 -124 21 -186 -16z m140 13 c0 -9 55 -41 71 -41 5 0
26 -18 48 -39 87 -86 59 -247 -53 -300 -62 -29 -90 -27 -141 10 -32 23 -48 44
-60 77 -20 60 -19 90 5 155 15 41 31 61 65 86 29 20 42 37 38 46 -3 9 1 15 11
15 9 0 16 -4 16 -9z M7085 8340 c-3 -5 -15 -10 -26 -10 -41 0 -134 -78 -115
-97 3 -3 -4 -13 -15 -22 -13 -10 -22 -34 -26 -68 -7 -60 4 -146 18 -138 5 4 9
-5 9 -19 0 -46 78 -116 130 -116 11 0 20 -4 20 -10 0 -5 23 -10 51 -10 74 0
150 39 188 97 17 26 31 54 31 64 0 10 5 21 10 24 14 9 12 92 -3 140 -32 104
-121 175 -218 175 -26 0 -51 -4 -54 -10z m85 -51 c70 -43 90 -84 90 -187 0
-52 -18 -89 -63 -129 -43 -38 -92 -48 -138 -29 -41 17 -104 80 -95 94 3 6 2
13 -4 17 -5 3 -10 31 -10 61 0 138 121 233 220 173z M10150 6610 c-14 -4 -69
-15 -123 -25 -53 -9 -99 -21 -102 -25 -3 -4 -21 -11 -41 -15 -20 -3 -43 -13
-51 -21 -8 -8 -26 -17 -41 -20 -29 -7 -138 -61 -162 -80 -8 -7 -42 -26 -75
-44 -33 -18 -64 -38 -68 -46 -4 -8 -14 -14 -21 -14 -8 0 -16 -6 -19 -14 -3 -8
-40 -40 -81 -72 -42 -31 -76 -60 -76 -65 0 -5 -38 -50 -85 -101 -47 -51 -85
-97 -85 -102 0 -5 -10 -20 -21 -32 -12 -13 -27 -32 -33 -42 -19 -32 -75 -116
-90 -136 -8 -10 -18 -33 -22 -50 -4 -17 -17 -41 -30 -53 -13 -12 -24 -29 -24
-38 0 -8 -3 -15 -8 -15 -4 0 -18 -28 -30 -62 -13 -35 -32 -80 -43 -100 -10
-20 -19 -46 -19 -58 0 -11 -9 -33 -20 -48 -11 -15 -24 -53 -30 -85 -5 -32 -16
-64 -23 -72 -8 -8 -20 -43 -26 -77 -14 -78 -43 -173 -55 -179 -8 -4 -29 47
-58 141 -13 43 -86 248 -98 275 -30 68 -48 113 -54 132 -4 11 -13 27 -21 33
-8 7 -15 22 -15 34 0 11 -9 32 -20 46 -11 14 -20 33 -20 42 0 10 -9 26 -21 37
-12 11 -23 37 -26 61 -3 24 -16 53 -29 67 -27 29 -94 148 -94 166 0 7 -9 20
-21 30 -12 11 -18 25 -14 36 4 13 -2 24 -20 35 -14 9 -25 26 -25 37 0 22 0 22
-82 -3 -32 -10 -38 -15 -38 -40 0 -16 11 -46 25 -68 14 -22 25 -43 25 -47 0
-5 14 -28 30 -53 29 -43 100 -181 100 -195 0 -4 7 -13 15 -21 8 -9 18 -27 22
-42 3 -15 17 -43 30 -62 12 -19 23 -39 23 -43 0 -9 15 -44 60 -142 15 -33 33
-78 40 -100 7 -22 21 -58 31 -80 18 -42 69 -183 89 -250 7 -22 16 -44 20 -50
4 -5 10 -26 13 -45 3 -19 10 -53 17 -75 6 -22 15 -58 20 -80 5 -22 19 -83 31
-135 52 -234 58 -507 13 -720 -4 -19 -10 -39 -14 -45 -4 -5 -13 -28 -20 -50
-26 -83 -86 -193 -149 -270 -35 -44 -74 -86 -85 -94 -12 -8 -23 -18 -26 -21
-14 -19 -185 -123 -213 -130 -18 -5 -57 -16 -87 -24 -71 -20 -244 -39 -273
-30 -12 4 -49 10 -82 14 -33 5 -82 16 -110 26 -27 10 -63 22 -80 28 -16 6 -63
28 -103 49 -67 34 -81 37 -155 37 -44 0 -94 4 -111 9 -17 6 -62 19 -100 31
-109 33 -186 102 -186 165 0 71 120 165 212 165 24 0 48 11 48 21 0 13 -90 11
-131 -4 -35 -12 -111 -63 -117 -79 -2 -4 -19 -10 -38 -14 -47 -9 -70 14 -85
84 -15 75 -7 116 35 167 19 23 32 45 29 49 -4 3 1 6 9 6 9 0 19 7 22 16 3 8
10 13 14 10 5 -3 20 3 33 12 13 9 40 24 59 33 l35 16 -28 8 c-29 8 -63 -4
-102 -35 -38 -30 -72 -40 -85 -25 -17 20 -26 95 -11 95 6 0 11 13 11 28 0 40
66 138 131 195 97 85 263 147 391 147 72 0 207 -22 264 -43 85 -31 113 -37
165 -37 69 0 181 37 177 59 -3 13 -24 17 -111 22 -131 6 -142 13 -143 97 -2
140 -26 334 -46 375 -11 22 -35 22 -42 0 -3 -10 -5 -103 -4 -206 0 -118 -3
-192 -10 -199 -7 -7 -27 -6 -64 2 -71 18 -275 15 -330 -4 -24 -7 -62 -19 -85
-25 -23 -6 -48 -17 -55 -24 -7 -7 -33 -23 -57 -36 -67 -34 -62 -64 -61 364 0
138 -4 256 -8 263 -7 11 -200 13 -1013 14 -553 1 -1010 -1 -1016 -5 -8 -5 -11
-94 -9 -313 2 -282 1 -306 -15 -315 -18 -9 -60 3 -89 27 -8 7 -50 24 -93 38
-67 22 -98 26 -214 27 -87 1 -139 -3 -146 -10 -16 -16 -42 -13 -58 7 -16 19
-19 191 -4 325 4 42 5 77 2 77 -3 0 -17 -4 -30 -9 -21 -8 -26 -18 -30 -63 -3
-29 -11 -82 -17 -118 -6 -36 -14 -106 -18 -157 -4 -51 -12 -97 -19 -104 -16
-16 -86 -28 -166 -29 -39 0 -66 -4 -63 -9 4 -5 1 -11 -6 -13 -23 -8 3 -27 59
-43 65 -19 152 -16 228 9 28 8 70 21 95 27 25 6 52 15 60 18 8 4 55 9 103 10
75 2 105 -3 190 -29 56 -17 113 -36 127 -43 22 -10 122 -84 142 -105 62 -62
112 -171 105 -226 -3 -21 -12 -46 -21 -54 -17 -17 -18 -17 -146 55 -31 17 -54
23 -76 20 -18 -3 -36 -1 -42 5 -6 6 -12 6 -16 -1 -6 -10 3 -15 109 -60 28 -12
60 -27 72 -34 31 -17 123 -127 123 -147 0 -9 5 -21 11 -27 7 -7 7 -23 -1 -54
-19 -67 -32 -89 -63 -106 -27 -14 -31 -13 -53 8 -32 30 -62 47 -152 85 -36 15
-132 19 -132 5 0 -4 28 -14 63 -21 34 -7 64 -17 67 -21 3 -4 29 -20 59 -37 48
-26 62 -41 93 -105 5 -11 3 -27 -6 -45 -48 -92 -216 -162 -392 -162 -35 0 -71
-7 -89 -16 -125 -68 -159 -82 -260 -108 -125 -34 -249 -37 -361 -11 -137 32
-306 131 -400 235 -110 121 -206 325 -232 495 -47 295 4 621 166 1060 16 44
33 89 37 100 4 11 13 34 21 50 7 17 34 77 58 135 41 96 111 237 180 364 14 27
26 55 26 62 0 8 4 14 8 14 4 0 23 30 42 68 19 37 61 110 92 162 32 52 58 99
58 106 0 23 -39 45 -81 47 -43 2 -45 1 -66 -43 -12 -25 -27 -50 -32 -57 -6 -6
-24 -38 -42 -70 -17 -32 -36 -62 -43 -68 -6 -5 -18 -25 -26 -44 -7 -18 -23
-43 -34 -55 -24 -25 -46 -69 -46 -95 0 -10 -11 -31 -25 -47 -14 -16 -25 -34
-25 -40 0 -6 -6 -17 -13 -23 -8 -6 -20 -30 -27 -53 -8 -24 -22 -55 -32 -70
-10 -14 -18 -31 -18 -38 0 -7 -16 -48 -35 -93 -19 -44 -35 -86 -35 -93 0 -7
-4 -14 -8 -16 -9 -3 -62 -128 -62 -145 0 -4 -11 -30 -25 -57 -14 -27 -25 -57
-25 -67 0 -9 -12 -48 -26 -85 -24 -64 -40 -130 -63 -259 -5 -27 -19 -88 -32
-135 -19 -73 -22 -112 -23 -275 -1 -183 14 -328 36 -341 4 -3 8 -16 8 -30 0
-30 30 -127 42 -135 10 -7 48 -79 48 -94 1 -5 9 -28 20 -50 21 -44 24 -67 11
-93 -12 -25 -40 -109 -56 -167 -7 -27 -20 -75 -28 -105 -30 -109 -49 -265 -48
-388 1 -68 6 -132 11 -142 6 -10 10 -43 10 -72 0 -32 11 -90 30 -148 53 -168
72 -239 65 -251 -4 -6 -18 -8 -30 -5 -33 8 -750 9 -811 1 -51 -7 -64 -18 -84
-70 -7 -20 -4 -30 16 -54 l25 -30 492 -1 c271 -1 497 -1 502 -1 14 1 5225 3
5415 2 85 0 468 -1 850 -2 382 0 709 -1 725 -1 92 -2 114 3 144 28 35 29 40
66 16 101 -18 26 -108 36 -319 33 -165 -2 -163 -2 -255 0 -58 1 -62 2 -45 15
10 8 24 15 30 15 7 0 14 9 17 20 3 11 12 20 21 20 19 0 133 57 141 70 4 6 14
10 24 10 10 0 25 7 32 17 8 9 33 25 57 35 23 10 42 23 42 28 0 6 17 17 37 25
21 9 45 25 55 35 11 11 28 20 39 20 11 0 22 7 25 15 3 8 15 17 26 21 18 5 59
34 138 95 14 11 51 38 82 62 100 75 207 165 271 229 35 35 87 84 115 110 29
25 52 51 52 57 0 6 5 11 10 11 6 0 10 6 10 13 0 6 34 47 75 89 41 42 75 81 75
85 0 5 16 24 35 43 19 19 35 39 35 45 0 7 9 20 20 30 11 10 20 24 20 31 0 8 9
19 20 26 11 7 20 17 20 21 0 5 14 29 30 54 28 41 49 77 89 152 8 14 20 30 28
34 7 4 13 17 13 27 0 10 4 22 10 25 5 3 17 21 26 40 9 19 21 35 26 35 5 0 6 5
3 10 -3 6 -2 10 4 10 6 0 13 16 17 35 3 19 12 39 20 46 8 6 14 17 14 23 0 6 9
28 20 49 11 20 20 44 20 52 0 8 4 23 10 33 11 20 39 96 47 130 3 12 9 22 14
22 5 0 9 10 9 23 1 12 9 40 20 62 11 22 19 55 20 73 0 18 8 49 19 70 19 37 25
69 36 172 3 30 15 101 26 158 10 58 19 146 19 200 0 143 -18 370 -35 427 -7
28 -23 88 -35 134 -12 46 -33 118 -47 160 -14 42 -27 85 -29 95 -2 11 -7 22
-12 25 -4 3 -16 26 -27 50 -11 24 -32 61 -47 82 -16 22 -28 43 -28 48 0 6 -6
14 -14 18 -8 4 -24 24 -35 45 -12 20 -28 39 -36 42 -8 3 -15 12 -15 19 0 16
-14 31 -139 150 -50 48 -109 96 -129 107 -20 12 -55 34 -77 50 -22 16 -51 32
-64 35 -12 3 -35 15 -50 25 -14 11 -35 21 -46 23 -11 2 -30 9 -43 16 -13 7
-47 19 -75 27 -29 8 -61 19 -72 23 -69 29 -178 41 -360 40 -104 0 -201 -4
-215 -9z m374 -130 c284 -64 454 -136 571 -242 16 -16 35 -28 40 -28 27 -1
232 -228 276 -306 89 -158 160 -338 187 -474 6 -30 16 -80 22 -111 12 -61 22
-161 24 -224 2 -127 -25 -401 -45 -452 -12 -32 -37 -29 -45 5 -17 77 -28 111
-46 147 -11 22 -22 52 -24 67 -3 26 -23 75 -43 108 -4 8 -19 35 -31 60 -13 25
-38 66 -56 93 -19 26 -34 52 -34 57 0 10 -68 110 -81 120 -4 3 -27 32 -51 65
-48 65 -222 231 -266 254 -15 8 -33 22 -40 33 -7 10 -18 18 -23 18 -6 0 -27
13 -47 29 -125 99 -445 239 -642 281 -30 7 -71 16 -90 21 -41 10 -195 22 -295
22 -103 1 -210 -10 -300 -29 -98 -21 -147 -23 -152 -7 -4 12 140 161 189 197
132 94 286 186 313 186 4 0 19 8 33 19 15 10 41 21 57 24 29 5 214 51 265 66
43 12 280 13 334 1z m-809 -1159 c17 -5 57 -14 90 -21 33 -7 86 -21 117 -31
32 -11 64 -19 73 -19 8 0 15 -4 15 -10 0 -5 9 -10 19 -10 11 0 23 -4 26 -10 3
-5 16 -10 28 -10 12 0 33 -9 47 -20 14 -11 29 -20 33 -20 11 0 216 -118 233
-133 7 -7 47 -39 90 -72 85 -66 98 -78 164 -151 72 -81 94 -107 120 -144 13
-19 27 -37 30 -40 3 -3 10 -12 15 -21 6 -9 29 -44 51 -77 51 -74 131 -238 154
-317 7 -22 16 -44 21 -50 5 -5 9 -19 9 -31 0 -12 7 -27 15 -34 11 -9 14 -22
10 -41 -3 -15 -1 -30 4 -34 6 -3 11 -24 11 -45 0 -21 4 -50 10 -65 5 -14 12
-106 15 -204 6 -210 7 -208 -94 -334 -39 -48 -71 -90 -71 -92 0 -10 -56 -70
-235 -255 -78 -81 -205 -193 -290 -256 -31 -24 -46 -29 -58 -22 -10 5 -14 14
-11 20 4 6 11 30 16 52 74 360 41 666 -108 972 -19 39 -34 76 -34 82 0 7 -4
12 -9 12 -5 0 -14 14 -21 31 -33 79 -227 299 -345 391 -110 85 -121 92 -175
120 -14 7 -42 23 -62 35 -21 13 -43 23 -50 23 -6 0 -19 6 -27 14 -26 24 -220
84 -321 99 -105 17 -321 14 -404 -5 -44 -10 -51 -9 -62 7 -8 10 -12 28 -9 39
3 12 14 73 25 136 25 136 60 291 70 305 4 6 13 33 20 60 7 28 17 55 22 62 11
13 182 75 253 91 57 13 155 30 200 35 51 7 348 -3 380 -12z m-3280 -643 c33
-15 41 -49 19 -83 l-18 -27 -638 4 -638 3 -22 22 c-18 19 -20 27 -12 50 5 16
19 30 34 34 14 4 300 7 637 8 448 1 619 -2 638 -11z m-341 -404 c20 -19 21
-78 2 -93 -10 -8 -141 -11 -479 -11 l-466 1 -15 24 c-22 34 -20 61 6 79 20 14
82 16 480 16 402 0 458 -2 472 -16z m349 -1 c9 -9 17 -29 17 -44 0 -42 -32
-59 -113 -59 -59 0 -71 3 -92 25 -30 29 -31 35 -5 68 19 24 26 26 98 25 56 0
82 -4 95 -15z m2486 -190 c123 -40 175 -67 350 -182 74 -49 247 -221 302 -301
62 -90 143 -254 168 -342 12 -40 27 -86 32 -103 18 -51 22 -104 22 -275 0
-165 -7 -257 -23 -295 -4 -11 -20 -56 -35 -100 -15 -44 -33 -90 -41 -102 -8
-12 -14 -28 -14 -35 0 -16 -41 -58 -57 -58 -7 0 -21 -4 -31 -9 -9 -5 -64 -27
-122 -49 -94 -36 -146 -54 -275 -91 -49 -15 -337 -11 -341 4 -2 6 23 43 56 84
61 77 140 225 159 299 26 101 30 122 40 207 10 89 -1 227 -27 340 -12 52 -63
179 -74 183 -4 2 -8 12 -8 22 0 10 -20 45 -45 79 -25 34 -45 65 -45 71 0 17
-136 150 -153 150 -9 0 -17 7 -17 15 0 8 -18 26 -39 41 -56 37 -56 36 -6 192
9 26 21 97 27 157 5 61 15 116 21 123 13 17 78 8 176 -25z m-2880 -217 c27
-24 27 -50 -1 -75 -20 -20 -35 -20 -455 -21 l-435 0 -18 22 c-11 13 -19 30
-20 39 0 17 24 42 50 52 8 4 205 5 436 4 399 -2 423 -3 443 -21z m384 9 c21
-9 23 -67 2 -88 -17 -18 -129 -16 -164 2 -19 11 -22 18 -17 43 3 17 13 36 22
43 18 12 127 13 157 0z m2234 -403 c24 -41 43 -80 43 -87 0 -8 12 -45 26 -82
14 -37 30 -88 35 -113 5 -25 14 -65 19 -90 6 -25 18 -108 26 -185 13 -115 13
-161 4 -255 -6 -63 -15 -128 -20 -145 -4 -16 -13 -57 -20 -90 -7 -33 -17 -64
-22 -70 -4 -5 -8 -16 -8 -25 0 -8 -13 -42 -30 -75 -16 -33 -30 -64 -30 -70 0
-5 -9 -20 -19 -32 l-19 -23 -2696 0 c-2559 0 -2697 1 -2703 17 -3 10 -18 45
-34 78 -40 84 -84 217 -100 305 -29 158 -15 489 27 615 7 22 22 73 34 113 12
39 27 73 33 73 26 3 40 -4 65 -29 43 -43 96 -79 112 -75 8 2 20 -6 25 -18 10
-21 45 -43 110 -69 17 -7 38 -16 47 -21 10 -5 26 -9 36 -9 10 0 22 -4 27 -9 6
-4 54 -16 107 -26 84 -16 112 -17 205 -7 151 16 294 68 423 156 41 28 50 30
118 27 40 -1 87 2 105 8 17 6 43 12 57 15 14 3 40 10 57 18 26 10 35 10 45 0
9 -9 13 -116 14 -424 2 -327 5 -414 16 -424 11 -11 196 -14 1033 -14 l1020 -1
18 22 c16 20 17 54 17 427 -1 277 3 409 10 416 8 8 30 4 78 -13 47 -17 95 -25
162 -28 70 -3 108 -10 145 -26 28 -12 52 -25 53 -29 2 -5 9 -8 15 -8 6 0 18
-6 26 -13 9 -7 36 -21 61 -31 25 -10 54 -22 65 -27 11 -4 54 -18 95 -31 109
-33 299 -32 425 1 101 27 240 84 271 112 11 11 26 19 32 19 23 0 217 206 252
268 20 36 41 61 49 59 8 -1 34 -35 58 -75z m-2223 -11 c22 -19 25 -49 7 -72
-13 -17 -31 -21 -89 -25 -62 -3 -75 -1 -92 16 -26 26 -25 55 0 80 18 18 30 20
90 16 39 -2 76 -9 84 -15z m-420 -10 c23 -26 17 -63 -14 -78 -39 -20 -836 -17
-867 3 -25 16 -31 62 -11 82 9 9 121 12 443 12 413 0 433 -1 449 -19z m355
-347 c18 -37 67 -82 109 -100 42 -17 39 -40 -7 -65 -48 -25 -81 -59 -97 -96
-20 -46 -48 -43 -67 5 -15 38 -40 60 -102 92 -40 20 -45 55 -9 64 39 10 104
66 120 104 16 39 33 38 53 -4z m-601 -94 c27 -26 27 -31 2 -58 -21 -22 -25
-22 -330 -22 -296 0 -310 1 -320 19 -14 27 -13 47 6 65 13 14 56 16 318 16
290 0 303 -1 324 -20z M4733 5454 c-25 -13 -41 -34 -69 -91 -39 -81 -58 -165
-40 -183 7 -7 319 -10 978 -10 l967 0 10 38 c6 20 11 45 11 54 0 51 91 188
125 188 6 0 22 -11 35 -25 22 -23 23 -28 10 -48 -31 -49 -48 -95 -54 -149 l-7
-58 64 0 c107 0 110 4 79 120 -22 85 -55 136 -103 160 -37 19 -63 20 -1006 20
-866 0 -971 -2 -1000 -16z M6970 4061 c0 -5 -9 -13 -20 -16 -40 -13 -19 -21
34 -14 61 8 79 16 71 30 -8 12 -85 12 -85 0z"/>
    <path fill="#1236d6" d="M3535 11037 c-71 -24 -120 -54 -162 -100 -173 -188 -220 -603 -118
-1057 20 -88 54 -210 60 -210 2 0 34 39 71 87 102 130 314 343 450 453 143
115 242 183 379 261 54 31 100 60 102 66 2 5 -20 41 -49 79 -165 220 -320 346
-503 409 -66 23 -179 29 -230 12z M8055 11031 c-140 -44 -247 -112 -371 -238
-86 -87 -204 -235 -204 -256 0 -7 25 -25 55 -40 74 -40 256 -159 335 -220 101
-79 288 -247 360 -323 36 -38 105 -118 155 -176 49 -59 93 -104 97 -100 9 9
51 165 71 262 40 190 51 444 27 619 -30 230 -125 398 -259 459 -74 34 -182 39
-266 13z M5470 10720 c-481 -65 -911 -215 -1288 -451 -390 -243 -752 -635
-1030 -1114 -67 -116 -252 -486 -252 -504 0 -19 17 -12 71 32 134 107 340 268
398 311 209 153 475 287 691 349 164 48 198 52 400 52 182 0 202 -2 293 -28
195 -54 380 -162 532 -312 159 -156 262 -321 331 -532 29 -87 36 -125 37 -195
2 -73 -1 -91 -19 -114 -83 -112 -200 -94 -337 53 -270 291 -389 370 -628 419
-146 29 -349 7 -508 -55 -88 -35 -210 -99 -295 -155 -150 -98 -247 -182 -556
-481 -217 -210 -352 -310 -522 -386 -43 -19 -78 -40 -78 -46 0 -20 171 -213
257 -290 205 -183 389 -285 616 -341 110 -26 363 -23 477 7 301 79 498 201
828 515 250 237 335 308 465 384 107 63 183 95 293 123 74 19 114 22 234 22
163 -1 243 -17 382 -77 167 -72 290 -164 583 -436 205 -191 282 -255 400 -333
113 -74 196 -116 309 -156 159 -56 216 -66 391 -66 145 0 169 3 260 28 213 60
412 179 598 357 116 111 237 246 237 264 0 6 -31 24 -69 39 -162 65 -343 203
-611 463 -193 188 -281 268 -359 327 -257 195 -488 291 -726 303 -188 10 -365
-41 -536 -156 -35 -24 -131 -112 -214 -196 -157 -160 -220 -204 -293 -204 -42
0 -106 41 -126 81 -45 90 4 310 111 507 183 337 497 579 845 652 105 22 336
27 448 10 331 -52 658 -211 1034 -506 304 -238 365 -278 337 -226 -5 9 -34 73
-66 142 -152 334 -381 698 -585 929 -96 109 -257 265 -360 348 -181 147 -304
226 -513 330 -347 174 -694 273 -1117 318 -195 21 -596 18 -770 -5z m-736
-2384 c82 -48 126 -133 126 -241 0 -101 -46 -184 -128 -232 -40 -24 -58 -28
-122 -28 -86 0 -139 22 -185 77 -69 81 -86 167 -56 268 39 126 132 193 258
186 44 -3 75 -11 107 -30z m2512 6 c183 -93 187 -373 7 -479 -41 -24 -59 -28
-118 -28 -80 1 -130 22 -181 77 -56 59 -69 94 -69 188 0 68 5 93 22 126 26 49
81 99 137 126 52 24 144 20 202 -10z M4591 8268 c-48 -32 -72 -78 -78 -146 -5
-69 15 -115 66 -149 60 -40 126 -24 177 43 96 125 -42 336 -165 252z M7049
8268 c-51 -29 -79 -83 -79 -149 1 -132 113 -208 209 -140 39 28 61 79 61 143
0 64 -24 114 -70 146 -41 27 -74 28 -121 0z M5754 7469 c-128 -16 -202 -47
-251 -103 -116 -131 -29 -345 181 -445 44 -21 93 -44 109 -50 25 -10 27 -14
27 -74 0 -75 -21 -114 -86 -160 -48 -34 -97 -46 -181 -47 -116 0 -231 59 -304
155 -44 58 -71 68 -92 34 -16 -26 8 -71 74 -136 73 -72 144 -109 245 -130 127
-26 243 1 347 81 l49 37 51 -40 c71 -54 133 -79 220 -87 126 -11 248 33 352
128 29 26 62 67 76 92 l24 46 -21 20 c-25 26 -47 19 -74 -25 -29 -47 -100
-110 -162 -142 -48 -25 -62 -28 -158 -28 -92 1 -110 3 -145 24 -89 51 -115 93
-115 181 l0 61 38 15 c143 58 251 146 294 241 32 70 31 164 -4 218 -14 22 -34
47 -44 57 -39 34 -130 66 -219 77 -100 12 -141 12 -231 0z M10215 6463 c-300
-42 -597 -194 -810 -414 -57 -58 -58 -61 -30 -55 180 36 269 46 408 46 190 0
376 -27 522 -75 331 -109 594 -271 815 -502 116 -121 190 -219 275 -366 70
-121 86 -159 140 -322 24 -71 46 -123 49 -115 15 41 36 269 36 385 0 157 -19
302 -59 451 -37 140 -52 178 -112 295 -215 418 -641 681 -1099 677 -58 -1
-118 -3 -135 -5z M3787 6288 c-38 -51 -97 -146 -97 -157 0 -5 14 -14 32 -20
37 -13 68 -39 68 -57 0 -7 -43 -89 -96 -181 -516 -902 -711 -1618 -563 -2075
70 -215 195 -390 347 -482 251 -152 513 -155 803 -10 79 39 95 44 158 44 131
0 256 41 324 108 41 40 48 76 21 117 -25 38 -105 84 -180 101 -38 10 -76 23
-84 31 -13 13 -12 17 9 34 28 23 40 23 114 4 69 -18 128 -47 179 -88 33 -26
40 -28 54 -16 10 8 23 28 31 46 54 130 -67 266 -288 323 -76 20 -96 31 -84 50
32 51 187 22 308 -58 39 -26 39 -26 54 -7 53 72 -78 271 -227 343 -145 71
-281 86 -445 49 -60 -14 -128 -32 -150 -41 -52 -20 -128 -20 -196 0 -69 20
-99 39 -99 64 0 28 30 40 107 40 80 1 143 13 154 32 5 7 9 34 9 59 0 53 24
240 41 319 14 65 24 80 55 80 12 0 26 -6 31 -12 4 -7 6 -103 4 -212 l-3 -199
48 7 c129 18 192 18 271 2 77 -15 218 -67 237 -86 6 -6 14 -10 18 -10 4 0 9
145 10 323 l3 322 1035 0 1035 0 3 -327 c1 -199 6 -328 12 -328 5 0 38 15 72
34 128 70 273 96 423 77 50 -6 99 -13 110 -14 19 -2 20 4 20 203 l0 204 28 10
c46 16 59 -7 78 -146 10 -68 18 -167 18 -220 l1 -97 38 -10 c20 -6 73 -11 118
-11 66 0 84 -3 98 -19 25 -27 10 -48 -52 -72 -86 -33 -179 -36 -251 -10 -84
30 -236 61 -306 61 -201 0 -415 -115 -497 -266 -24 -46 -33 -87 -29 -141 2
-31 13 -29 81 12 103 63 226 91 265 61 32 -24 8 -46 -74 -67 -40 -10 -94 -29
-119 -41 -60 -30 -142 -105 -158 -145 -26 -62 -13 -147 29 -181 11 -10 22 -6
53 19 61 48 127 78 204 91 63 11 72 10 87 -5 28 -28 5 -50 -68 -64 -103 -21
-175 -66 -199 -124 -10 -24 -9 -34 7 -61 25 -44 100 -93 178 -117 35 -11 110
-23 167 -26 96 -6 111 -10 208 -56 170 -78 239 -94 415 -94 140 0 156 2 240
30 209 70 359 204 460 410 61 126 90 227 106 370 50 448 -181 1214 -576 1910
-36 63 -65 121 -65 129 0 23 38 53 76 61 19 3 34 9 34 13 0 15 -98 177 -112
186 -12 7 -44 -2 -119 -31 -456 -180 -991 -308 -1484 -355 -186 -17 -798 -18
-960 0 -523 57 -1070 192 -1492 366 -35 14 -69 26 -77 26 -8 0 -26 -15 -39
-32z m2968 -821 c47 -27 86 -92 109 -184 19 -72 20 -109 6 -118 -19 -12 -188
-17 -194 -6 -9 14 19 131 45 192 17 38 19 53 10 62 -32 32 -114 -91 -128 -193
l-8 -55 -880 -5 c-484 -3 -932 -3 -995 0 l-115 5 1 50 c1 111 66 238 134 262
26 9 280 12 1005 12 l970 1 40 -23z M9285 5305 c-113 -14 -190 -33 -310 -76
-83 -30 -83 -30 -98 -77 -48 -147 -123 -519 -109 -534 4 -4 27 -3 52 2 25 4
90 11 145 15 507 35 1058 -306 1307 -810 25 -49 50 -106 57 -125 7 -19 17 -44
22 -55 30 -68 56 -201 71 -364 13 -138 1 -327 -28 -439 -9 -35 -14 -66 -11
-68 10 -10 241 193 357 312 163 169 307 343 350 423 17 33 7 312 -15 436 -22
118 -93 332 -146 436 -217 435 -621 768 -1079 890 -91 24 -300 49 -395 48 -38
-1 -115 -7 -170 -14z M5180 4661 c-29 -5 -35 -10 -35 -31 l0 -25 633 -5 c348
-3 642 -2 653 2 14 5 19 15 17 30 -3 22 -9 23 -113 29 -143 8 -1109 8 -1155 0z
M5152 4258 c-18 -18 -15 -46 7 -58 13 -6 177 -10 464 -10 435 0 444 0 463 21
14 15 16 24 7 37 -9 16 -51 17 -469 20 -349 2 -463 -1 -472 -10z M6272 4258
c-18 -18 -15 -46 8 -58 32 -17 141 -8 154 13 8 12 8 22 0 35 -14 22 -142 30
-162 10z M8751 3998 c-11 -87 -46 -248 -67 -302 -3 -9 10 -25 38 -44 80 -55
214 -207 277 -313 104 -176 149 -361 138 -572 -11 -216 -73 -385 -196 -540
-33 -41 -57 -78 -54 -81 3 -3 67 -3 142 0 101 4 159 12 223 30 108 30 251 81
341 122 64 29 68 33 96 94 74 161 96 276 95 493 0 150 -4 182 -27 271 -33 130
-67 219 -116 308 -133 239 -328 423 -576 541 -97 47 -243 95 -287 95 -12 0
-18 -23 -27 -102z M5143 3844 c-3 -9 -2 -24 4 -33 9 -14 57 -16 440 -19 362
-2 432 0 448 12 16 12 18 18 9 33 -10 17 -39 18 -453 21 -402 2 -442 1 -448
-14z M6277 3853 c-11 -10 -8 -41 4 -49 18 -11 122 -12 142 -2 21 11 22 44 1
52 -21 8 -139 8 -147 -1z M8560 3453 c-155 -222 -365 -354 -638 -400 -83 -14
-113 -15 -204 -4 -155 17 -300 65 -423 140 -55 33 -68 36 -160 42 -66 4 -124
14 -172 30 l-71 25 -6 -29 c-3 -16 -6 -206 -6 -423 l0 -393 -22 -15 c-20 -14
-136 -16 -1049 -16 l-1028 0 -20 26 c-20 26 -21 37 -21 435 0 225 -4 409 -8
409 -5 0 -35 -9 -68 -21 -32 -11 -103 -24 -156 -29 -69 -5 -107 -14 -130 -28
-304 -187 -613 -206 -906 -56 -48 24 -122 73 -164 109 -43 36 -80 65 -82 65
-9 0 -49 -120 -73 -220 -34 -144 -43 -402 -19 -546 20 -117 62 -246 111 -344
l35 -70 2683 2 2682 3 32 66 c41 83 77 185 99 280 22 100 30 387 14 499 -23
161 -83 358 -149 488 l-27 53 -54 -78z M5152 3448 c-7 -7 -12 -19 -12 -28 0
-39 11 -40 440 -40 310 0 419 3 428 12 18 18 14 46 -7 58 -30 15 -833 14 -849
-2z M6282 3448 c-7 -7 -12 -19 -12 -28 0 -28 23 -40 78 -40 62 0 92 13 92 40
0 11 -9 24 -19 30 -27 14 -124 13 -139 -2z M6332 3081 c-12 -33 -64 -76 -104
-86 -38 -10 -35 -31 7 -45 36 -12 89 -64 100 -99 9 -29 24 -26 36 7 15 38 44
67 90 87 21 10 39 22 39 26 0 5 -22 20 -50 34 -36 18 -55 36 -70 65 -11 22
-24 40 -29 40 -5 0 -14 -13 -19 -29z M5152 3008 c-7 -7 -12 -19 -12 -28 0 -38
16 -40 311 -40 248 0 290 2 303 16 20 20 20 27 -2 47 -16 15 -52 17 -303 17
-208 0 -288 -3 -297 -12z"/>
  </g>
</svg>
