<?xml version="1.0" encoding="UTF-8"?>
<svg xmlns="http://www.w3.org/2000/svg" width="360" height="366" viewBox="0 0 360 366" role="img" aria-labelledby="title desc">
  <title id="title">BillBandit writing note raccoon</title>
  <desc id="desc">Clean vector recreation of the source PNG at exact source dimensions.</desc><g id="cream-shapes" transform="translate(0.000000,366.000000) scale(0.100000,-0.100000)" fill="#f6efdf" stroke="none">
<path d="M775 3427 c-34 -16 -96 -81 -119 -124 -44 -87 -59 -264 -32 -391 14
-64 14 -64 -23 -120 -20 -32 -66 -106 -101 -165 -74 -123 -154 -209 -217 -233
-27 -11 -43 -23 -43 -34 0 -18 71 -133 89 -144 18 -12 12 -36 -9 -36 -11 0
-20 -4 -20 -9 0 -21 94 -133 183 -219 54 -51 97 -96 97 -99 0 -4 -8 -15 -17
-26 -14 -14 -18 -36 -18 -91 1 -82 17 -119 89 -207 25 -31 46 -63 46 -70 0
-23 -95 -183 -172 -292 -107 -150 -123 -191 -123 -312 0 -89 3 -106 28 -156
15 -31 27 -59 27 -62 0 -4 -53 -7 -119 -7 -89 0 -121 -3 -130 -14 -9 -11 -8
-15 4 -20 33 -12 550 -19 640 -7 52 6 121 8 163 3 l74 -7 -154 -89 c-302 -176
-388 -229 -388 -237 0 -5 2 -9 4 -9 2 0 39 -6 82 -14 44 -8 102 -17 129 -21
28 -3 73 -10 100 -15 49 -9 126 -21 398 -60 217 -31 180 -46 368 153 274 291
206 259 538 258 176 -1 307 3 341 10 33 7 242 14 512 18 335 5 461 10 470 19
20 20 0 27 -96 30 l-92 4 68 68 c135 138 196 330 169 526 -46 327 -327 552
-636 507 -135 -19 -264 -103 -320 -206 -11 -20 -23 -37 -26 -37 -4 0 -21 21
-38 48 -46 70 -78 102 -101 102 -11 0 -20 -3 -20 -6 0 -4 22 -36 49 -73 171
-231 271 -486 271 -694 0 -151 -49 -233 -152 -258 -36 -8 -163 -13 -398 -14
-190 -1 -362 -5 -383 -10 -22 -4 -77 -2 -131 5 -83 12 -100 11 -159 -5 -72
-19 -97 -16 -97 14 0 35 13 53 57 81 25 16 39 31 33 35 -28 17 -120 -73 -120
-117 0 -12 -8 -18 -25 -18 -55 0 -51 77 7 137 17 18 28 36 25 40 -13 12 -77
-61 -89 -102 -15 -50 -14 -50 -33 -35 -19 16 -19 72 0 109 22 44 102 108 161
131 57 21 119 25 294 21 86 -3 122 1 202 22 155 41 378 111 378 119 0 5 -20 8
-44 8 -45 0 -45 0 -60 54 -9 30 -25 74 -35 98 -30 69 -37 23 -11 -73 12 -45
18 -85 13 -89 -11 -9 -116 -43 -238 -76 -91 -24 -117 -27 -290 -28 -174 -1
-194 -3 -238 -23 -99 -46 -198 -169 -183 -228 5 -21 2 -24 -42 -29 -26 -3
-174 -7 -329 -9 -281 -2 -281 -2 -308 23 -79 72 -98 212 -47 336 16 38 71 132
123 209 103 153 153 247 144 274 -3 10 -29 48 -58 84 -80 101 -106 192 -72
257 16 31 59 50 76 33 6 -6 3 -21 -7 -41 -13 -26 -13 -39 -4 -66 6 -19 18 -40
27 -48 15 -11 16 -11 8 7 -24 59 -12 135 23 135 19 0 57 -36 86 -83 10 -16 33
-35 52 -43 51 -21 122 -91 150 -146 26 -52 31 -120 14 -195 -6 -23 -17 -91
-26 -150 -45 -316 -50 -343 -78 -407 -9 -21 -16 -42 -16 -47 0 -19 19 -7 39
24 35 57 46 108 117 543 9 55 15 128 12 162 -4 53 -11 71 -46 122 -40 59 -40
60 -17 60 16 0 35 -13 55 -38 34 -43 71 -57 235 -87 111 -21 379 -16 525 10
238 43 471 129 653 243 110 69 257 185 257 203 0 5 -16 9 -35 9 -44 0 -44 13
-1 40 37 22 136 125 136 141 0 4 -13 15 -29 23 -83 43 -144 127 -211 288 -24
57 -47 107 -52 113 -13 15 -10 38 13 84 64 134 95 319 69 425 -17 70 -65 135
-122 164 -109 54 -252 10 -395 -121 l-42 -39 -103 41 c-172 69 -257 84 -453
85 -143 0 -184 -3 -258 -22 -49 -12 -90 -22 -92 -22 -1 0 -21 24 -44 54 -86
115 -160 166 -248 172 -37 3 -69 -1 -88 -9z m134 -87 c40 -20 103 -85 134
-139 18 -30 18 -30 -45 -62 -85 -43 -160 -95 -236 -164 -35 -32 -66 -54 -70
-50 -4 3 -9 51 -10 105 -6 157 37 277 111 314 43 21 70 20 116 -4z m1569 -137
c54 -40 67 -78 67 -193 0 -90 -4 -118 -29 -193 -16 -48 -33 -86 -36 -85 -4 2
-41 46 -83 98 -67 84 -169 180 -234 221 -13 8 -23 19 -23 26 0 21 113 113 165
133 61 25 135 21 173 -7z m-751 -22 c68 -12 215 -62 277 -93 209 -106 411
-318 503 -528 15 -35 45 -98 65 -139 20 -42 35 -77 33 -79 -10 -10 -96 49
-220 152 -202 166 -331 226 -488 226 -172 0 -325 -99 -406 -261 -33 -66 -38
-98 -19 -117 26 -26 65 -13 137 48 96 80 122 93 212 98 148 9 223 -32 429
-234 135 -132 223 -201 278 -218 12 -4 22 -11 22 -16 0 -16 -104 -101 -165
-134 -91 -51 -158 -69 -250 -68 -99 0 -189 27 -271 80 -32 22 -118 101 -190
176 -112 116 -142 141 -200 168 -59 28 -80 33 -144 33 -97 -1 -144 -25 -285
-145 -120 -104 -182 -143 -261 -166 -102 -29 -220 7 -288 87 -51 62 -116 159
-116 175 0 7 12 15 27 19 37 8 113 63 222 160 112 100 179 140 258 156 54 11
69 11 115 -4 72 -22 113 -55 173 -135 81 -108 134 -95 121 32 -13 124 -99 251
-205 303 -48 24 -68 28 -141 28 -68 0 -97 -5 -145 -26 -70 -29 -153 -82 -219
-140 -26 -23 -46 -35 -46 -27 0 18 77 143 133 216 242 313 628 449 1054 373z
m-350 -1111 c93 -42 77 -138 -32 -189 -37 -17 -46 -26 -43 -44 2 -12 19 -32
38 -45 30 -20 45 -23 96 -20 48 3 70 10 97 30 19 15 37 24 40 21 14 -14 -19
-47 -70 -70 -62 -29 -108 -27 -179 8 -33 15 -47 17 -68 9 -36 -13 -92 -13
-119 1 -27 14 -77 60 -77 71 0 4 7 8 15 8 8 0 15 -4 15 -9 0 -18 67 -51 103
-51 19 0 45 8 57 18 31 25 20 55 -35 87 -69 40 -93 104 -59 153 9 13 26 27 38
32 39 16 139 11 183 -10z m1698 -394 c94 -26 225 -99 225 -125 0 -5 -24 -3
-52 5 -67 17 -208 18 -273 0 -77 -20 -153 -63 -213 -119 -53 -51 -92 -111 -92
-142 0 -35 -27 -10 -59 55 -33 68 -34 71 -20 112 19 59 84 135 144 169 99 55
236 74 340 45z m188 -365 c69 -27 150 -90 191 -149 29 -41 29 -41 13 -124 -17
-88 -45 -168 -58 -168 -4 0 -18 20 -30 45 -32 64 -116 140 -196 178 -61 28
-77 31 -163 32 -109 0 -164 -17 -236 -71 -24 -19 -46 -34 -49 -34 -3 0 -5 9
-5 21 0 11 -5 30 -11 41 -9 17 -7 29 11 62 47 85 126 147 235 182 64 21 227
13 298 -15z m-310 -359 c61 -27 124 -86 153 -144 29 -57 50 -156 36 -170 -5
-5 -53 -9 -108 -10 -161 -2 -150 -5 -146 46 2 25 -1 60 -7 78 -14 41 -59 91
-100 113 -28 14 -31 21 -31 60 0 40 2 44 28 48 49 9 130 -1 175 -21z m-174
-197 c12 -31 21 -59 21 -62 0 -4 7 -14 16 -24 9 -10 14 -26 10 -35 -5 -14 -16
-15 -74 -9 -37 4 -68 8 -70 9 -1 2 9 23 22 47 13 24 27 63 31 87 4 23 11 42
15 42 5 0 18 -25 29 -55z m-1430 -270 c129 -16 163 -30 51 -22 -130 9 -280 31
-280 41 0 5 24 6 58 2 31 -4 108 -14 171 -21z m231 -35 c0 -11 -31 -11 -75 0
-26 7 -22 8 23 9 29 0 52 -3 52 -9z m-473 -40 c125 -16 203 -32 203 -40 0 -5
-8 -7 -17 -5 -10 2 -82 11 -160 21 -79 10 -143 22 -143 26 0 10 23 10 117 -2z
m373 -50 c0 -13 -30 -13 -50 0 -11 7 -7 10 18 10 17 0 32 -4 32 -10z m-417
-41 c32 -7 54 -15 50 -20 -9 -8 -252 27 -262 37 -8 9 143 -3 212 -17z m332
-48 c3 -6 -3 -15 -14 -20 -15 -8 -24 -6 -43 9 -23 19 -23 19 14 20 20 0 39 -4
43 -9z M905 2403 c-53 -58 -20 -153 54 -153 65 0 107 71 76 130 -29 56 -89 67
-130 23z m97 -20 c24 -21 23 -48 -2 -73 -24 -24 -34 -25 -54 -4 -21 20 -20 53
1 76 20 22 31 23 55 1z M1759 2329 c-16 -17 -29 -42 -29 -56 0 -67 63 -116
120 -93 66 27 81 101 31 151 -40 40 -83 39 -122 -2z m89 -11 c20 -20 14 -57
-13 -84 -23 -23 -28 -24 -47 -12 -34 23 -40 53 -17 82 22 28 57 34 77 14z"/>
</g>
  <g id="navy-shapes" transform="translate(0.000000,366.000000) scale(0.100000,-0.100000)" fill="#0b1f68" stroke="none">
<path d="M819 3343 c-34 -5 -81 -57 -103 -113 -20 -50 -33 -207 -22 -265 7
-37 7 -37 64 17 71 66 138 115 220 159 34 18 62 37 62 41 0 5 -8 21 -17 36
-60 92 -131 135 -204 125z M2315 3203 c-72 -29 -177 -117 -158 -132 4 -4 31
-25 58 -46 64 -49 165 -153 217 -222 23 -30 44 -50 48 -46 4 4 18 37 31 73 32
91 34 268 4 318 -41 68 -116 89 -200 55z M1325 3183 c-269 -62 -410 -134 -560
-288 -75 -75 -195 -239 -195 -264 0 -6 26 9 58 33 71 56 172 109 234 124 123
31 243 -4 333 -95 136 -141 156 -413 25 -343 -11 6 -31 30 -45 54 -40 69 -105
123 -170 141 -122 36 -218 -9 -435 -203 -44 -40 -102 -83 -128 -95 -26 -12
-49 -23 -51 -24 -7 -4 103 -159 133 -187 68 -62 166 -86 253 -61 105 31 161
68 342 232 74 66 198 97 289 72 88 -24 127 -52 282 -208 168 -169 233 -213
344 -231 28 -4 62 -11 76 -15 40 -10 171 21 246 57 63 30 174 119 174 138 0 5
-10 12 -22 16 -52 16 -139 86 -267 214 -186 187 -284 239 -426 228 -76 -7
-131 -33 -196 -93 -63 -59 -101 -78 -133 -65 -51 19 -43 88 21 188 51 80 119
141 203 181 74 35 77 36 195 35 106 -1 128 -4 184 -27 97 -40 184 -97 304
-197 100 -84 178 -140 193 -140 3 0 0 10 -8 23 -9 12 -32 63 -54 112 -194 455
-557 698 -1038 694 -77 -1 -150 -3 -161 -6z m-299 -777 c35 -35 41 -57 24
-100 -26 -69 -108 -91 -155 -40 -41 44 -39 97 5 144 39 42 81 41 126 -4z m838
-46 c14 -5 34 -27 46 -49 19 -38 19 -43 5 -79 -16 -40 -58 -72 -95 -72 -34 0
-78 31 -90 63 -14 40 -13 53 7 94 23 49 70 65 127 43z M957 2379 c-21 -12 -22
-52 -2 -69 13 -10 19 -10 35 5 11 10 20 26 20 36 0 24 -30 40 -53 28z M1780
2306 c-15 -20 -9 -56 12 -70 22 -13 58 17 58 49 0 34 -47 48 -70 21z M1210
2073 c-35 -7 -60 -37 -60 -72 0 -36 46 -93 90 -111 26 -11 30 -18 30 -50 0
-28 -5 -40 -22 -49 -21 -11 -20 -11 10 -6 21 3 46 -2 71 -16 71 -37 180 -23
222 27 8 10 -4 5 -28 -10 -38 -25 -50 -28 -106 -24 -79 5 -127 34 -127 79 0
25 6 32 40 45 48 19 100 76 100 109 0 25 -18 48 -51 65 -22 12 -133 21 -169
13z M619 1821 c-20 -16 -24 -28 -24 -78 1 -68 25 -122 87 -192 52 -60 62 -86
47 -125 -13 -33 -127 -228 -138 -236 -15 -11 -103 -152 -123 -197 -18 -38 -22
-67 -23 -143 0 -85 3 -100 27 -141 15 -25 35 -52 44 -60 18 -15 112 -17 467
-10 176 3 187 5 187 22 0 81 86 190 189 238 53 25 67 26 266 32 171 5 224 10
284 28 74 21 213 64 219 67 2 1 -7 39 -19 86 -23 84 -21 118 4 118 13 0 59
-112 69 -165 2 -16 13 -21 53 -25 55 -6 69 -28 25 -41 -14 -4 -79 -23 -145
-43 -316 -95 -352 -102 -480 -87 -84 10 -112 10 -172 -3 -141 -30 -233 -111
-233 -204 0 -41 16 -49 24 -12 6 33 81 120 102 120 23 0 16 -19 -21 -63 -48
-56 -48 -127 0 -127 1 0 5 13 8 29 11 52 86 121 132 121 27 0 16 -29 -17 -46
-41 -21 -67 -53 -68 -81 0 -28 25 -30 90 -7 36 12 63 14 140 7 52 -4 104 -7
115 -6 11 2 189 4 395 5 458 4 477 7 533 113 20 35 22 55 21 170 -1 111 -5
143 -28 215 -48 155 -127 307 -228 443 -32 43 -58 83 -58 88 0 5 11 14 25 21
24 11 24 11 4 39 -11 16 -25 29 -30 29 -5 0 -42 -15 -82 -34 -126 -58 -271
-103 -462 -142 -129 -27 -488 -27 -590 -1 -105 27 -165 48 -165 56 0 12 -48
61 -59 61 -5 0 6 -23 25 -51 19 -28 37 -62 40 -74 11 -45 -3 -179 -50 -460
-29 -178 -38 -211 -76 -285 -32 -63 -76 -69 -51 -7 20 50 47 164 61 257 24
169 39 266 50 335 7 38 10 91 7 117 -10 79 -72 156 -162 200 -25 12 -52 38
-73 69 -18 28 -40 53 -49 56 -37 14 -59 -73 -28 -113 19 -26 19 -34 -4 -34
-40 0 -72 108 -42 143 10 13 6 27 -10 27 -4 0 -17 -9 -30 -19z M1120 1792 c8
-5 26 -13 40 -16 17 -5 20 -4 10 2 -8 5 -26 13 -40 16 -17 5 -20 4 -10 -2z
M2875 1674 c-129 -35 -193 -77 -250 -162 -36 -55 -36 -103 0 -165 28 -49 28
-49 57 5 49 90 149 168 269 208 55 19 81 22 187 18 141 -5 142 -1 13 59 -64
30 -86 35 -165 38 -50 2 -100 2 -111 -1z M2990 1320 c-105 -22 -197 -86 -248
-173 -20 -35 -21 -43 -10 -78 11 -40 11 -40 37 -16 104 95 277 114 426 45 84
-38 159 -107 197 -181 18 -36 29 -24 51 53 30 105 30 149 1 192 -34 48 -114
109 -184 138 -62 26 -194 36 -270 20z M2780 961 c-21 -6 -24 -12 -22 -36 2
-17 10 -34 19 -40 81 -51 123 -120 123 -203 0 -53 0 -53 115 -50 115 3 115 3
115 54 0 164 -196 318 -350 275z M2747 760 c-4 -16 -16 -49 -27 -72 -24 -50
-17 -58 53 -58 48 0 58 9 33 29 -7 6 -21 38 -30 71 -9 33 -18 60 -20 60 -2 0
-6 -13 -9 -30z M1025 580 c-3 -5 -2 -10 4 -10 5 0 13 5 16 10 3 6 2 10 -4 10
-5 0 -13 -4 -16 -10z M920 523 c-13 -15 -12 -16 4 -10 10 4 20 7 22 7 2 0 4 5
4 10 0 15 -13 12 -30 -7z M1355 260 c4 -6 11 -8 16 -5 14 9 11 15 -7 15 -8 0
-12 -5 -9 -10z"/>
</g>
</svg>
